{"glyphs":{"0":{"ha":950,"x_min":69,"x_max":928,"o":"m 453 -21 q 180 74 290 -21 q 69 397 69 169 q 113 668 69 535 q 263 894 157 801 q 544 986 369 986 q 817 891 707 986 q 928 568 928 796 q 884 298 928 432 q 734 72 840 164 q 453 -21 628 -21 m 453 153 q 598 223 543 153 q 676 392 653 293 q 699 588 699 492 q 656 760 699 708 q 544 813 614 813 q 399 742 454 813 q 322 573 344 672 q 299 378 299 474 q 341 205 299 257 q 453 153 383 153 z "},"1":{"ha":608,"x_min":89,"x_max":581,"o":"m 304 663 q 241 623 282 636 q 154 610 200 610 l 89 610 l 124 811 l 168 811 q 310 849 254 811 q 400 965 367 888 l 581 965 l 411 0 l 189 0 l 304 663 z "},"2":{"ha":821,"x_min":-17,"x_max":831,"o":"m 13 164 q 236 286 125 222 q 414 400 347 350 q 540 527 494 460 q 586 676 586 594 q 464 810 586 810 q 357 764 390 810 q 324 650 324 718 q 328 592 324 615 l 104 614 q 99 669 99 642 q 135 819 99 747 q 257 939 171 892 q 482 986 343 986 q 731 922 631 986 q 831 706 831 858 q 769 497 831 589 q 596 324 707 406 q 346 178 513 263 l 744 178 l 713 0 l -17 0 l 13 164 z "},"3":{"ha":843,"x_min":21,"x_max":832,"o":"m 408 -21 q 138 52 250 -21 q 21 293 25 125 l 250 314 q 297 188 254 225 q 400 151 339 151 q 510 192 476 151 q 543 289 543 232 q 498 387 543 360 q 389 414 453 414 l 344 414 l 371 567 l 438 567 q 558 604 521 567 q 596 703 596 642 q 560 791 596 765 q 471 817 524 817 q 357 770 394 817 q 314 647 319 724 l 97 676 q 211 904 114 822 q 482 986 308 986 q 724 933 615 986 q 832 742 832 879 q 763 571 832 639 q 586 488 694 503 q 725 421 672 472 q 778 275 778 369 q 739 131 778 199 q 617 22 700 64 q 408 -21 533 -21 z "},"4":{"ha":893,"x_min":11,"x_max":849,"o":"m 676 213 l 639 0 l 418 0 l 456 213 l 11 213 l 39 364 l 578 965 l 810 965 l 704 376 l 849 376 l 821 213 l 676 213 m 556 678 q 567 733 560 697 l 578 783 l 575 783 q 506 686 542 726 l 314 460 q 236 376 267 406 l 493 376 l 556 678 z "},"5":{"ha":835,"x_min":25,"x_max":839,"o":"m 388 -21 q 147 41 251 -21 q 25 247 42 103 l 249 282 q 297 184 258 214 q 392 154 335 154 q 521 212 482 154 q 560 347 560 269 q 525 460 560 421 q 425 500 490 500 q 269 385 314 500 l 75 404 l 232 965 l 839 965 l 808 788 l 357 788 l 289 557 q 378 635 319 608 q 504 663 438 663 q 636 636 572 663 q 743 546 700 610 q 786 375 786 482 q 747 187 786 276 q 619 38 708 97 q 388 -21 529 -21 z "},"6":{"ha":871,"x_min":72,"x_max":871,"o":"m 528 651 q 669 622 603 651 q 779 524 736 593 q 822 344 822 456 q 777 163 822 246 q 644 29 732 79 q 439 -21 557 -21 q 177 76 282 -21 q 72 400 72 172 q 118 684 72 551 q 268 901 164 817 q 535 986 372 986 q 760 926 667 986 q 871 733 854 867 l 657 700 q 521 818 638 818 q 376 741 431 817 q 300 546 322 665 q 528 651 389 651 m 435 149 q 563 205 524 149 q 603 339 603 261 q 562 453 603 417 q 460 489 521 489 q 360 462 406 489 q 285 383 314 435 q 435 149 285 149 z "},"7":{"ha":746,"x_min":101,"x_max":833,"o":"m 104 25 q 256 436 132 235 q 578 779 381 638 l 107 779 l 140 965 l 833 965 l 803 793 q 490 460 601 643 q 351 47 379 276 l 346 0 l 101 0 l 104 25 z "},"8":{"ha":890,"x_min":29,"x_max":869,"o":"m 681 522 q 833 288 833 446 q 786 128 833 199 q 647 19 739 58 q 426 -21 556 -21 q 141 49 253 -21 q 29 250 29 118 q 86 404 29 340 q 260 494 143 468 q 139 704 139 567 q 179 846 139 782 q 302 948 219 910 q 507 986 385 986 q 764 926 658 986 q 869 739 869 865 q 825 606 869 664 q 681 522 781 549 m 503 835 q 389 798 421 835 q 357 713 357 761 q 391 631 357 660 q 486 585 425 601 l 540 569 q 626 628 601 593 q 650 708 650 664 q 609 806 650 778 q 503 835 568 835 m 436 143 q 563 183 524 143 q 603 279 603 224 q 569 365 603 332 q 468 419 536 399 l 397 442 q 294 374 325 418 q 264 279 264 331 q 313 174 264 206 q 436 143 363 143 z "},"9":{"ha":879,"x_min":49,"x_max":853,"o":"m 478 986 q 747 890 640 986 q 853 556 853 794 q 819 301 853 429 q 685 76 785 172 q 401 -21 585 -21 q 165 41 264 -21 q 49 238 65 103 l 263 271 q 314 176 269 204 q 413 147 358 147 q 559 228 507 147 q 631 432 611 308 q 535 365 582 388 q 426 343 489 343 q 272 376 346 343 q 149 478 197 410 q 101 649 101 547 q 139 808 101 731 q 260 935 176 885 q 478 986 344 986 m 469 506 q 569 531 525 506 q 642 600 613 556 q 598 772 640 722 q 482 822 556 822 q 356 772 394 822 q 318 654 318 721 q 358 543 318 581 q 469 506 399 506 z "},"\u0000":{"ha":0,"x_min":0,"x_max":0,"o":""},"\r":{"ha":0,"x_min":0,"x_max":0,"o":""}," ":{"ha":343,"x_min":0,"x_max":0,"o":""},"A":{"ha":1022,"x_min":-42,"x_max":943,"o":"m 682 231 l 319 231 l 204 0 l -42 0 l 490 986 l 758 986 l 943 0 l 718 0 l 682 231 m 657 396 l 615 668 q 601 811 604 754 l 599 811 q 540 671 567 722 l 403 396 l 657 396 z "},"B":{"ha":953,"x_min":42,"x_max":947,"o":"m 713 506 q 843 440 793 494 q 893 293 893 386 q 854 147 893 213 q 729 40 815 81 q 511 0 643 0 l 42 0 l 217 986 l 650 986 q 865 930 782 986 q 947 754 947 874 q 879 583 947 644 q 713 506 811 521 m 525 581 q 655 617 615 581 q 694 714 694 654 q 571 821 694 821 l 422 821 l 379 581 l 525 581 m 471 165 q 609 206 569 165 q 649 307 649 246 q 611 398 649 371 q 500 425 574 425 l 351 425 l 306 165 l 471 165 z "},"C":{"ha":1010,"x_min":65,"x_max":1028,"o":"m 514 -24 q 188 84 311 -24 q 65 424 65 192 q 119 699 65 565 q 292 921 172 832 q 599 1010 413 1010 q 901 924 782 1010 q 1028 656 1019 839 l 788 614 q 731 772 785 722 q 590 821 676 821 q 426 760 489 821 q 335 609 363 699 q 308 429 308 519 q 367 224 308 282 q 517 167 426 167 q 742 369 694 167 l 972 318 q 514 -24 868 -24 z "},"D":{"ha":1033,"x_min":42,"x_max":1019,"o":"m 215 986 l 569 986 q 801 938 699 986 q 961 791 903 889 q 1019 550 1019 693 q 956 277 1019 403 q 760 76 892 151 q 436 0 629 0 l 42 0 l 215 986 m 439 172 q 638 228 563 172 q 744 367 713 283 q 776 543 776 450 q 714 748 776 682 q 563 814 651 814 l 419 814 l 306 172 l 439 172 z "},"E":{"ha":856,"x_min":42,"x_max":890,"o":"m 419 813 l 379 590 l 797 590 l 767 418 l 349 418 l 306 174 l 757 174 l 726 0 l 42 0 l 215 986 l 890 986 l 860 813 l 419 813 z "},"F":{"ha":815,"x_min":42,"x_max":890,"o":"m 418 808 l 378 581 l 794 581 l 764 406 l 347 406 l 276 0 l 42 0 l 215 986 l 890 986 l 860 808 l 418 808 z "},"G":{"ha":1042,"x_min":64,"x_max":1029,"o":"m 454 -24 q 252 24 340 -24 q 114 168 164 71 q 64 408 64 265 q 120 695 64 558 q 299 921 176 832 q 611 1010 422 1010 q 896 931 786 1010 q 1029 707 1006 853 l 793 664 q 600 833 771 833 q 432 769 497 833 q 338 609 367 706 q 308 411 308 513 q 360 216 308 275 q 514 157 413 157 q 685 216 626 157 q 760 353 744 275 l 765 381 l 524 381 l 553 549 l 1008 549 l 911 0 l 746 0 l 760 143 q 640 19 717 61 q 454 -24 563 -24 z "},"H":{"ha":1054,"x_min":42,"x_max":1064,"o":"m 890 0 l 656 0 l 728 410 l 347 410 l 276 0 l 42 0 l 215 986 l 450 986 l 379 590 l 760 590 l 829 986 l 1064 986 l 890 0 z "},"I":{"ha":440,"x_min":42,"x_max":450,"o":"m 42 0 l 215 986 l 450 986 l 276 0 l 42 0 z "},"J":{"ha":583,"x_min":-37,"x_max":610,"o":"m 482 268 q 371 53 456 124 q 140 -17 286 -17 q 42 -10 92 -17 q -37 4 -7 -4 l -3 193 q 103 179 64 179 q 260 319 236 179 l 376 986 l 610 986 l 482 268 z "},"K":{"ha":992,"x_min":42,"x_max":1067,"o":"m 653 589 l 913 0 l 650 0 l 474 432 l 328 290 l 276 0 l 42 0 l 215 986 l 450 986 l 378 572 l 799 986 l 1067 986 l 653 589 z "},"L":{"ha":761,"x_min":42,"x_max":711,"o":"m 215 986 l 450 986 l 310 190 l 711 190 l 676 0 l 42 0 l 215 986 z "},"M":{"ha":1261,"x_min":42,"x_max":1271,"o":"m 215 986 l 528 986 l 599 371 q 604 288 604 328 q 603 251 604 263 l 606 251 q 651 374 621 308 l 936 986 l 1271 986 l 1097 0 l 883 0 l 1003 672 q 1026 783 1015 742 l 1024 783 q 985 688 1013 746 l 665 0 l 468 0 l 381 688 q 378 782 375 736 l 374 782 q 360 672 368 722 l 242 0 l 42 0 l 215 986 z "},"N":{"ha":1058,"x_min":42,"x_max":1068,"o":"m 215 986 l 472 986 l 686 422 q 728 296 715 349 l 732 296 q 739 340 738 322 l 754 421 l 854 986 l 1068 986 l 894 0 l 649 0 l 424 569 q 382 690 392 649 l 378 690 l 356 560 l 257 0 l 42 0 l 215 986 z "},"O":{"ha":1074,"x_min":65,"x_max":1061,"o":"m 524 -24 q 190 90 314 -24 q 65 422 65 203 q 122 707 65 574 q 300 925 179 840 q 601 1010 421 1010 q 936 897 811 1010 q 1061 564 1061 783 q 1004 279 1061 413 q 826 61 947 146 q 524 -24 704 -24 m 526 160 q 696 217 631 160 q 790 364 761 275 q 818 553 818 453 q 756 763 818 700 q 599 826 694 826 q 431 769 496 826 q 336 622 365 711 q 307 433 307 532 q 369 223 307 286 q 526 160 431 160 z "},"P":{"ha":922,"x_min":42,"x_max":960,"o":"m 592 986 q 856 920 751 986 q 960 701 960 854 q 918 535 960 613 q 778 408 876 457 q 521 358 679 358 l 340 358 l 276 0 l 42 0 l 217 986 l 592 986 m 499 522 q 660 572 611 522 q 710 690 710 621 q 667 790 710 763 q 554 817 624 817 l 421 817 l 369 522 l 499 522 z "},"Q":{"ha":1074,"x_min":65,"x_max":1061,"o":"m 740 17 q 869 -35 786 -35 q 969 -24 907 -35 l 938 -206 q 844 -214 893 -214 q 546 -24 604 -214 l 524 -24 q 190 90 314 -24 q 65 422 65 203 q 122 707 65 574 q 300 925 179 840 q 601 1010 421 1010 q 936 897 811 1010 q 1061 564 1061 783 q 981 232 1061 383 q 740 17 900 81 m 307 433 q 369 223 307 286 q 526 160 431 160 q 696 217 631 160 q 790 364 761 275 q 818 553 818 453 q 756 763 818 700 q 599 826 694 826 q 431 769 496 826 q 336 622 365 711 q 307 433 307 532 z "},"R":{"ha":963,"x_min":42,"x_max":963,"o":"m 963 713 q 903 519 963 600 q 717 407 844 439 l 861 0 l 607 0 l 486 378 l 343 378 l 276 0 l 42 0 l 217 986 l 608 986 q 863 922 763 986 q 963 713 963 858 m 372 539 l 518 539 q 669 586 624 539 q 715 699 715 633 q 674 793 715 765 q 571 821 633 821 l 422 821 l 372 539 z "},"S":{"ha":868,"x_min":-25,"x_max":907,"o":"m 415 -24 q 134 37 251 -24 q -25 214 17 97 l 163 332 q 259 201 193 244 q 419 158 325 158 q 590 279 590 158 q 562 351 590 329 q 471 386 533 372 l 368 411 q 183 506 253 438 q 114 693 114 574 q 153 849 114 778 q 280 965 192 921 q 507 1010 368 1010 q 749 960 643 1010 q 907 806 854 910 l 736 682 q 647 798 704 760 q 501 836 589 836 q 377 803 417 836 q 338 721 338 771 q 368 652 338 678 q 464 610 399 626 l 582 582 q 763 485 701 553 q 824 299 824 417 q 727 67 824 157 q 415 -24 631 -24 z "},"T":{"ha":825,"x_min":89,"x_max":929,"o":"m 896 800 l 610 800 l 468 0 l 235 0 l 376 800 l 89 800 l 122 986 l 929 986 l 896 800 z "},"U":{"ha":1010,"x_min":89,"x_max":1035,"o":"m 433 986 l 328 385 q 322 324 322 356 q 367 205 322 243 q 489 167 413 167 q 690 357 658 167 l 801 986 l 1035 986 l 915 307 q 788 72 890 167 q 475 -24 685 -24 q 194 56 300 -24 q 89 303 89 135 q 99 408 89 356 l 200 986 l 433 986 z "},"V":{"ha":940,"x_min":115,"x_max":1050,"o":"m 115 986 l 357 986 l 428 350 q 436 244 436 286 q 435 214 436 224 l 440 214 q 496 350 460 274 l 790 986 l 1050 986 l 544 0 l 274 0 l 115 986 z "},"W":{"ha":1338,"x_min":139,"x_max":1425,"o":"m 139 986 l 371 986 l 383 346 q 382 297 385 321 q 378 264 379 272 l 382 264 q 407 346 392 307 l 660 986 l 896 986 l 922 346 q 918 264 924 317 l 922 264 q 946 346 931 304 l 1185 986 l 1425 986 l 1017 0 l 757 0 l 739 669 q 744 742 739 689 l 739 742 q 718 669 729 694 l 464 0 l 200 0 l 139 986 z "},"X":{"ha":971,"x_min":-49,"x_max":1049,"o":"m 368 513 l 144 986 l 399 986 l 511 710 q 531 647 524 682 l 533 647 q 572 710 544 676 l 789 986 l 1049 986 l 658 499 l 899 0 l 642 0 l 513 292 q 501 319 510 297 q 488 364 492 340 l 485 364 q 436 293 469 333 l 213 0 l -49 0 l 368 513 z "},"Y":{"ha":883,"x_min":108,"x_max":1000,"o":"m 325 357 l 108 986 l 347 986 l 456 622 q 467 550 467 582 l 469 550 q 507 622 483 586 l 743 986 l 1000 986 l 560 357 l 499 0 l 263 0 l 325 357 z "},"Z":{"ha":844,"x_min":-12,"x_max":904,"o":"m 601 804 l 149 804 l 181 986 l 904 986 l 874 817 l 292 181 l 783 181 l 751 0 l -12 0 l 18 169 l 601 804 z "},"Á":{"ha":1022,"x_min":-42,"x_max":943,"o":"m 719 1046 l 550 1046 l 717 1210 l 910 1210 l 719 1046 m 682 231 l 319 231 l 204 0 l -42 0 l 490 986 l 758 986 l 943 0 l 718 0 l 682 231 m 657 396 l 615 668 q 601 811 604 754 l 599 811 q 540 671 567 722 l 403 396 l 657 396 z "},"Ă":{"ha":1022,"x_min":-42,"x_max":943,"o":"m 654 1039 q 479 1085 538 1039 q 422 1210 421 1132 l 563 1210 q 653 1144 569 1144 q 724 1161 696 1144 q 764 1210 753 1178 l 904 1210 q 819 1083 883 1128 q 654 1039 754 1039 m 682 231 l 319 231 l 204 0 l -42 0 l 490 986 l 758 986 l 943 0 l 718 0 l 682 231 m 657 396 l 615 668 q 601 811 604 754 l 599 811 q 540 671 567 722 l 403 396 l 657 396 z "},"Â":{"ha":1022,"x_min":-42,"x_max":943,"o":"m 547 1046 l 369 1046 l 546 1210 l 781 1210 l 899 1046 l 733 1046 l 658 1149 l 547 1046 m 682 231 l 319 231 l 204 0 l -42 0 l 490 986 l 758 986 l 943 0 l 718 0 l 682 231 m 657 396 l 615 668 q 601 811 604 754 l 599 811 q 540 671 567 722 l 403 396 l 657 396 z "},"Ä":{"ha":1022,"x_min":-42,"x_max":943,"o":"m 569 1046 l 385 1046 l 413 1206 l 597 1206 l 569 1046 m 885 1046 l 700 1046 l 728 1206 l 913 1206 l 885 1046 m 682 231 l 319 231 l 204 0 l -42 0 l 490 986 l 758 986 l 943 0 l 718 0 l 682 231 m 657 396 l 615 668 q 601 811 604 754 l 599 811 q 540 671 567 722 l 403 396 l 657 396 z "},"Æ":{"ha":1446,"x_min":-18,"x_max":1481,"o":"m 1035 813 l 996 590 l 1388 590 l 1357 418 l 965 418 l 921 174 l 1347 174 l 1317 0 l 658 0 l 696 217 l 368 217 l 215 0 l -18 0 l 722 986 l 1481 986 l 1450 813 l 1035 813 m 726 383 l 806 835 l 486 383 l 726 383 z "},"Ǽ":{"ha":1446,"x_min":-18,"x_max":1481,"o":"m 1221 1046 l 1051 1046 l 1218 1210 l 1411 1210 l 1221 1046 m 1035 813 l 996 590 l 1388 590 l 1357 418 l 965 418 l 921 174 l 1347 174 l 1317 0 l 658 0 l 696 217 l 368 217 l 215 0 l -18 0 l 722 986 l 1481 986 l 1450 813 l 1035 813 m 726 383 l 806 835 l 486 383 l 726 383 z "},"À":{"ha":1022,"x_min":-42,"x_max":943,"o":"m 568 1046 l 378 1210 l 571 1210 l 738 1046 l 568 1046 m 682 231 l 319 231 l 204 0 l -42 0 l 490 986 l 758 986 l 943 0 l 718 0 l 682 231 m 657 396 l 615 668 q 601 811 604 754 l 599 811 q 540 671 567 722 l 403 396 l 657 396 z "},"Ā":{"ha":1022,"x_min":-42,"x_max":943,"o":"m 886 1053 l 386 1053 l 410 1188 l 911 1188 l 886 1053 m 682 231 l 319 231 l 204 0 l -42 0 l 490 986 l 758 986 l 943 0 l 718 0 l 682 231 m 657 396 l 615 668 q 601 811 604 754 l 599 811 q 540 671 567 722 l 403 396 l 657 396 z "},"Ą":{"ha":1022,"x_min":-42,"x_max":943,"o":"m 682 231 l 319 231 l 204 0 l -42 0 l 490 986 l 758 986 l 943 0 l 718 0 l 682 231 m 657 396 l 615 668 q 601 811 604 754 l 599 811 q 540 671 567 722 l 403 396 l 657 396 m 911 -174 q 834 -256 878 -229 q 731 -282 790 -282 q 603 -251 647 -282 q 560 -161 560 -221 q 598 -68 560 -107 q 717 0 636 -29 l 874 0 q 733 -69 772 -36 q 694 -135 694 -101 q 743 -182 694 -182 q 826 -125 794 -182 l 911 -174 z "},"Å":{"ha":1022,"x_min":-42,"x_max":943,"o":"m 654 1033 q 528 1075 574 1033 q 482 1185 482 1117 q 536 1310 482 1261 q 671 1360 590 1360 q 796 1319 750 1360 q 842 1210 842 1278 q 788 1083 842 1133 q 654 1033 733 1033 m 671 1271 q 609 1247 629 1271 q 589 1185 589 1224 q 606 1140 589 1157 q 654 1124 622 1124 q 716 1147 696 1124 q 736 1210 736 1171 q 719 1254 736 1238 q 671 1271 703 1271 m 682 231 l 319 231 l 204 0 l -42 0 l 490 986 l 758 986 l 943 0 l 718 0 l 682 231 m 657 396 l 615 668 q 601 811 604 754 l 599 811 q 540 671 567 722 l 403 396 l 657 396 z "},"Ã":{"ha":1022,"x_min":-42,"x_max":943,"o":"m 549 1115 q 500 1101 518 1115 q 465 1040 482 1086 l 364 1078 q 437 1197 389 1154 q 546 1239 485 1239 q 615 1226 588 1239 q 674 1189 642 1214 q 716 1161 700 1169 q 756 1153 732 1153 q 835 1228 813 1153 l 936 1190 q 863 1072 911 1114 q 756 1031 815 1031 q 684 1044 713 1031 q 626 1081 656 1057 q 586 1107 603 1099 q 549 1115 569 1115 m 682 231 l 319 231 l 204 0 l -42 0 l 490 986 l 758 986 l 943 0 l 718 0 l 682 231 m 657 396 l 615 668 q 601 811 604 754 l 599 811 q 540 671 567 722 l 403 396 l 657 396 z "},"Ć":{"ha":1010,"x_min":65,"x_max":1028,"o":"m 708 1210 l 901 1210 l 711 1046 l 542 1046 l 708 1210 m 514 -24 q 188 84 311 -24 q 65 424 65 192 q 119 699 65 565 q 292 921 172 832 q 599 1010 413 1010 q 901 924 782 1010 q 1028 656 1019 839 l 788 614 q 731 772 785 722 q 590 821 676 821 q 426 760 489 821 q 335 609 363 699 q 308 429 308 519 q 367 224 308 282 q 517 167 426 167 q 742 369 694 167 l 972 318 q 514 -24 868 -24 z "},"Č":{"ha":1010,"x_min":65,"x_max":1028,"o":"m 542 1203 l 617 1100 l 728 1203 l 904 1203 l 728 1039 l 493 1039 l 375 1203 l 542 1203 m 514 -24 q 188 84 311 -24 q 65 424 65 192 q 119 699 65 565 q 292 921 172 832 q 599 1010 413 1010 q 901 924 782 1010 q 1028 656 1019 839 l 788 614 q 731 772 785 722 q 590 821 676 821 q 426 760 489 821 q 335 609 363 699 q 308 429 308 519 q 367 224 308 282 q 517 167 426 167 q 742 369 694 167 l 972 318 q 514 -24 868 -24 z "},"Ç":{"ha":1010,"x_min":65,"x_max":1028,"o":"m 517 167 q 742 369 694 167 l 972 318 q 514 -24 868 -24 l 497 -24 l 465 -64 q 531 -43 490 -43 q 620 -67 589 -43 q 651 -139 651 -92 q 599 -258 651 -219 q 460 -296 547 -296 q 341 -272 386 -296 q 283 -206 296 -249 l 406 -176 q 460 -210 414 -210 q 501 -194 485 -210 q 518 -150 518 -179 q 506 -119 518 -131 q 472 -108 494 -108 q 424 -129 440 -108 l 343 -110 l 403 -15 q 156 118 246 11 q 65 424 65 225 q 119 699 65 565 q 292 921 172 832 q 599 1010 413 1010 q 901 924 782 1010 q 1028 656 1019 839 l 788 614 q 731 772 785 722 q 590 821 676 821 q 426 760 489 821 q 335 609 363 699 q 308 429 308 519 q 367 224 308 282 q 517 167 426 167 z "},"Ĉ":{"ha":1010,"x_min":65,"x_max":1028,"o":"m 725 1046 l 650 1149 l 539 1046 l 361 1046 l 538 1210 l 772 1210 l 890 1046 l 725 1046 m 514 -24 q 188 84 311 -24 q 65 424 65 192 q 119 699 65 565 q 292 921 172 832 q 599 1010 413 1010 q 901 924 782 1010 q 1028 656 1019 839 l 788 614 q 731 772 785 722 q 590 821 676 821 q 426 760 489 821 q 335 609 363 699 q 308 429 308 519 q 367 224 308 282 q 517 167 426 167 q 742 369 694 167 l 972 318 q 514 -24 868 -24 z "},"Ċ":{"ha":1010,"x_min":65,"x_max":1028,"o":"m 542 1210 l 769 1210 l 740 1046 l 513 1046 l 542 1210 m 514 -24 q 188 84 311 -24 q 65 424 65 192 q 119 699 65 565 q 292 921 172 832 q 599 1010 413 1010 q 901 924 782 1010 q 1028 656 1019 839 l 788 614 q 731 772 785 722 q 590 821 676 821 q 426 760 489 821 q 335 609 363 699 q 308 429 308 519 q 367 224 308 282 q 517 167 426 167 q 742 369 694 167 l 972 318 q 514 -24 868 -24 z "},"Ď":{"ha":1033,"x_min":42,"x_max":1019,"o":"m 522 1203 l 597 1100 l 708 1203 l 885 1203 l 708 1039 l 474 1039 l 356 1203 l 522 1203 m 215 986 l 569 986 q 801 938 699 986 q 961 791 903 889 q 1019 550 1019 693 q 956 277 1019 403 q 760 76 892 151 q 436 0 629 0 l 42 0 l 215 986 m 439 172 q 638 228 563 172 q 744 367 713 283 q 776 543 776 450 q 714 748 776 682 q 563 814 651 814 l 419 814 l 306 172 l 439 172 z "},"Đ":{"ha":1033,"x_min":18,"x_max":1019,"o":"m 569 986 q 801 938 699 986 q 961 791 903 889 q 1019 550 1019 693 q 956 277 1019 403 q 760 76 892 151 q 436 0 629 0 l 42 0 l 121 447 l 18 447 l 40 578 l 143 578 l 215 986 l 569 986 m 439 172 q 638 228 563 172 q 744 367 713 283 q 776 543 776 450 q 714 748 776 682 q 563 814 651 814 l 419 814 l 378 578 l 576 578 l 554 447 l 354 447 l 306 172 l 439 172 z "},"É":{"ha":856,"x_min":42,"x_max":890,"o":"m 667 1046 l 497 1046 l 664 1210 l 857 1210 l 667 1046 m 419 813 l 379 590 l 797 590 l 767 418 l 349 418 l 306 174 l 757 174 l 726 0 l 42 0 l 215 986 l 890 986 l 860 813 l 419 813 z "},"Ĕ":{"ha":856,"x_min":42,"x_max":890,"o":"m 603 1039 q 428 1085 486 1039 q 371 1210 369 1132 l 511 1210 q 601 1144 518 1144 q 673 1161 644 1144 q 713 1210 701 1178 l 853 1210 q 767 1083 832 1128 q 603 1039 703 1039 m 419 813 l 379 590 l 797 590 l 767 418 l 349 418 l 306 174 l 757 174 l 726 0 l 42 0 l 215 986 l 890 986 l 860 813 l 419 813 z "},"Ě":{"ha":856,"x_min":42,"x_max":890,"o":"m 449 1039 l 331 1203 l 497 1203 l 572 1100 l 683 1203 l 860 1203 l 683 1039 l 449 1039 m 419 813 l 379 590 l 797 590 l 767 418 l 349 418 l 306 174 l 757 174 l 726 0 l 42 0 l 215 986 l 890 986 l 860 813 l 419 813 z "},"Ê":{"ha":856,"x_min":42,"x_max":890,"o":"m 496 1046 l 318 1046 l 494 1210 l 729 1210 l 847 1046 l 682 1046 l 607 1149 l 496 1046 m 419 813 l 379 590 l 797 590 l 767 418 l 349 418 l 306 174 l 757 174 l 726 0 l 42 0 l 215 986 l 890 986 l 860 813 l 419 813 z "},"Ë":{"ha":856,"x_min":42,"x_max":890,"o":"m 518 1046 l 333 1046 l 361 1206 l 546 1206 l 518 1046 m 833 1046 l 649 1046 l 676 1206 l 861 1206 l 833 1046 m 419 813 l 379 590 l 797 590 l 767 418 l 349 418 l 306 174 l 757 174 l 726 0 l 42 0 l 215 986 l 890 986 l 860 813 l 419 813 z "},"Ė":{"ha":856,"x_min":42,"x_max":890,"o":"m 697 1046 l 469 1046 l 499 1210 l 726 1210 l 697 1046 m 419 813 l 379 590 l 797 590 l 767 418 l 349 418 l 306 174 l 757 174 l 726 0 l 42 0 l 215 986 l 890 986 l 860 813 l 419 813 z "},"È":{"ha":856,"x_min":42,"x_max":890,"o":"m 517 1046 l 326 1210 l 519 1210 l 686 1046 l 517 1046 m 419 813 l 379 590 l 797 590 l 767 418 l 349 418 l 306 174 l 757 174 l 726 0 l 42 0 l 215 986 l 890 986 l 860 813 l 419 813 z "},"Ē":{"ha":856,"x_min":42,"x_max":890,"o":"m 835 1053 l 335 1053 l 358 1188 l 860 1188 l 835 1053 m 419 813 l 379 590 l 797 590 l 767 418 l 349 418 l 306 174 l 757 174 l 726 0 l 42 0 l 215 986 l 890 986 l 860 813 l 419 813 z "},"Ę":{"ha":856,"x_min":42,"x_max":890,"o":"m 419 813 l 379 590 l 797 590 l 767 418 l 349 418 l 306 174 l 757 174 l 726 0 l 42 0 l 215 986 l 890 986 l 860 813 l 419 813 m 763 -174 q 685 -256 729 -229 q 582 -282 642 -282 q 455 -251 499 -282 q 411 -161 411 -221 q 449 -68 411 -107 q 568 0 488 -29 l 725 0 q 585 -69 624 -36 q 546 -135 546 -101 q 594 -182 546 -182 q 678 -125 646 -182 l 763 -174 z "},"Ð":{"ha":1033,"x_min":18,"x_max":1019,"o":"m 569 986 q 801 938 699 986 q 961 791 903 889 q 1019 550 1019 693 q 956 277 1019 403 q 760 76 892 151 q 436 0 629 0 l 42 0 l 121 447 l 18 447 l 40 578 l 143 578 l 215 986 l 569 986 m 439 172 q 638 228 563 172 q 744 367 713 283 q 776 543 776 450 q 714 748 776 682 q 563 814 651 814 l 419 814 l 378 578 l 576 578 l 554 447 l 354 447 l 306 172 l 439 172 z "},"Ğ":{"ha":1042,"x_min":64,"x_max":1029,"o":"m 574 1210 q 664 1144 581 1144 q 735 1161 707 1144 q 775 1210 764 1178 l 915 1210 q 830 1083 894 1128 q 665 1039 765 1039 q 490 1085 549 1039 q 433 1210 432 1132 l 574 1210 m 454 -24 q 252 24 340 -24 q 114 168 164 71 q 64 408 64 265 q 120 695 64 558 q 299 921 176 832 q 611 1010 422 1010 q 896 931 786 1010 q 1029 707 1006 853 l 793 664 q 600 833 771 833 q 432 769 497 833 q 338 609 367 706 q 308 411 308 513 q 360 216 308 275 q 514 157 413 157 q 685 216 626 157 q 760 353 744 275 l 765 381 l 524 381 l 553 549 l 1008 549 l 911 0 l 746 0 l 760 143 q 640 19 717 61 q 454 -24 563 -24 z "},"Ĝ":{"ha":1042,"x_min":64,"x_max":1029,"o":"m 744 1046 l 669 1149 l 558 1046 l 381 1046 l 557 1210 l 792 1210 l 910 1046 l 744 1046 m 454 -24 q 252 24 340 -24 q 114 168 164 71 q 64 408 64 265 q 120 695 64 558 q 299 921 176 832 q 611 1010 422 1010 q 896 931 786 1010 q 1029 707 1006 853 l 793 664 q 600 833 771 833 q 432 769 497 833 q 338 609 367 706 q 308 411 308 513 q 360 216 308 275 q 514 157 413 157 q 685 216 626 157 q 760 353 744 275 l 765 381 l 524 381 l 553 549 l 1008 549 l 911 0 l 746 0 l 760 143 q 640 19 717 61 q 454 -24 563 -24 z "},"Ģ":{"ha":1042,"x_min":64,"x_max":1029,"o":"m 454 -24 q 252 24 340 -24 q 114 168 164 71 q 64 408 64 265 q 120 695 64 558 q 299 921 176 832 q 611 1010 422 1010 q 896 931 786 1010 q 1029 707 1006 853 l 793 664 q 600 833 771 833 q 432 769 497 833 q 338 609 367 706 q 308 411 308 513 q 360 216 308 275 q 514 157 413 157 q 685 216 626 157 q 760 353 744 275 l 765 381 l 524 381 l 553 549 l 1008 549 l 911 0 l 746 0 l 760 143 q 640 19 717 61 q 454 -24 563 -24 m 350 -262 q 408 -239 390 -253 q 431 -197 426 -225 l 340 -197 l 365 -56 l 550 -56 l 528 -179 q 375 -333 504 -308 l 350 -262 z "},"Ġ":{"ha":1042,"x_min":64,"x_max":1029,"o":"m 561 1210 l 789 1210 l 760 1046 l 532 1046 l 561 1210 m 454 -24 q 252 24 340 -24 q 114 168 164 71 q 64 408 64 265 q 120 695 64 558 q 299 921 176 832 q 611 1010 422 1010 q 896 931 786 1010 q 1029 707 1006 853 l 793 664 q 600 833 771 833 q 432 769 497 833 q 338 609 367 706 q 308 411 308 513 q 360 216 308 275 q 514 157 413 157 q 685 216 626 157 q 760 353 744 275 l 765 381 l 524 381 l 553 549 l 1008 549 l 911 0 l 746 0 l 760 143 q 640 19 717 61 q 454 -24 563 -24 z "},"Ħ":{"ha":1054,"x_min":42,"x_max":1132,"o":"m 1115 733 l 1019 733 l 890 0 l 656 0 l 728 410 l 347 410 l 276 0 l 42 0 l 171 733 l 76 733 l 93 829 l 188 829 l 215 986 l 450 986 l 422 829 l 801 829 l 829 986 l 1064 986 l 1036 829 l 1132 829 l 1115 733 m 785 733 l 404 733 l 379 590 l 760 590 l 785 733 z "},"Ĥ":{"ha":1054,"x_min":42,"x_max":1064,"o":"m 750 1046 l 675 1149 l 564 1046 l 386 1046 l 563 1210 l 797 1210 l 915 1046 l 750 1046 m 890 0 l 656 0 l 728 410 l 347 410 l 276 0 l 42 0 l 215 986 l 450 986 l 379 590 l 760 590 l 829 986 l 1064 986 l 890 0 z "},"Í":{"ha":440,"x_min":42,"x_max":583,"o":"m 393 1210 l 583 1210 l 426 1046 l 260 1046 l 393 1210 m 42 0 l 215 986 l 450 986 l 276 0 l 42 0 z "},"Ĭ":{"ha":440,"x_min":42,"x_max":583,"o":"m 303 1210 q 318 1163 303 1181 q 367 1144 333 1144 q 443 1210 433 1144 l 583 1210 q 367 1039 550 1039 q 210 1086 260 1039 q 163 1210 160 1133 l 303 1210 m 42 0 l 215 986 l 450 986 l 276 0 l 42 0 z "},"Î":{"ha":440,"x_min":42,"x_max":561,"o":"m 407 1046 l 368 1149 l 293 1046 l 128 1046 l 256 1210 l 490 1210 l 561 1046 l 407 1046 m 42 0 l 215 986 l 450 986 l 276 0 l 42 0 z "},"Ï":{"ha":440,"x_min":42,"x_max":579,"o":"m 167 1206 l 343 1206 l 315 1046 l 139 1046 l 167 1206 m 403 1206 l 579 1206 l 551 1046 l 375 1046 l 403 1206 m 42 0 l 215 986 l 450 986 l 276 0 l 42 0 z "},"İ":{"ha":440,"x_min":42,"x_max":488,"o":"m 260 1210 l 488 1210 l 458 1046 l 231 1046 l 260 1210 m 42 0 l 215 986 l 450 986 l 276 0 l 42 0 z "},"Ì":{"ha":440,"x_min":42,"x_max":450,"o":"m 257 1046 l 100 1210 l 290 1210 l 422 1046 l 257 1046 m 42 0 l 215 986 l 450 986 l 276 0 l 42 0 z "},"Ĳ":{"ha":1024,"x_min":42,"x_max":1050,"o":"m 42 0 l 215 986 l 450 986 l 276 0 l 42 0 m 922 268 q 811 53 896 124 q 581 -17 726 -17 q 483 -10 532 -17 q 403 4 433 -4 l 438 193 q 543 179 504 179 q 700 319 676 179 l 817 986 l 1050 986 l 922 268 z "},"Ī":{"ha":440,"x_min":42,"x_max":557,"o":"m 181 1188 l 557 1188 l 533 1053 l 157 1053 l 181 1188 m 42 0 l 215 986 l 450 986 l 276 0 l 42 0 z "},"Į":{"ha":440,"x_min":-115,"x_max":450,"o":"m 42 0 l 215 986 l 450 986 l 276 0 l 42 0 m 236 -174 q 159 -256 203 -229 q 56 -282 115 -282 q -72 -251 -28 -282 q -115 -161 -115 -221 q -77 -68 -115 -107 q 42 0 -39 -29 l 199 0 q 58 -69 97 -36 q 19 -135 19 -101 q 68 -182 19 -182 q 151 -125 119 -182 l 236 -174 z "},"Ĩ":{"ha":440,"x_min":42,"x_max":604,"o":"m 451 1039 q 389 1052 413 1039 q 339 1090 365 1065 q 308 1117 321 1108 q 276 1125 294 1125 q 236 1110 251 1125 q 217 1057 221 1096 l 118 1094 q 173 1207 132 1167 q 272 1247 214 1247 q 338 1234 314 1247 q 389 1196 363 1221 q 420 1169 407 1178 q 451 1161 433 1161 q 487 1175 472 1161 q 508 1229 501 1189 l 604 1192 q 549 1078 590 1118 q 451 1039 508 1039 m 42 0 l 215 986 l 450 986 l 276 0 l 42 0 z "},"Ĵ":{"ha":583,"x_min":-37,"x_max":722,"o":"m 568 1046 l 529 1149 l 454 1046 l 289 1046 l 417 1210 l 651 1210 l 722 1046 l 568 1046 m 482 268 q 371 53 456 124 q 140 -17 286 -17 q 42 -10 92 -17 q -37 4 -7 -4 l -3 193 q 103 179 64 179 q 260 319 236 179 l 376 986 l 610 986 l 482 268 z "},"Ķ":{"ha":992,"x_min":42,"x_max":1067,"o":"m 653 589 l 913 0 l 650 0 l 474 432 l 328 290 l 276 0 l 42 0 l 215 986 l 450 986 l 378 572 l 799 986 l 1067 986 l 653 589 m 321 -262 q 379 -239 361 -253 q 401 -197 397 -225 l 311 -197 l 336 -56 l 521 -56 l 499 -179 q 346 -333 475 -308 l 321 -262 z "},"Ĺ":{"ha":761,"x_min":42,"x_max":711,"o":"m 425 1210 l 618 1210 l 428 1046 l 258 1046 l 425 1210 m 215 986 l 450 986 l 310 190 l 711 190 l 676 0 l 42 0 l 215 986 z "},"Ľ":{"ha":761,"x_min":42,"x_max":714,"o":"m 215 986 l 450 986 l 310 190 l 711 190 l 676 0 l 42 0 l 215 986 m 518 790 q 574 810 556 797 q 596 844 592 822 l 506 844 l 529 986 l 714 986 l 692 863 q 644 771 682 807 q 540 724 607 735 l 518 790 z "},"Ļ":{"ha":761,"x_min":42,"x_max":711,"o":"m 215 986 l 450 986 l 310 190 l 711 190 l 676 0 l 42 0 l 215 986 m 256 -262 q 314 -239 296 -253 q 336 -197 332 -225 l 246 -197 l 271 -56 l 456 -56 l 433 -179 q 281 -333 410 -308 l 256 -262 z "},"Ŀ":{"ha":761,"x_min":42,"x_max":747,"o":"m 215 986 l 450 986 l 310 190 l 711 190 l 676 0 l 42 0 l 215 986 z "},"Ł":{"ha":761,"x_min":-17,"x_max":711,"o":"m 711 190 l 676 0 l 42 0 l 101 338 l -17 281 l 7 414 l 125 471 l 215 986 l 450 986 l 382 596 l 651 728 l 628 594 l 358 463 l 310 190 l 711 190 z "},"Ń":{"ha":1058,"x_min":42,"x_max":1068,"o":"m 733 1210 l 926 1210 l 736 1046 l 567 1046 l 733 1210 m 215 986 l 472 986 l 686 422 q 728 296 715 349 l 732 296 q 739 340 738 322 l 754 421 l 854 986 l 1068 986 l 894 0 l 649 0 l 424 569 q 382 690 392 649 l 378 690 l 356 560 l 257 0 l 42 0 l 215 986 z "},"Ň":{"ha":1058,"x_min":42,"x_max":1068,"o":"m 567 1203 l 642 1100 l 753 1203 l 929 1203 l 753 1039 l 518 1039 l 400 1203 l 567 1203 m 215 986 l 472 986 l 686 422 q 728 296 715 349 l 732 296 q 739 340 738 322 l 754 421 l 854 986 l 1068 986 l 894 0 l 649 0 l 424 569 q 382 690 392 649 l 378 690 l 356 560 l 257 0 l 42 0 l 215 986 z "},"Ņ":{"ha":1058,"x_min":42,"x_max":1068,"o":"m 215 986 l 472 986 l 686 422 q 728 296 715 349 l 732 296 q 739 340 738 322 l 754 421 l 854 986 l 1068 986 l 894 0 l 649 0 l 424 569 q 382 690 392 649 l 378 690 l 356 560 l 257 0 l 42 0 l 215 986 m 351 -262 q 410 -239 392 -253 q 432 -197 428 -225 l 342 -197 l 367 -56 l 551 -56 l 529 -179 q 376 -333 506 -308 l 351 -262 z "},"Ñ":{"ha":1058,"x_min":42,"x_max":1068,"o":"m 774 1031 q 702 1044 731 1031 q 644 1081 674 1057 q 604 1107 621 1099 q 567 1115 588 1115 q 518 1101 536 1115 q 483 1040 500 1086 l 382 1078 q 455 1197 407 1154 q 564 1239 503 1239 q 633 1226 606 1239 q 692 1189 660 1214 q 734 1161 718 1169 q 774 1153 750 1153 q 853 1228 831 1153 l 954 1190 q 881 1072 929 1114 q 774 1031 833 1031 m 215 986 l 472 986 l 686 422 q 728 296 715 349 l 732 296 q 739 340 738 322 l 754 421 l 854 986 l 1068 986 l 894 0 l 649 0 l 424 569 q 382 690 392 649 l 378 690 l 356 560 l 257 0 l 42 0 l 215 986 z "},"Ŋ":{"ha":1058,"x_min":42,"x_max":1068,"o":"m 1068 986 l 894 0 l 893 -8 q 551 -289 842 -289 q 408 -276 476 -289 l 440 -97 q 560 -106 488 -106 q 634 -84 601 -106 q 675 -12 667 -62 l 678 0 l 649 0 l 424 569 q 382 690 392 649 l 378 690 l 356 560 l 257 0 l 42 0 l 215 986 l 472 986 l 686 422 q 728 296 715 349 l 732 296 q 739 340 738 322 l 754 421 l 854 986 l 1068 986 z "},"Ó":{"ha":1074,"x_min":65,"x_max":1061,"o":"m 713 1210 l 906 1210 l 715 1046 l 546 1046 l 713 1210 m 524 -24 q 190 90 314 -24 q 65 422 65 203 q 122 707 65 574 q 300 925 179 840 q 601 1010 421 1010 q 936 897 811 1010 q 1061 564 1061 783 q 1004 279 1061 413 q 826 61 947 146 q 524 -24 704 -24 m 526 160 q 696 217 631 160 q 790 364 761 275 q 818 553 818 453 q 756 763 818 700 q 599 826 694 826 q 431 769 496 826 q 336 622 365 711 q 307 433 307 532 q 369 223 307 286 q 526 160 431 160 z "},"Ŏ":{"ha":1074,"x_min":65,"x_max":1061,"o":"m 558 1210 q 649 1144 565 1144 q 720 1161 692 1144 q 760 1210 749 1178 l 900 1210 q 815 1083 879 1128 q 650 1039 750 1039 q 475 1085 533 1039 q 418 1210 417 1132 l 558 1210 m 524 -24 q 190 90 314 -24 q 65 422 65 203 q 122 707 65 574 q 300 925 179 840 q 601 1010 421 1010 q 936 897 811 1010 q 1061 564 1061 783 q 1004 279 1061 413 q 826 61 947 146 q 524 -24 704 -24 m 526 160 q 696 217 631 160 q 790 364 761 275 q 818 553 818 453 q 756 763 818 700 q 599 826 694 826 q 431 769 496 826 q 336 622 365 711 q 307 433 307 532 q 369 223 307 286 q 526 160 431 160 z "},"Ô":{"ha":1074,"x_min":65,"x_max":1061,"o":"m 729 1046 l 654 1149 l 543 1046 l 365 1046 l 542 1210 l 776 1210 l 894 1046 l 729 1046 m 524 -24 q 190 90 314 -24 q 65 422 65 203 q 122 707 65 574 q 300 925 179 840 q 601 1010 421 1010 q 936 897 811 1010 q 1061 564 1061 783 q 1004 279 1061 413 q 826 61 947 146 q 524 -24 704 -24 m 526 160 q 696 217 631 160 q 790 364 761 275 q 818 553 818 453 q 756 763 818 700 q 599 826 694 826 q 431 769 496 826 q 336 622 365 711 q 307 433 307 532 q 369 223 307 286 q 526 160 431 160 z "},"Ö":{"ha":1074,"x_min":65,"x_max":1061,"o":"m 408 1206 l 593 1206 l 565 1046 l 381 1046 l 408 1206 m 724 1206 l 908 1206 l 881 1046 l 696 1046 l 724 1206 m 524 -24 q 190 90 314 -24 q 65 422 65 203 q 122 707 65 574 q 300 925 179 840 q 601 1010 421 1010 q 936 897 811 1010 q 1061 564 1061 783 q 1004 279 1061 413 q 826 61 947 146 q 524 -24 704 -24 m 526 160 q 696 217 631 160 q 790 364 761 275 q 818 553 818 453 q 756 763 818 700 q 599 826 694 826 q 431 769 496 826 q 336 622 365 711 q 307 433 307 532 q 369 223 307 286 q 526 160 431 160 z "},"Œ":{"ha":1325,"x_min":63,"x_max":1360,"o":"m 889 813 l 850 590 l 1267 590 l 1238 418 l 819 418 l 776 174 l 1226 174 l 1196 0 l 513 0 q 190 101 318 4 q 63 421 63 199 q 119 679 63 550 q 309 897 175 808 q 660 986 443 986 l 1360 986 l 1331 813 l 889 813 m 304 421 q 543 172 304 183 l 656 814 q 445 748 524 811 q 335 597 367 685 q 304 421 304 508 z "},"Ò":{"ha":1074,"x_min":65,"x_max":1061,"o":"m 564 1046 l 374 1210 l 567 1210 l 733 1046 l 564 1046 m 524 -24 q 190 90 314 -24 q 65 422 65 203 q 122 707 65 574 q 300 925 179 840 q 601 1010 421 1010 q 936 897 811 1010 q 1061 564 1061 783 q 1004 279 1061 413 q 826 61 947 146 q 524 -24 704 -24 m 526 160 q 696 217 631 160 q 790 364 761 275 q 818 553 818 453 q 756 763 818 700 q 599 826 694 826 q 431 769 496 826 q 336 622 365 711 q 307 433 307 532 q 369 223 307 286 q 526 160 431 160 z "},"Ő":{"ha":1074,"x_min":65,"x_max":1061,"o":"m 578 1210 l 760 1210 l 590 1047 l 414 1047 l 578 1210 m 835 1210 l 1017 1210 l 846 1047 l 671 1047 l 835 1210 m 524 -24 q 190 90 314 -24 q 65 422 65 203 q 122 707 65 574 q 300 925 179 840 q 601 1010 421 1010 q 936 897 811 1010 q 1061 564 1061 783 q 1004 279 1061 413 q 826 61 947 146 q 524 -24 704 -24 m 526 160 q 696 217 631 160 q 790 364 761 275 q 818 553 818 453 q 756 763 818 700 q 599 826 694 826 q 431 769 496 826 q 336 622 365 711 q 307 433 307 532 q 369 223 307 286 q 526 160 431 160 z "},"Ō":{"ha":1074,"x_min":65,"x_max":1061,"o":"m 406 1188 l 907 1188 l 882 1053 l 382 1053 l 406 1188 m 524 -24 q 190 90 314 -24 q 65 422 65 203 q 122 707 65 574 q 300 925 179 840 q 601 1010 421 1010 q 936 897 811 1010 q 1061 564 1061 783 q 1004 279 1061 413 q 826 61 947 146 q 524 -24 704 -24 m 526 160 q 696 217 631 160 q 790 364 761 275 q 818 553 818 453 q 756 763 818 700 q 599 826 694 826 q 431 769 496 826 q 336 622 365 711 q 307 433 307 532 q 369 223 307 286 q 526 160 431 160 z "},"Ø":{"ha":1074,"x_min":54,"x_max":1071,"o":"m 972 858 q 1061 564 1061 746 q 1004 279 1061 413 q 826 61 947 146 q 524 -24 704 -24 q 214 69 332 -24 l 119 -29 l 54 25 l 154 129 q 65 422 65 240 q 122 707 65 574 q 300 925 179 840 q 601 1010 421 1010 q 911 917 793 1010 l 1006 1015 l 1071 961 l 972 858 m 307 433 q 324 306 307 358 l 760 760 q 599 826 703 826 q 431 769 496 826 q 336 622 365 711 q 307 433 307 532 m 818 553 q 801 681 818 629 l 365 226 q 526 160 422 160 q 696 217 631 160 q 790 364 761 275 q 818 553 818 453 z "},"Ǿ":{"ha":1074,"x_min":54,"x_max":1071,"o":"m 626 1046 l 457 1046 l 624 1210 l 817 1210 l 626 1046 m 972 858 q 1061 564 1061 746 q 1004 279 1061 413 q 826 61 947 146 q 524 -24 704 -24 q 214 69 332 -24 l 119 -29 l 54 25 l 154 129 q 65 422 65 240 q 122 707 65 574 q 300 925 179 840 q 601 1010 421 1010 q 911 917 793 1010 l 1006 1015 l 1071 961 l 972 858 m 307 433 q 324 306 307 358 l 760 760 q 599 826 703 826 q 431 769 496 826 q 336 622 365 711 q 307 433 307 532 m 818 553 q 801 681 818 629 l 365 226 q 526 160 422 160 q 696 217 631 160 q 790 364 761 275 q 818 553 818 453 z "},"Õ":{"ha":1074,"x_min":65,"x_max":1061,"o":"m 751 1031 q 680 1044 708 1031 q 622 1081 651 1057 q 582 1107 599 1099 q 544 1115 565 1115 q 496 1101 514 1115 q 461 1040 478 1086 l 360 1078 q 433 1197 385 1154 q 542 1239 481 1239 q 610 1226 583 1239 q 669 1189 638 1214 q 713 1161 696 1169 q 751 1153 729 1153 q 831 1228 808 1153 l 932 1190 q 859 1072 907 1114 q 751 1031 811 1031 m 524 -24 q 190 90 314 -24 q 65 422 65 203 q 122 707 65 574 q 300 925 179 840 q 601 1010 421 1010 q 936 897 811 1010 q 1061 564 1061 783 q 1004 279 1061 413 q 826 61 947 146 q 524 -24 704 -24 m 526 160 q 696 217 631 160 q 790 364 761 275 q 818 553 818 453 q 756 763 818 700 q 599 826 694 826 q 431 769 496 826 q 336 622 365 711 q 307 433 307 532 q 369 223 307 286 q 526 160 431 160 z "},"Ŕ":{"ha":963,"x_min":42,"x_max":963,"o":"m 663 1046 l 493 1046 l 660 1210 l 853 1210 l 663 1046 m 963 713 q 903 519 963 600 q 717 407 844 439 l 861 0 l 607 0 l 486 378 l 343 378 l 276 0 l 42 0 l 217 986 l 608 986 q 863 922 763 986 q 963 713 963 858 m 372 539 l 518 539 q 669 586 624 539 q 715 699 715 633 q 674 793 715 765 q 571 821 633 821 l 422 821 l 372 539 z "},"Ř":{"ha":963,"x_min":42,"x_max":963,"o":"m 444 1039 l 326 1203 l 493 1203 l 568 1100 l 679 1203 l 856 1203 l 679 1039 l 444 1039 m 963 713 q 903 519 963 600 q 717 407 844 439 l 861 0 l 607 0 l 486 378 l 343 378 l 276 0 l 42 0 l 217 986 l 608 986 q 863 922 763 986 q 963 713 963 858 m 372 539 l 518 539 q 669 586 624 539 q 715 699 715 633 q 674 793 715 765 q 571 821 633 821 l 422 821 l 372 539 z "},"Ŗ":{"ha":963,"x_min":42,"x_max":963,"o":"m 963 713 q 903 519 963 600 q 717 407 844 439 l 861 0 l 607 0 l 486 378 l 343 378 l 276 0 l 42 0 l 217 986 l 608 986 q 863 922 763 986 q 963 713 963 858 m 372 539 l 518 539 q 669 586 624 539 q 715 699 715 633 q 674 793 715 765 q 571 821 633 821 l 422 821 l 372 539 m 313 -262 q 371 -239 353 -253 q 393 -197 389 -225 l 303 -197 l 328 -56 l 513 -56 l 490 -179 q 338 -333 467 -308 l 313 -262 z "},"Ś":{"ha":868,"x_min":-25,"x_max":907,"o":"m 629 1210 l 822 1210 l 632 1046 l 463 1046 l 629 1210 m 415 -24 q 134 37 251 -24 q -25 214 17 97 l 163 332 q 259 201 193 244 q 419 158 325 158 q 590 279 590 158 q 562 351 590 329 q 471 386 533 372 l 368 411 q 183 506 253 438 q 114 693 114 574 q 153 849 114 778 q 280 965 192 921 q 507 1010 368 1010 q 749 960 643 1010 q 907 806 854 910 l 736 682 q 647 798 704 760 q 501 836 589 836 q 377 803 417 836 q 338 721 338 771 q 368 652 338 678 q 464 610 399 626 l 582 582 q 763 485 701 553 q 824 299 824 417 q 727 67 824 157 q 415 -24 631 -24 z "},"Š":{"ha":868,"x_min":-25,"x_max":907,"o":"m 463 1203 l 538 1100 l 649 1203 l 825 1203 l 649 1039 l 414 1039 l 296 1203 l 463 1203 m 415 -24 q 134 37 251 -24 q -25 214 17 97 l 163 332 q 259 201 193 244 q 419 158 325 158 q 590 279 590 158 q 562 351 590 329 q 471 386 533 372 l 368 411 q 183 506 253 438 q 114 693 114 574 q 153 849 114 778 q 280 965 192 921 q 507 1010 368 1010 q 749 960 643 1010 q 907 806 854 910 l 736 682 q 647 798 704 760 q 501 836 589 836 q 377 803 417 836 q 338 721 338 771 q 368 652 338 678 q 464 610 399 626 l 582 582 q 763 485 701 553 q 824 299 824 417 q 727 67 824 157 q 415 -24 631 -24 z "},"Ş":{"ha":868,"x_min":-25,"x_max":907,"o":"m 582 582 q 763 485 701 553 q 824 299 824 417 q 728 67 824 157 q 418 -24 632 -22 l 388 -64 q 453 -43 413 -43 q 542 -67 511 -43 q 574 -139 574 -92 q 522 -258 574 -219 q 382 -296 469 -296 q 263 -272 308 -296 q 206 -206 218 -249 l 328 -176 q 382 -210 336 -210 q 424 -194 407 -210 q 440 -150 440 -179 q 428 -119 440 -131 q 394 -108 417 -108 q 346 -129 363 -108 l 265 -110 l 322 -18 q 102 56 193 -3 q -25 214 11 114 l 163 332 q 259 201 193 244 q 419 158 325 158 q 590 279 590 158 q 562 351 590 329 q 471 386 533 372 l 368 411 q 183 506 253 438 q 114 693 114 574 q 153 849 114 778 q 280 965 192 921 q 507 1010 368 1010 q 749 960 643 1010 q 907 806 854 910 l 736 682 q 647 798 704 760 q 501 836 589 836 q 377 803 417 836 q 338 721 338 771 q 368 652 338 678 q 464 610 399 626 l 582 582 z "},"Ŝ":{"ha":868,"x_min":-25,"x_max":907,"o":"m 647 1046 l 572 1149 l 461 1046 l 283 1046 l 460 1210 l 694 1210 l 813 1046 l 647 1046 m 415 -24 q 134 37 251 -24 q -25 214 17 97 l 163 332 q 259 201 193 244 q 419 158 325 158 q 590 279 590 158 q 562 351 590 329 q 471 386 533 372 l 368 411 q 183 506 253 438 q 114 693 114 574 q 153 849 114 778 q 280 965 192 921 q 507 1010 368 1010 q 749 960 643 1010 q 907 806 854 910 l 736 682 q 647 798 704 760 q 501 836 589 836 q 377 803 417 836 q 338 721 338 771 q 368 652 338 678 q 464 610 399 626 l 582 582 q 763 485 701 553 q 824 299 824 417 q 727 67 824 157 q 415 -24 631 -24 z "},"Ș":{"ha":868,"x_min":-25,"x_max":907,"o":"m 415 -24 q 134 37 251 -24 q -25 214 17 97 l 163 332 q 259 201 193 244 q 419 158 325 158 q 590 279 590 158 q 562 351 590 329 q 471 386 533 372 l 368 411 q 183 506 253 438 q 114 693 114 574 q 153 849 114 778 q 280 965 192 921 q 507 1010 368 1010 q 749 960 643 1010 q 907 806 854 910 l 736 682 q 647 798 704 760 q 501 836 589 836 q 377 803 417 836 q 338 721 338 771 q 368 652 338 678 q 464 610 399 626 l 582 582 q 763 485 701 553 q 824 299 824 417 q 727 67 824 157 q 415 -24 631 -24 m 272 -262 q 331 -239 313 -253 q 353 -197 349 -225 l 263 -197 l 288 -56 l 472 -56 l 450 -179 q 297 -333 426 -308 l 272 -262 z "},"Ŧ":{"ha":825,"x_min":89,"x_max":929,"o":"m 610 800 l 578 619 l 736 619 l 721 540 l 564 540 l 468 0 l 235 0 l 331 540 l 175 540 l 189 619 l 344 619 l 376 800 l 89 800 l 122 986 l 929 986 l 896 800 l 610 800 z "},"Ť":{"ha":825,"x_min":89,"x_max":929,"o":"m 403 1039 l 285 1203 l 451 1203 l 526 1100 l 638 1203 l 814 1203 l 638 1039 l 403 1039 m 896 800 l 610 800 l 468 0 l 235 0 l 376 800 l 89 800 l 122 986 l 929 986 l 896 800 z "},"Ţ":{"ha":825,"x_min":89,"x_max":929,"o":"m 401 0 l 351 -64 q 417 -43 376 -43 q 506 -67 475 -43 q 538 -139 538 -92 q 485 -258 538 -219 q 346 -296 433 -296 q 227 -272 272 -296 q 169 -206 182 -249 l 292 -176 q 346 -210 300 -210 q 388 -194 371 -210 q 404 -150 404 -179 q 392 -119 404 -131 q 358 -108 381 -108 q 310 -129 326 -108 l 229 -110 l 299 0 l 235 0 l 376 800 l 89 800 l 122 986 l 929 986 l 896 800 l 610 800 l 468 0 l 401 0 z "},"Ț":{"ha":825,"x_min":89,"x_max":929,"o":"m 896 800 l 610 800 l 468 0 l 235 0 l 376 800 l 89 800 l 122 986 l 929 986 l 896 800 m 235 -262 q 293 -239 275 -253 q 315 -197 311 -225 l 225 -197 l 250 -56 l 435 -56 l 413 -179 q 260 -333 389 -308 l 235 -262 z "},"Þ":{"ha":876,"x_min":42,"x_max":886,"o":"m 514 824 q 782 765 678 824 q 886 550 886 707 q 779 304 886 397 q 447 211 672 211 l 314 211 l 276 0 l 42 0 l 215 986 l 450 986 l 421 824 l 514 824 m 425 375 q 592 416 543 375 q 640 533 640 457 q 597 626 640 599 q 485 654 554 654 l 392 654 l 343 375 l 425 375 z "},"Ú":{"ha":1010,"x_min":89,"x_max":1035,"o":"m 710 1210 l 903 1210 l 713 1046 l 543 1046 l 710 1210 m 433 986 l 328 385 q 322 324 322 356 q 367 205 322 243 q 489 167 413 167 q 690 357 658 167 l 801 986 l 1035 986 l 915 307 q 788 72 890 167 q 475 -24 685 -24 q 194 56 300 -24 q 89 303 89 135 q 99 408 89 356 l 200 986 l 433 986 z "},"Ŭ":{"ha":1010,"x_min":89,"x_max":1035,"o":"m 556 1210 q 646 1144 563 1144 q 717 1161 689 1144 q 757 1210 746 1178 l 897 1210 q 812 1083 876 1128 q 647 1039 747 1039 q 472 1085 531 1039 q 415 1210 414 1132 l 556 1210 m 433 986 l 328 385 q 322 324 322 356 q 367 205 322 243 q 489 167 413 167 q 690 357 658 167 l 801 986 l 1035 986 l 915 307 q 788 72 890 167 q 475 -24 685 -24 q 194 56 300 -24 q 89 303 89 135 q 99 408 89 356 l 200 986 l 433 986 z "},"Û":{"ha":1010,"x_min":89,"x_max":1035,"o":"m 728 1046 l 653 1149 l 542 1046 l 364 1046 l 540 1210 l 775 1210 l 893 1046 l 728 1046 m 433 986 l 328 385 q 322 324 322 356 q 367 205 322 243 q 489 167 413 167 q 690 357 658 167 l 801 986 l 1035 986 l 915 307 q 788 72 890 167 q 475 -24 685 -24 q 194 56 300 -24 q 89 303 89 135 q 99 408 89 356 l 200 986 l 433 986 z "},"Ü":{"ha":1010,"x_min":89,"x_max":1035,"o":"m 407 1206 l 592 1206 l 564 1046 l 379 1046 l 407 1206 m 722 1206 l 907 1206 l 879 1046 l 694 1046 l 722 1206 m 433 986 l 328 385 q 322 324 322 356 q 367 205 322 243 q 489 167 413 167 q 690 357 658 167 l 801 986 l 1035 986 l 915 307 q 788 72 890 167 q 475 -24 685 -24 q 194 56 300 -24 q 89 303 89 135 q 99 408 89 356 l 200 986 l 433 986 z "},"Ù":{"ha":1010,"x_min":89,"x_max":1035,"o":"m 561 1046 l 371 1210 l 564 1210 l 731 1046 l 561 1046 m 433 986 l 328 385 q 322 324 322 356 q 367 205 322 243 q 489 167 413 167 q 690 357 658 167 l 801 986 l 1035 986 l 915 307 q 788 72 890 167 q 475 -24 685 -24 q 194 56 300 -24 q 89 303 89 135 q 99 408 89 356 l 200 986 l 433 986 z "},"Ű":{"ha":1010,"x_min":89,"x_max":1035,"o":"m 576 1210 l 758 1210 l 589 1047 l 413 1047 l 576 1210 m 833 1210 l 1015 1210 l 844 1047 l 669 1047 l 833 1210 m 433 986 l 328 385 q 322 324 322 356 q 367 205 322 243 q 489 167 413 167 q 690 357 658 167 l 801 986 l 1035 986 l 915 307 q 788 72 890 167 q 475 -24 685 -24 q 194 56 300 -24 q 89 303 89 135 q 99 408 89 356 l 200 986 l 433 986 z "},"Ū":{"ha":1010,"x_min":89,"x_max":1035,"o":"m 403 1188 l 904 1188 l 879 1053 l 379 1053 l 403 1188 m 433 986 l 328 385 q 322 324 322 356 q 367 205 322 243 q 489 167 413 167 q 690 357 658 167 l 801 986 l 1035 986 l 915 307 q 788 72 890 167 q 475 -24 685 -24 q 194 56 300 -24 q 89 303 89 135 q 99 408 89 356 l 200 986 l 433 986 z "},"Ų":{"ha":1010,"x_min":89,"x_max":1035,"o":"m 1035 986 l 915 307 q 808 90 893 182 q 551 -19 722 -1 q 451 -78 479 -50 q 424 -135 424 -106 q 472 -182 424 -182 q 556 -125 524 -182 l 640 -174 q 563 -256 607 -229 q 460 -282 519 -282 q 333 -251 376 -282 q 289 -161 289 -221 q 315 -81 289 -115 q 399 -19 342 -47 q 173 75 257 -4 q 89 303 89 154 q 99 408 89 356 l 200 986 l 433 986 l 328 385 q 322 324 322 356 q 367 205 322 243 q 489 167 413 167 q 690 357 658 167 l 801 986 l 1035 986 z "},"Ů":{"ha":1010,"x_min":89,"x_max":1035,"o":"m 647 1033 q 521 1075 567 1033 q 475 1185 475 1117 q 529 1310 475 1261 q 664 1360 583 1360 q 789 1319 743 1360 q 835 1210 835 1278 q 781 1083 835 1133 q 647 1033 726 1033 m 647 1124 q 709 1147 689 1124 q 729 1210 729 1171 q 713 1254 729 1238 q 664 1271 696 1271 q 602 1247 622 1271 q 582 1185 582 1224 q 599 1140 582 1157 q 647 1124 615 1124 m 433 986 l 328 385 q 322 324 322 356 q 367 205 322 243 q 489 167 413 167 q 690 357 658 167 l 801 986 l 1035 986 l 915 307 q 788 72 890 167 q 475 -24 685 -24 q 194 56 300 -24 q 89 303 89 135 q 99 408 89 356 l 200 986 l 433 986 z "},"Ũ":{"ha":1010,"x_min":89,"x_max":1035,"o":"m 749 1031 q 677 1044 706 1031 q 619 1081 649 1057 q 579 1107 596 1099 q 542 1115 563 1115 q 493 1101 511 1115 q 458 1040 475 1086 l 357 1078 q 430 1197 382 1154 q 539 1239 478 1239 q 608 1226 581 1239 q 667 1189 635 1214 q 710 1161 693 1169 q 749 1153 726 1153 q 828 1228 806 1153 l 929 1190 q 856 1072 904 1114 q 749 1031 808 1031 m 433 986 l 328 385 q 322 324 322 356 q 367 205 322 243 q 489 167 413 167 q 690 357 658 167 l 801 986 l 1035 986 l 915 307 q 788 72 890 167 q 475 -24 685 -24 q 194 56 300 -24 q 89 303 89 135 q 99 408 89 356 l 200 986 l 433 986 z "},"Ẃ":{"ha":1338,"x_min":139,"x_max":1425,"o":"m 874 1210 l 1067 1210 l 876 1046 l 707 1046 l 874 1210 m 139 986 l 371 986 l 383 346 q 382 297 385 321 q 378 264 379 272 l 382 264 q 407 346 392 307 l 660 986 l 896 986 l 922 346 q 918 264 924 317 l 922 264 q 946 346 931 304 l 1185 986 l 1425 986 l 1017 0 l 757 0 l 739 669 q 744 742 739 689 l 739 742 q 718 669 729 694 l 464 0 l 200 0 l 139 986 z "},"Ŵ":{"ha":1338,"x_min":139,"x_max":1425,"o":"m 892 1046 l 817 1149 l 706 1046 l 528 1046 l 704 1210 l 939 1210 l 1057 1046 l 892 1046 m 139 986 l 371 986 l 383 346 q 382 297 385 321 q 378 264 379 272 l 382 264 q 407 346 392 307 l 660 986 l 896 986 l 922 346 q 918 264 924 317 l 922 264 q 946 346 931 304 l 1185 986 l 1425 986 l 1017 0 l 757 0 l 739 669 q 744 742 739 689 l 739 742 q 718 669 729 694 l 464 0 l 200 0 l 139 986 z "},"Ẅ":{"ha":1338,"x_min":139,"x_max":1425,"o":"m 571 1206 l 756 1206 l 728 1046 l 543 1046 l 571 1206 m 886 1206 l 1071 1206 l 1043 1046 l 858 1046 l 886 1206 m 139 986 l 371 986 l 383 346 q 382 297 385 321 q 378 264 379 272 l 382 264 q 407 346 392 307 l 660 986 l 896 986 l 922 346 q 918 264 924 317 l 922 264 q 946 346 931 304 l 1185 986 l 1425 986 l 1017 0 l 757 0 l 739 669 q 744 742 739 689 l 739 742 q 718 669 729 694 l 464 0 l 200 0 l 139 986 z "},"Ẁ":{"ha":1338,"x_min":139,"x_max":1425,"o":"m 725 1046 l 535 1210 l 728 1210 l 894 1046 l 725 1046 m 139 986 l 371 986 l 383 346 q 382 297 385 321 q 378 264 379 272 l 382 264 q 407 346 392 307 l 660 986 l 896 986 l 922 346 q 918 264 924 317 l 922 264 q 946 346 931 304 l 1185 986 l 1425 986 l 1017 0 l 757 0 l 739 669 q 744 742 739 689 l 739 742 q 718 669 729 694 l 464 0 l 200 0 l 139 986 z "},"Ý":{"ha":883,"x_min":108,"x_max":1000,"o":"m 646 1210 l 839 1210 l 649 1046 l 479 1046 l 646 1210 m 325 357 l 108 986 l 347 986 l 456 622 q 467 550 467 582 l 469 550 q 507 622 483 586 l 743 986 l 1000 986 l 560 357 l 499 0 l 263 0 l 325 357 z "},"Ŷ":{"ha":883,"x_min":108,"x_max":1000,"o":"m 664 1046 l 589 1149 l 478 1046 l 300 1046 l 476 1210 l 711 1210 l 829 1046 l 664 1046 m 325 357 l 108 986 l 347 986 l 456 622 q 467 550 467 582 l 469 550 q 507 622 483 586 l 743 986 l 1000 986 l 560 357 l 499 0 l 263 0 l 325 357 z "},"Ÿ":{"ha":883,"x_min":108,"x_max":1000,"o":"m 343 1206 l 528 1206 l 500 1046 l 315 1046 l 343 1206 m 658 1206 l 843 1206 l 815 1046 l 631 1046 l 658 1206 m 325 357 l 108 986 l 347 986 l 456 622 q 467 550 467 582 l 469 550 q 507 622 483 586 l 743 986 l 1000 986 l 560 357 l 499 0 l 263 0 l 325 357 z "},"Ỳ":{"ha":883,"x_min":108,"x_max":1000,"o":"m 497 1046 l 307 1210 l 500 1210 l 667 1046 l 497 1046 m 325 357 l 108 986 l 347 986 l 456 622 q 467 550 467 582 l 469 550 q 507 622 483 586 l 743 986 l 1000 986 l 560 357 l 499 0 l 263 0 l 325 357 z "},"Ź":{"ha":844,"x_min":-12,"x_max":904,"o":"m 632 1210 l 825 1210 l 635 1046 l 465 1046 l 632 1210 m 601 804 l 149 804 l 181 986 l 904 986 l 874 817 l 292 181 l 783 181 l 751 0 l -12 0 l 18 169 l 601 804 z "},"Ž":{"ha":844,"x_min":-12,"x_max":904,"o":"m 465 1203 l 540 1100 l 651 1203 l 828 1203 l 651 1039 l 417 1039 l 299 1203 l 465 1203 m 601 804 l 149 804 l 181 986 l 904 986 l 874 817 l 292 181 l 783 181 l 751 0 l -12 0 l 18 169 l 601 804 z "},"Ż":{"ha":844,"x_min":-12,"x_max":904,"o":"m 467 1210 l 694 1210 l 665 1046 l 438 1046 l 467 1210 m 601 804 l 149 804 l 181 986 l 904 986 l 874 817 l 292 181 l 783 181 l 751 0 l -12 0 l 18 169 l 601 804 z "},"a":{"ha":801,"x_min":10,"x_max":736,"o":"m 240 -17 q 72 35 135 -17 q 10 179 10 88 q 78 333 10 275 q 333 413 157 400 l 513 425 l 517 458 q 518 483 518 468 q 424 568 518 568 q 303 465 317 568 l 83 465 q 181 643 97 575 q 428 711 264 711 q 659 652 582 711 q 736 476 736 593 q 729 400 736 444 l 694 192 q 681 84 685 138 q 679 0 676 31 l 463 0 q 471 110 461 54 q 381 15 440 47 q 240 -17 321 -17 m 335 125 q 436 163 393 125 q 490 267 479 200 l 499 318 l 393 310 q 278 276 314 304 q 242 204 242 249 q 268 144 242 164 q 335 125 294 125 z "},"b":{"ha":858,"x_min":39,"x_max":818,"o":"m 481 -17 q 350 13 407 -17 q 269 106 293 43 l 238 0 l 39 0 l 217 1007 l 439 1007 l 368 604 q 453 683 403 654 q 569 711 504 711 q 687 684 631 711 q 781 592 743 657 q 818 421 818 528 q 784 222 818 322 q 674 52 750 121 q 481 -17 599 -17 m 419 138 q 517 182 479 138 q 572 289 556 226 q 588 408 588 351 q 555 524 588 492 q 476 557 522 557 q 378 515 419 557 q 325 406 338 472 l 313 342 q 306 281 306 307 q 334 178 306 218 q 419 138 363 138 z "},"c":{"ha":782,"x_min":40,"x_max":765,"o":"m 385 -17 q 142 56 244 -17 q 40 301 40 128 q 79 494 40 401 q 208 649 118 588 q 439 711 297 711 q 666 651 575 711 q 765 465 757 590 l 551 422 q 517 518 550 489 q 436 547 485 547 q 310 474 350 547 q 269 307 269 400 q 304 185 269 222 q 392 149 339 149 q 479 184 446 149 q 524 279 513 219 l 726 232 q 612 51 699 118 q 385 -17 525 -17 z "},"d":{"ha":860,"x_min":42,"x_max":876,"o":"m 286 -17 q 114 53 186 -17 q 42 278 42 124 q 76 478 42 379 q 188 644 111 578 q 379 711 264 711 q 504 683 451 711 q 581 597 557 656 l 653 1007 l 876 1007 l 699 0 l 488 0 l 507 115 q 416 19 474 54 q 286 -17 358 -17 m 385 138 q 485 185 450 138 q 533 304 521 233 l 544 365 q 550 425 550 394 q 518 526 550 494 q 438 557 486 557 q 342 515 379 557 q 290 413 306 474 q 274 293 274 353 q 385 138 274 138 z "},"e":{"ha":792,"x_min":40,"x_max":751,"o":"m 751 431 q 732 297 751 357 l 253 297 q 295 181 254 218 q 401 143 336 143 q 491 167 456 143 q 551 240 526 192 l 704 165 q 386 -17 613 -17 q 142 56 244 -17 q 40 300 40 128 q 81 497 40 403 q 209 651 121 590 q 432 711 297 711 q 660 643 569 711 q 751 431 751 575 m 542 422 q 547 467 547 442 q 513 552 547 524 q 425 581 479 581 q 316 538 358 581 q 261 422 274 494 l 542 422 z "},"f":{"ha":544,"x_min":58,"x_max":633,"o":"m 553 546 l 393 546 l 296 0 l 74 0 l 171 546 l 58 546 l 85 694 l 197 694 l 208 765 q 295 948 228 881 q 483 1015 363 1015 q 560 1010 528 1015 q 633 993 593 1006 l 604 836 q 528 850 568 850 q 459 826 481 850 q 431 760 438 801 l 419 694 l 579 694 l 553 546 z "},"g":{"ha":801,"x_min":-53,"x_max":863,"o":"m 789 813 q 863 804 838 813 l 836 654 q 751 669 806 669 q 703 664 722 669 q 671 642 685 658 q 735 496 735 588 q 703 376 735 433 q 598 281 672 318 q 401 243 524 243 q 233 269 306 243 q 197 221 197 253 q 219 183 197 194 q 292 169 240 172 l 449 167 q 586 149 531 164 q 676 92 642 133 q 710 -26 710 50 q 619 -211 710 -135 q 278 -287 528 -287 q -53 -126 -53 -287 q 101 13 -53 -18 q 15 135 15 49 q 176 297 15 251 q 93 457 93 353 q 124 578 93 521 q 230 673 156 635 q 425 711 304 711 q 604 681 529 711 q 673 778 625 743 q 789 813 721 813 m 408 357 q 496 397 467 357 q 525 489 525 436 q 495 571 525 544 q 419 597 465 597 q 333 558 361 597 q 304 465 304 519 q 333 383 304 408 q 408 357 363 357 m 258 -12 q 165 -4 206 -12 q 119 -76 119 -31 q 307 -165 119 -165 q 511 -76 511 -165 q 488 -31 511 -43 q 418 -17 465 -18 l 258 -12 z "},"h":{"ha":854,"x_min":39,"x_max":790,"o":"m 217 1007 l 440 1007 l 365 581 q 455 674 399 638 q 590 711 511 711 q 733 661 676 711 q 790 500 790 611 q 781 399 790 451 l 710 0 l 488 0 l 558 400 q 563 450 563 429 q 537 519 563 499 q 472 540 511 540 q 374 495 406 540 q 328 374 342 450 l 263 0 l 39 0 l 217 1007 z "},"i":{"ha":414,"x_min":32,"x_max":440,"o":"m 160 694 l 381 694 l 253 0 l 32 0 l 160 694 m 208 997 l 440 997 l 404 794 l 172 794 l 208 997 z "},"j":{"ha":424,"x_min":-154,"x_max":451,"o":"m -31 -281 q -154 -264 -107 -281 l -126 -106 q -60 -115 -96 -115 q 10 -92 -11 -115 q 40 -17 32 -69 l 169 694 l 390 694 l 260 -32 q 174 -216 239 -151 q -31 -281 110 -281 m 219 997 l 451 997 l 415 794 l 183 794 l 219 997 z "},"k":{"ha":825,"x_min":39,"x_max":868,"o":"m 563 414 l 753 0 l 521 0 l 397 289 l 297 200 l 263 0 l 39 0 l 217 1007 l 440 1007 l 340 439 l 617 694 l 868 694 l 563 414 z "},"l":{"ha":424,"x_min":39,"x_max":440,"o":"m 263 0 l 39 0 l 217 1007 l 440 1007 l 263 0 z "},"m":{"ha":1238,"x_min":32,"x_max":1175,"o":"m 156 694 l 369 694 l 347 569 q 561 711 418 711 q 685 676 631 711 q 753 567 739 642 q 843 672 790 633 q 978 711 896 711 q 1115 667 1054 711 q 1175 506 1175 624 q 1167 418 1175 467 l 1093 0 l 871 0 l 940 390 q 946 447 946 419 q 867 540 946 540 q 782 494 808 540 q 740 371 756 449 l 674 0 l 451 0 l 521 390 q 526 447 526 419 q 447 540 526 540 q 362 494 389 540 q 321 372 335 447 l 256 0 l 32 0 l 156 694 z "},"n":{"ha":846,"x_min":32,"x_max":783,"o":"m 156 694 l 369 694 l 347 568 q 440 674 386 636 q 578 711 493 711 q 724 663 665 711 q 783 496 783 614 q 774 401 783 450 l 703 0 l 481 0 l 547 382 q 554 439 554 419 q 461 540 554 540 q 363 492 392 540 q 317 357 333 443 l 256 0 l 32 0 l 156 694 z "},"o":{"ha":815,"x_min":40,"x_max":776,"o":"m 376 -17 q 140 55 240 -17 q 40 299 40 126 q 82 497 40 403 q 213 651 124 592 q 439 711 303 711 q 676 640 575 711 q 776 396 776 568 q 735 197 776 292 q 603 43 693 103 q 376 -17 513 -17 m 383 138 q 481 180 443 138 q 536 283 519 222 q 553 403 553 344 q 518 522 553 488 q 433 557 483 557 q 334 515 372 557 q 279 411 296 472 q 263 292 263 350 q 297 172 263 207 q 383 138 332 138 z "},"p":{"ha":854,"x_min":-15,"x_max":813,"o":"m 156 694 l 369 694 l 349 582 q 433 676 378 642 q 569 711 489 711 q 681 684 626 711 q 774 592 736 657 q 813 419 813 526 q 778 221 813 321 q 669 52 744 121 q 475 -17 593 -17 q 348 10 403 -17 q 272 92 293 36 l 208 -271 l -15 -271 l 156 694 m 414 138 q 512 182 474 138 q 566 289 550 226 q 582 408 582 351 q 550 524 582 492 q 471 557 518 557 q 370 510 410 557 q 318 394 331 463 l 307 333 q 301 276 301 307 q 329 176 301 215 q 414 138 357 138 z "},"q":{"ha":854,"x_min":42,"x_max":821,"o":"m 496 110 q 413 17 471 50 q 286 -17 356 -17 q 114 53 186 -17 q 42 278 42 124 q 76 480 42 381 q 188 645 111 579 q 381 711 264 711 q 513 681 457 711 q 592 590 568 650 l 628 694 l 821 694 l 651 -271 l 428 -271 l 496 110 m 385 138 q 485 185 450 138 q 533 304 521 233 l 544 365 q 550 425 550 394 q 518 526 550 494 q 438 557 486 557 q 342 515 379 557 q 290 413 306 474 q 274 293 274 353 q 385 138 274 138 z "},"r":{"ha":574,"x_min":32,"x_max":613,"o":"m 328 493 q 412 648 354 585 q 561 711 469 711 q 613 706 588 711 l 575 492 q 504 500 551 500 q 389 468 431 500 q 307 292 331 421 l 256 0 l 32 0 l 156 694 l 364 694 l 328 493 z "},"s":{"ha":690,"x_min":-14,"x_max":701,"o":"m 321 -17 q 112 25 199 -17 q -14 146 25 67 l 126 250 q 212 169 153 197 q 343 142 271 142 q 440 206 440 142 q 424 243 440 231 q 365 263 407 256 l 276 281 q 126 351 174 300 q 79 476 79 401 q 113 594 79 542 q 215 679 146 647 q 388 711 285 711 q 569 678 486 711 q 701 579 653 644 l 567 468 q 486 535 542 511 q 368 560 431 560 q 278 501 278 560 q 294 465 278 478 q 349 443 310 451 l 446 424 q 593 355 550 401 q 636 226 636 308 q 560 53 636 122 q 321 -17 485 -17 z "},"t":{"ha":553,"x_min":43,"x_max":578,"o":"m 69 694 l 190 694 l 219 861 l 457 947 l 413 694 l 578 694 l 550 546 l 386 546 l 339 279 q 336 249 336 257 q 425 171 336 171 q 486 176 454 171 l 456 3 q 393 -10 419 -7 q 326 -12 367 -12 q 110 193 110 -12 q 118 281 110 231 l 164 546 l 43 546 l 69 694 z "},"u":{"ha":839,"x_min":63,"x_max":806,"o":"m 268 -17 q 121 30 179 -17 q 63 192 63 76 q 72 293 63 228 l 143 694 l 365 694 l 299 313 q 292 251 292 274 q 383 154 292 154 q 476 201 449 154 q 519 338 504 249 l 582 694 l 806 694 l 682 0 l 469 0 l 493 129 q 407 21 461 58 q 268 -17 353 -17 z "},"v":{"ha":739,"x_min":67,"x_max":794,"o":"m 67 694 l 289 694 l 331 285 q 333 225 333 240 l 332 186 l 336 186 q 374 285 351 238 l 558 694 l 794 694 l 429 0 l 186 0 l 67 694 z "},"w":{"ha":1081,"x_min":82,"x_max":1119,"o":"m 82 694 l 288 694 l 299 268 q 297 201 299 224 l 300 201 q 322 268 307 228 l 499 694 l 692 694 l 718 268 q 719 236 719 258 q 718 201 719 213 l 721 201 q 742 268 725 218 l 903 694 l 1119 694 l 813 0 l 599 0 l 565 406 l 564 431 q 567 469 564 447 l 563 471 q 542 411 560 458 l 364 0 l 146 0 l 82 694 z "},"x":{"ha":783,"x_min":-49,"x_max":808,"o":"m 268 364 l 89 694 l 328 694 l 389 556 q 411 485 407 519 l 414 485 q 460 556 425 510 l 564 694 l 808 694 l 515 361 l 710 0 l 475 0 l 399 156 q 375 228 378 199 l 374 228 q 321 156 364 210 l 197 0 l -49 0 l 268 364 z "},"y":{"ha":746,"x_min":-60,"x_max":801,"o":"m 75 -278 q -60 -261 1 -278 l -31 -100 q 72 -114 17 -114 q 192 -33 156 -114 l 208 4 l 67 694 l 300 694 l 347 272 q 351 221 351 243 q 350 192 351 201 l 354 192 q 382 272 363 229 l 569 694 l 801 694 l 415 -54 q 311 -201 365 -153 q 203 -264 257 -250 q 75 -278 150 -278 z "},"z":{"ha":669,"x_min":-31,"x_max":683,"o":"m 400 538 l 81 538 l 108 694 l 683 694 l 661 568 l 261 160 l 608 160 l 581 0 l -31 0 l -7 131 l 400 538 z "},"á":{"ha":801,"x_min":10,"x_max":774,"o":"m 240 -17 q 72 35 135 -17 q 10 179 10 88 q 78 333 10 275 q 333 413 157 400 l 513 425 l 517 458 q 518 483 518 468 q 424 568 518 568 q 303 465 317 568 l 83 465 q 181 643 97 575 q 428 711 264 711 q 659 652 582 711 q 736 476 736 593 q 729 400 736 444 l 694 192 q 681 84 685 138 q 679 0 676 31 l 463 0 q 471 110 461 54 q 381 15 440 47 q 240 -17 321 -17 m 335 125 q 436 163 393 125 q 490 267 479 200 l 499 318 l 393 310 q 278 276 314 304 q 242 204 242 249 q 268 144 242 164 q 335 125 294 125 m 564 1004 l 774 1004 l 543 788 l 372 788 l 564 1004 z "},"ă":{"ha":801,"x_min":10,"x_max":736,"o":"m 240 -17 q 72 35 135 -17 q 10 179 10 88 q 78 333 10 275 q 333 413 157 400 l 513 425 l 517 458 q 518 483 518 468 q 424 568 518 568 q 303 465 317 568 l 83 465 q 181 643 97 575 q 428 711 264 711 q 659 652 582 711 q 736 476 736 593 q 729 400 736 444 l 694 192 q 681 84 685 138 q 679 0 676 31 l 463 0 q 471 110 461 54 q 381 15 440 47 q 240 -17 321 -17 m 335 125 q 436 163 393 125 q 490 267 479 200 l 499 318 l 393 310 q 278 276 314 304 q 242 204 242 249 q 268 144 242 164 q 335 125 294 125 m 392 1004 q 483 892 383 892 q 594 1004 581 892 l 735 1004 q 647 830 714 879 q 476 781 579 781 q 311 826 371 781 q 251 969 251 872 q 253 1004 251 992 l 392 1004 z "},"â":{"ha":801,"x_min":10,"x_max":736,"o":"m 240 -17 q 72 35 135 -17 q 10 179 10 88 q 78 333 10 275 q 333 413 157 400 l 513 425 l 517 458 q 518 483 518 468 q 424 568 518 568 q 303 465 317 568 l 83 465 q 181 643 97 575 q 428 711 264 711 q 659 652 582 711 q 736 476 736 593 q 729 400 736 444 l 694 192 q 681 84 685 138 q 679 0 676 31 l 463 0 q 471 110 461 54 q 381 15 440 47 q 240 -17 321 -17 m 335 125 q 436 163 393 125 q 490 267 479 200 l 499 318 l 393 310 q 278 276 314 304 q 242 204 242 249 q 268 144 242 164 q 335 125 294 125 m 556 788 l 485 933 l 363 788 l 194 788 l 381 1004 l 601 1004 l 711 788 l 556 788 z "},"ä":{"ha":801,"x_min":10,"x_max":739,"o":"m 240 -17 q 72 35 135 -17 q 10 179 10 88 q 78 333 10 275 q 333 413 157 400 l 513 425 l 517 458 q 518 483 518 468 q 424 568 518 568 q 303 465 317 568 l 83 465 q 181 643 97 575 q 428 711 264 711 q 659 652 582 711 q 736 476 736 593 q 729 400 736 444 l 694 192 q 681 84 685 138 q 679 0 676 31 l 463 0 q 471 110 461 54 q 381 15 440 47 q 240 -17 321 -17 m 335 125 q 436 163 393 125 q 490 267 479 200 l 499 318 l 393 310 q 278 276 314 304 q 242 204 242 249 q 268 144 242 164 q 335 125 294 125 m 240 981 l 435 981 l 401 796 l 208 796 l 240 981 m 546 981 l 739 981 l 707 796 l 514 796 l 546 981 z "},"æ":{"ha":1208,"x_min":8,"x_max":1169,"o":"m 699 297 q 733 181 696 219 q 826 143 771 143 q 910 167 878 143 q 968 240 943 192 l 1122 165 q 1004 32 1079 81 q 811 -17 929 -17 q 656 15 729 -17 q 540 119 582 47 q 423 18 501 53 q 247 -17 344 -17 q 73 34 138 -17 q 8 174 8 85 q 26 263 8 222 q 78 332 43 303 q 333 408 150 393 l 510 421 l 514 458 q 515 483 515 468 q 492 547 515 526 q 418 568 468 568 q 301 465 315 568 l 82 465 q 179 643 96 575 q 426 711 263 711 q 646 633 588 711 q 857 711 735 711 q 1081 643 992 711 q 1169 431 1169 575 q 1149 297 1169 356 l 699 297 m 860 581 q 762 538 797 581 q 714 422 726 496 l 958 422 q 965 475 965 439 q 935 556 965 531 q 860 581 906 581 m 496 313 l 389 306 q 240 199 240 296 q 267 143 240 161 q 335 125 294 125 q 436 160 393 125 q 488 261 479 196 l 496 313 z "},"ǽ":{"ha":1208,"x_min":8,"x_max":1169,"o":"m 699 297 q 733 181 696 219 q 826 143 771 143 q 910 167 878 143 q 968 240 943 192 l 1122 165 q 1004 32 1079 81 q 811 -17 929 -17 q 656 15 729 -17 q 540 119 582 47 q 423 18 501 53 q 247 -17 344 -17 q 73 34 138 -17 q 8 174 8 85 q 26 263 8 222 q 78 332 43 303 q 333 408 150 393 l 510 421 l 514 458 q 515 483 515 468 q 492 547 515 526 q 418 568 468 568 q 301 465 315 568 l 82 465 q 179 643 96 575 q 426 711 263 711 q 646 633 588 711 q 857 711 735 711 q 1081 643 992 711 q 1169 431 1169 575 q 1149 297 1169 356 l 699 297 m 860 581 q 762 538 797 581 q 714 422 726 496 l 958 422 q 965 475 965 439 q 935 556 965 531 q 860 581 906 581 m 496 313 l 389 306 q 240 199 240 296 q 267 143 240 161 q 335 125 294 125 q 436 160 393 125 q 488 261 479 196 l 496 313 m 789 1004 l 999 1004 l 768 788 l 597 788 l 789 1004 z "},"à":{"ha":801,"x_min":10,"x_max":736,"o":"m 240 -17 q 72 35 135 -17 q 10 179 10 88 q 78 333 10 275 q 333 413 157 400 l 513 425 l 517 458 q 518 483 518 468 q 424 568 518 568 q 303 465 317 568 l 83 465 q 181 643 97 575 q 428 711 264 711 q 659 652 582 711 q 736 476 736 593 q 729 400 736 444 l 694 192 q 681 84 685 138 q 679 0 676 31 l 463 0 q 471 110 461 54 q 381 15 440 47 q 240 -17 321 -17 m 335 125 q 436 163 393 125 q 490 267 479 200 l 499 318 l 393 310 q 278 276 314 304 q 242 204 242 249 q 268 144 242 164 q 335 125 294 125 m 375 788 l 144 1004 l 354 1004 l 546 788 l 375 788 z "},"ā":{"ha":801,"x_min":10,"x_max":736,"o":"m 240 -17 q 72 35 135 -17 q 10 179 10 88 q 78 333 10 275 q 333 413 157 400 l 513 425 l 517 458 q 518 483 518 468 q 424 568 518 568 q 303 465 317 568 l 83 465 q 181 643 97 575 q 428 711 264 711 q 659 652 582 711 q 736 476 736 593 q 729 400 736 444 l 694 192 q 681 84 685 138 q 679 0 676 31 l 463 0 q 471 110 461 54 q 381 15 440 47 q 240 -17 321 -17 m 335 125 q 436 163 393 125 q 490 267 479 200 l 499 318 l 393 310 q 278 276 314 304 q 242 204 242 249 q 268 144 242 164 q 335 125 294 125 m 243 956 l 719 956 l 696 822 l 219 822 l 243 956 z "},"ą":{"ha":801,"x_min":10,"x_max":736,"o":"m 428 711 q 659 652 582 711 q 736 476 736 593 q 729 400 736 444 l 694 192 q 681 84 685 138 q 679 0 676 31 l 618 0 q 478 -69 517 -36 q 439 -135 439 -101 q 488 -182 439 -182 q 571 -125 539 -182 l 656 -174 q 578 -256 622 -229 q 475 -282 535 -282 q 348 -251 392 -282 q 304 -161 304 -221 q 342 -68 304 -107 q 461 0 381 -29 l 463 0 q 471 110 461 54 q 381 15 440 47 q 240 -17 321 -17 q 72 35 135 -17 q 10 179 10 88 q 78 333 10 275 q 333 413 157 400 l 513 425 l 517 458 q 518 483 518 468 q 424 568 518 568 q 303 465 317 568 l 83 465 q 181 643 97 575 q 428 711 264 711 m 335 125 q 436 163 393 125 q 490 267 479 200 l 499 318 l 393 310 q 278 276 314 304 q 242 204 242 249 q 268 144 242 164 q 335 125 294 125 z "},"å":{"ha":801,"x_min":10,"x_max":736,"o":"m 240 -17 q 72 35 135 -17 q 10 179 10 88 q 78 333 10 275 q 333 413 157 400 l 513 425 l 517 458 q 518 483 518 468 q 424 568 518 568 q 303 465 317 568 l 83 465 q 181 643 97 575 q 428 711 264 711 q 659 652 582 711 q 736 476 736 593 q 729 400 736 444 l 694 192 q 681 84 685 138 q 679 0 676 31 l 463 0 q 471 110 461 54 q 381 15 440 47 q 240 -17 321 -17 m 335 125 q 436 163 393 125 q 490 267 479 200 l 499 318 l 393 310 q 278 276 314 304 q 242 204 242 249 q 268 144 242 164 q 335 125 294 125 m 454 761 q 330 802 376 761 q 283 911 283 843 q 338 1038 283 988 q 474 1088 392 1088 q 597 1046 550 1088 q 644 936 644 1004 q 590 810 644 860 q 454 761 536 761 m 454 850 q 514 873 490 850 q 538 936 538 896 q 520 981 538 964 q 474 997 503 997 q 414 974 438 997 q 390 911 390 951 q 408 867 390 883 q 454 850 425 850 z "},"ã":{"ha":801,"x_min":10,"x_max":774,"o":"m 240 -17 q 72 35 135 -17 q 10 179 10 88 q 78 333 10 275 q 333 413 157 400 l 513 425 l 517 458 q 518 483 518 468 q 424 568 518 568 q 303 465 317 568 l 83 465 q 181 643 97 575 q 428 711 264 711 q 659 652 582 711 q 736 476 736 593 q 729 400 736 444 l 694 192 q 681 84 685 138 q 679 0 676 31 l 463 0 q 471 110 461 54 q 381 15 440 47 q 240 -17 321 -17 m 335 125 q 436 163 393 125 q 490 267 479 200 l 499 318 l 393 310 q 278 276 314 304 q 242 204 242 249 q 268 144 242 164 q 335 125 294 125 m 589 789 q 516 803 544 789 q 453 844 488 817 q 410 874 428 864 q 369 883 392 883 q 324 865 343 883 q 288 803 304 846 l 186 840 q 259 972 215 926 q 369 1017 303 1017 q 440 1003 411 1017 q 506 963 468 989 q 550 933 532 943 q 589 924 568 924 q 635 942 615 924 q 672 1003 656 960 l 774 965 q 701 835 749 882 q 589 789 653 789 z "},"ć":{"ha":782,"x_min":40,"x_max":786,"o":"m 385 -17 q 142 56 244 -17 q 40 301 40 128 q 79 494 40 401 q 208 649 118 588 q 439 711 297 711 q 666 651 575 711 q 765 465 757 590 l 551 422 q 517 518 550 489 q 436 547 485 547 q 310 474 350 547 q 269 307 269 400 q 304 185 269 222 q 392 149 339 149 q 479 184 446 149 q 524 279 513 219 l 726 232 q 612 51 699 118 q 385 -17 525 -17 m 576 1004 l 786 1004 l 556 788 l 385 788 l 576 1004 z "},"č":{"ha":782,"x_min":40,"x_max":765,"o":"m 385 -17 q 142 56 244 -17 q 40 301 40 128 q 79 494 40 401 q 208 649 118 588 q 439 711 297 711 q 666 651 575 711 q 765 465 757 590 l 551 422 q 517 518 550 489 q 436 547 485 547 q 310 474 350 547 q 269 307 269 400 q 304 185 269 222 q 392 149 339 149 q 479 184 446 149 q 524 279 513 219 l 726 232 q 612 51 699 118 q 385 -17 525 -17 m 385 997 l 456 851 l 578 997 l 746 997 l 560 781 l 339 781 l 229 997 l 385 997 z "},"ç":{"ha":782,"x_min":40,"x_max":765,"o":"m 392 149 q 479 184 446 149 q 524 279 513 219 l 726 232 q 619 56 700 124 q 407 -17 538 -11 l 369 -64 q 435 -43 394 -43 q 524 -67 493 -43 q 556 -139 556 -92 q 503 -258 556 -219 q 364 -296 451 -296 q 245 -272 290 -296 q 188 -206 200 -249 l 310 -176 q 364 -210 318 -210 q 406 -194 389 -210 q 422 -150 422 -179 q 410 -119 422 -131 q 376 -108 399 -108 q 328 -129 344 -108 l 247 -110 l 310 -11 q 117 80 194 6 q 40 301 40 154 q 79 494 40 401 q 208 649 118 588 q 439 711 297 711 q 666 651 575 711 q 765 465 757 590 l 551 422 q 517 518 550 489 q 436 547 485 547 q 310 474 350 547 q 269 307 269 400 q 304 185 269 222 q 392 149 339 149 z "},"ĉ":{"ha":782,"x_min":40,"x_max":765,"o":"m 385 -17 q 142 56 244 -17 q 40 301 40 128 q 79 494 40 401 q 208 649 118 588 q 439 711 297 711 q 666 651 575 711 q 765 465 757 590 l 551 422 q 517 518 550 489 q 436 547 485 547 q 310 474 350 547 q 269 307 269 400 q 304 185 269 222 q 392 149 339 149 q 479 184 446 149 q 524 279 513 219 l 726 232 q 612 51 699 118 q 385 -17 525 -17 m 568 788 l 497 933 l 375 788 l 207 788 l 393 1004 l 614 1004 l 724 788 l 568 788 z "},"ċ":{"ha":782,"x_min":40,"x_max":765,"o":"m 385 -17 q 142 56 244 -17 q 40 301 40 128 q 79 494 40 401 q 208 649 118 588 q 439 711 297 711 q 666 651 575 711 q 765 465 757 590 l 551 422 q 517 518 550 489 q 436 547 485 547 q 310 474 350 547 q 269 307 269 400 q 304 185 269 222 q 392 149 339 149 q 479 184 446 149 q 524 279 513 219 l 726 232 q 612 51 699 118 q 385 -17 525 -17 m 389 997 l 621 997 l 585 794 l 353 794 l 389 997 z "},"ď":{"ha":967,"x_min":42,"x_max":1117,"o":"m 286 -17 q 114 53 186 -17 q 42 278 42 124 q 76 478 42 379 q 188 644 111 578 q 379 711 264 711 q 504 683 451 711 q 581 597 557 656 l 653 1007 l 876 1007 l 699 0 l 488 0 l 507 115 q 416 19 474 54 q 286 -17 358 -17 m 385 138 q 485 185 450 138 q 533 304 521 233 l 544 365 q 550 425 550 394 q 518 526 550 494 q 438 557 486 557 q 342 515 379 557 q 290 413 306 474 q 274 293 274 353 q 385 138 274 138 m 921 790 q 976 810 958 797 q 999 844 994 822 l 908 844 l 932 986 l 1117 986 l 1094 863 q 1047 771 1085 807 q 943 724 1010 735 l 921 790 z "},"đ":{"ha":860,"x_min":42,"x_max":908,"o":"m 893 808 l 842 808 l 699 0 l 488 0 l 507 115 q 416 19 474 54 q 286 -17 358 -17 q 114 53 186 -17 q 42 278 42 124 q 76 478 42 379 q 188 644 111 578 q 379 711 264 711 q 504 683 451 711 q 581 597 557 656 l 618 808 l 347 808 l 361 888 l 632 888 l 653 1007 l 876 1007 l 856 888 l 908 888 l 893 808 m 544 365 q 550 425 550 394 q 518 526 550 494 q 438 557 486 557 q 342 515 379 557 q 290 413 306 474 q 274 293 274 353 q 385 138 274 138 q 485 185 450 138 q 533 304 521 233 l 544 365 z "},"é":{"ha":792,"x_min":40,"x_max":788,"o":"m 751 431 q 732 297 751 357 l 253 297 q 295 181 254 218 q 401 143 336 143 q 491 167 456 143 q 551 240 526 192 l 704 165 q 386 -17 613 -17 q 142 56 244 -17 q 40 300 40 128 q 81 497 40 403 q 209 651 121 590 q 432 711 297 711 q 660 643 569 711 q 751 431 751 575 m 542 422 q 547 467 547 442 q 513 552 547 524 q 425 581 479 581 q 316 538 358 581 q 261 422 274 494 l 542 422 m 578 1004 l 788 1004 l 557 788 l 386 788 l 578 1004 z "},"ĕ":{"ha":792,"x_min":40,"x_max":751,"o":"m 751 431 q 732 297 751 357 l 253 297 q 295 181 254 218 q 401 143 336 143 q 491 167 456 143 q 551 240 526 192 l 704 165 q 386 -17 613 -17 q 142 56 244 -17 q 40 300 40 128 q 81 497 40 403 q 209 651 121 590 q 432 711 297 711 q 660 643 569 711 q 751 431 751 575 m 542 422 q 547 467 547 442 q 513 552 547 524 q 425 581 479 581 q 316 538 358 581 q 261 422 274 494 l 542 422 m 407 1004 q 499 892 399 892 q 610 1004 596 892 l 750 1004 q 662 830 729 879 q 492 781 594 781 q 326 826 386 781 q 267 969 267 872 q 268 1004 267 992 l 407 1004 z "},"ě":{"ha":792,"x_min":40,"x_max":751,"o":"m 751 431 q 732 297 751 357 l 253 297 q 295 181 254 218 q 401 143 336 143 q 491 167 456 143 q 551 240 526 192 l 704 165 q 386 -17 613 -17 q 142 56 244 -17 q 40 300 40 128 q 81 497 40 403 q 209 651 121 590 q 432 711 297 711 q 660 643 569 711 q 751 431 751 575 m 542 422 q 547 467 547 442 q 513 552 547 524 q 425 581 479 581 q 316 538 358 581 q 261 422 274 494 l 542 422 m 386 997 l 457 851 l 579 997 l 747 997 l 561 781 l 340 781 l 231 997 l 386 997 z "},"ê":{"ha":792,"x_min":40,"x_max":751,"o":"m 751 431 q 732 297 751 357 l 253 297 q 295 181 254 218 q 401 143 336 143 q 491 167 456 143 q 551 240 526 192 l 704 165 q 386 -17 613 -17 q 142 56 244 -17 q 40 300 40 128 q 81 497 40 403 q 209 651 121 590 q 432 711 297 711 q 660 643 569 711 q 751 431 751 575 m 542 422 q 547 467 547 442 q 513 552 547 524 q 425 581 479 581 q 316 538 358 581 q 261 422 274 494 l 542 422 m 569 788 l 499 933 l 376 788 l 208 788 l 394 1004 l 615 1004 l 725 788 l 569 788 z "},"ë":{"ha":792,"x_min":40,"x_max":754,"o":"m 751 431 q 732 297 751 357 l 253 297 q 295 181 254 218 q 401 143 336 143 q 491 167 456 143 q 551 240 526 192 l 704 165 q 386 -17 613 -17 q 142 56 244 -17 q 40 300 40 128 q 81 497 40 403 q 209 651 121 590 q 432 711 297 711 q 660 643 569 711 q 751 431 751 575 m 542 422 q 547 467 547 442 q 513 552 547 524 q 425 581 479 581 q 316 538 358 581 q 261 422 274 494 l 542 422 m 256 981 l 450 981 l 417 796 l 224 796 l 256 981 m 561 981 l 754 981 l 722 796 l 529 796 l 561 981 z "},"ė":{"ha":792,"x_min":40,"x_max":751,"o":"m 751 431 q 732 297 751 357 l 253 297 q 295 181 254 218 q 401 143 336 143 q 491 167 456 143 q 551 240 526 192 l 704 165 q 386 -17 613 -17 q 142 56 244 -17 q 40 300 40 128 q 81 497 40 403 q 209 651 121 590 q 432 711 297 711 q 660 643 569 711 q 751 431 751 575 m 542 422 q 547 467 547 442 q 513 552 547 524 q 425 581 479 581 q 316 538 358 581 q 261 422 274 494 l 542 422 m 392 997 l 624 997 l 588 794 l 356 794 l 392 997 z "},"è":{"ha":792,"x_min":40,"x_max":751,"o":"m 751 431 q 732 297 751 357 l 253 297 q 295 181 254 218 q 401 143 336 143 q 491 167 456 143 q 551 240 526 192 l 704 165 q 386 -17 613 -17 q 142 56 244 -17 q 40 300 40 128 q 81 497 40 403 q 209 651 121 590 q 432 711 297 711 q 660 643 569 711 q 751 431 751 575 m 542 422 q 547 467 547 442 q 513 552 547 524 q 425 581 479 581 q 316 538 358 581 q 261 422 274 494 l 542 422 m 389 788 l 158 1004 l 368 1004 l 560 788 l 389 788 z "},"ē":{"ha":792,"x_min":40,"x_max":751,"o":"m 751 431 q 732 297 751 357 l 253 297 q 295 181 254 218 q 401 143 336 143 q 491 167 456 143 q 551 240 526 192 l 704 165 q 386 -17 613 -17 q 142 56 244 -17 q 40 300 40 128 q 81 497 40 403 q 209 651 121 590 q 432 711 297 711 q 660 643 569 711 q 751 431 751 575 m 542 422 q 547 467 547 442 q 513 552 547 524 q 425 581 479 581 q 316 538 358 581 q 261 422 274 494 l 542 422 m 257 956 l 733 956 l 710 822 l 233 822 l 257 956 z "},"ę":{"ha":792,"x_min":40,"x_max":751,"o":"m 751 431 q 732 297 751 357 l 253 297 q 295 181 254 218 q 401 143 336 143 q 491 167 456 143 q 551 240 526 192 l 704 165 q 435 -14 622 3 q 325 -75 356 -46 q 294 -135 294 -104 q 343 -182 294 -182 q 426 -125 394 -182 l 511 -174 q 434 -256 478 -229 q 331 -282 390 -282 q 203 -251 247 -282 q 160 -161 160 -221 q 192 -74 160 -111 q 294 -8 225 -36 q 112 85 183 13 q 40 300 40 158 q 81 497 40 403 q 209 651 121 590 q 432 711 297 711 q 660 643 569 711 q 751 431 751 575 m 542 422 q 547 467 547 442 q 513 552 547 524 q 425 581 479 581 q 316 538 358 581 q 261 422 274 494 l 542 422 z "},"ğ":{"ha":801,"x_min":-53,"x_max":863,"o":"m 789 813 q 863 804 838 813 l 836 654 q 751 669 806 669 q 703 664 722 669 q 671 642 685 658 q 735 496 735 588 q 703 376 735 433 q 598 281 672 318 q 401 243 524 243 q 233 269 306 243 q 197 221 197 253 q 219 183 197 194 q 292 169 240 172 l 449 167 q 586 149 531 164 q 676 92 642 133 q 710 -26 710 50 q 619 -211 710 -135 q 278 -287 528 -287 q -53 -126 -53 -287 q 101 13 -53 -18 q 15 135 15 49 q 176 297 15 251 q 93 457 93 353 q 124 578 93 521 q 230 673 156 635 q 425 711 304 711 q 604 681 529 711 q 673 778 625 743 q 789 813 721 813 m 408 357 q 496 397 467 357 q 525 489 525 436 q 495 571 525 544 q 419 597 465 597 q 333 558 361 597 q 304 465 304 519 q 333 383 304 408 q 408 357 363 357 m 258 -12 q 165 -4 206 -12 q 119 -76 119 -31 q 307 -165 119 -165 q 511 -76 511 -165 q 488 -31 511 -43 q 418 -17 465 -18 l 258 -12 m 379 1004 q 471 892 371 892 q 582 1004 568 892 l 722 1004 q 634 830 701 879 q 464 781 567 781 q 299 826 358 781 q 239 969 239 872 q 240 1004 239 992 l 379 1004 z "},"ĝ":{"ha":801,"x_min":-53,"x_max":863,"o":"m 358 821 l 190 821 l 369 1004 l 592 1004 l 707 821 l 551 821 l 475 943 l 358 821 m 789 813 q 863 804 838 813 l 836 654 q 751 669 806 669 q 703 664 722 669 q 671 642 685 658 q 735 496 735 588 q 703 376 735 433 q 598 281 672 318 q 401 243 524 243 q 233 269 306 243 q 197 221 197 253 q 219 183 197 194 q 292 169 240 172 l 449 167 q 586 149 531 164 q 676 92 642 133 q 710 -26 710 50 q 619 -211 710 -135 q 278 -287 528 -287 q -53 -126 -53 -287 q 101 13 -53 -18 q 15 135 15 49 q 176 297 15 251 q 93 457 93 353 q 124 578 93 521 q 230 673 156 635 q 425 711 304 711 q 604 681 529 711 q 673 778 625 743 q 789 813 721 813 m 408 357 q 496 397 467 357 q 525 489 525 436 q 495 571 525 544 q 419 597 465 597 q 333 558 361 597 q 304 465 304 519 q 333 383 304 408 q 408 357 363 357 m 258 -12 q 165 -4 206 -12 q 119 -76 119 -31 q 307 -165 119 -165 q 511 -76 511 -165 q 488 -31 511 -43 q 418 -17 465 -18 l 258 -12 z "},"ģ":{"ha":801,"x_min":-53,"x_max":863,"o":"m 789 813 q 863 804 838 813 l 836 654 q 751 669 806 669 q 703 664 722 669 q 671 642 685 658 q 735 496 735 588 q 703 376 735 433 q 598 281 672 318 q 401 243 524 243 q 233 269 306 243 q 197 221 197 253 q 219 183 197 194 q 292 169 240 172 l 449 167 q 586 149 531 164 q 676 92 642 133 q 710 -26 710 50 q 619 -211 710 -135 q 278 -287 528 -287 q -53 -126 -53 -287 q 101 13 -53 -18 q 15 135 15 49 q 176 297 15 251 q 93 457 93 353 q 124 578 93 521 q 230 673 156 635 q 425 711 304 711 q 604 681 529 711 q 673 778 625 743 q 789 813 721 813 m 408 357 q 496 397 467 357 q 525 489 525 436 q 495 571 525 544 q 419 597 465 597 q 333 558 361 597 q 304 465 304 519 q 333 383 304 408 q 408 357 363 357 m 258 -12 q 165 -4 206 -12 q 119 -76 119 -31 q 307 -165 119 -165 q 511 -76 511 -165 q 488 -31 511 -43 q 418 -17 465 -18 l 258 -12 m 561 994 q 502 972 519 985 q 481 929 485 958 l 571 929 l 546 788 l 361 788 l 383 911 q 535 1067 407 1042 l 561 994 z "},"ġ":{"ha":801,"x_min":-53,"x_max":863,"o":"m 789 813 q 863 804 838 813 l 836 654 q 751 669 806 669 q 703 664 722 669 q 671 642 685 658 q 735 496 735 588 q 703 376 735 433 q 598 281 672 318 q 401 243 524 243 q 233 269 306 243 q 197 221 197 253 q 219 183 197 194 q 292 169 240 172 l 449 167 q 586 149 531 164 q 676 92 642 133 q 710 -26 710 50 q 619 -211 710 -135 q 278 -287 528 -287 q -53 -126 -53 -287 q 101 13 -53 -18 q 15 135 15 49 q 176 297 15 251 q 93 457 93 353 q 124 578 93 521 q 230 673 156 635 q 425 711 304 711 q 604 681 529 711 q 673 778 625 743 q 789 813 721 813 m 408 357 q 496 397 467 357 q 525 489 525 436 q 495 571 525 544 q 419 597 465 597 q 333 558 361 597 q 304 465 304 519 q 333 383 304 408 q 408 357 363 357 m 258 -12 q 165 -4 206 -12 q 119 -76 119 -31 q 307 -165 119 -165 q 511 -76 511 -165 q 488 -31 511 -43 q 418 -17 465 -18 l 258 -12 m 364 997 l 596 997 l 560 794 l 328 794 l 364 997 z "},"ħ":{"ha":840,"x_min":39,"x_max":790,"o":"m 590 711 q 733 661 676 711 q 790 500 790 611 q 781 399 790 451 l 710 0 l 488 0 l 558 400 q 563 450 563 429 q 537 519 563 499 q 472 540 511 540 q 374 495 406 540 q 328 374 342 450 l 263 0 l 39 0 l 181 804 l 82 804 l 94 883 l 194 883 l 217 1007 l 440 1007 l 418 883 l 669 883 l 657 804 l 404 804 l 365 581 q 455 674 399 638 q 590 711 511 711 z "},"ĥ":{"ha":854,"x_min":39,"x_max":790,"o":"m 435 1046 l 360 1149 l 249 1046 l 71 1046 l 247 1210 l 482 1210 l 600 1046 l 435 1046 m 217 1007 l 440 1007 l 365 581 q 455 674 399 638 q 590 711 511 711 q 733 661 676 711 q 790 500 790 611 q 781 399 790 451 l 710 0 l 488 0 l 558 400 q 563 450 563 429 q 537 519 563 499 q 472 540 511 540 q 374 495 406 540 q 328 374 342 450 l 263 0 l 39 0 l 217 1007 z "},"í":{"ha":414,"x_min":32,"x_max":553,"o":"m 356 1004 l 553 1004 l 374 788 l 203 788 l 356 1004 m 160 694 l 381 694 l 253 0 l 32 0 l 160 694 z "},"ĭ":{"ha":414,"x_min":32,"x_max":518,"o":"m 268 1004 q 264 957 264 978 q 310 892 264 892 q 355 915 338 892 q 381 1004 372 938 l 518 1004 q 308 781 481 781 q 125 943 125 781 q 131 1004 125 975 l 268 1004 m 160 694 l 381 694 l 253 0 l 32 0 l 160 694 z "},"î":{"ha":414,"x_min":32,"x_max":504,"o":"m 356 788 l 319 935 l 233 788 l 71 788 l 215 1004 l 436 1004 l 504 788 l 356 788 m 160 694 l 381 694 l 253 0 l 32 0 l 160 694 z "},"ï":{"ha":414,"x_min":32,"x_max":529,"o":"m 114 981 l 290 981 l 258 796 l 82 796 l 114 981 m 353 981 l 529 981 l 497 796 l 319 796 l 353 981 m 160 694 l 381 694 l 253 0 l 32 0 l 160 694 z "},"ı":{"ha":414,"x_min":32,"x_max":381,"o":"m 160 694 l 381 694 l 253 0 l 32 0 l 160 694 z "},"ì":{"ha":414,"x_min":18,"x_max":381,"o":"m 197 788 l 18 1004 l 215 1004 l 368 788 l 197 788 m 160 694 l 381 694 l 253 0 l 32 0 l 160 694 z "},"ĳ":{"ha":838,"x_min":32,"x_max":865,"o":"m 160 694 l 381 694 l 253 0 l 32 0 l 160 694 m 208 997 l 440 997 l 404 794 l 172 794 l 208 997 m 383 -281 q 260 -264 307 -281 l 288 -106 q 354 -115 318 -115 q 424 -92 403 -115 q 454 -17 446 -69 l 583 694 l 804 694 l 674 -32 q 588 -216 653 -151 q 383 -281 524 -281 m 633 997 l 865 997 l 829 794 l 597 794 l 633 997 z "},"ī":{"ha":414,"x_min":32,"x_max":494,"o":"m 139 956 l 494 956 l 471 822 l 115 822 l 139 956 m 160 694 l 381 694 l 253 0 l 32 0 l 160 694 z "},"į":{"ha":414,"x_min":-125,"x_max":440,"o":"m 160 694 l 381 694 l 253 0 l 32 0 l 160 694 m 208 997 l 440 997 l 404 794 l 172 794 l 208 997 m 226 -174 q 149 -256 193 -229 q 46 -282 106 -282 q -81 -251 -37 -282 q -125 -161 -125 -221 q -87 -68 -125 -107 q 32 0 -49 -29 l 189 0 q 49 -69 88 -36 q 10 -135 10 -101 q 58 -182 10 -182 q 142 -125 110 -182 l 226 -174 z "},"ĩ":{"ha":414,"x_min":32,"x_max":549,"o":"m 396 789 q 336 803 358 789 q 286 847 314 818 q 259 874 271 865 q 232 883 247 883 q 196 864 208 883 q 175 806 183 844 l 74 843 q 131 973 90 929 q 228 1017 171 1017 q 290 1001 265 1017 q 342 957 315 985 q 369 931 360 939 q 392 924 379 924 q 425 941 411 924 q 447 1001 439 958 l 549 963 q 487 834 528 879 q 396 789 446 789 m 160 694 l 381 694 l 253 0 l 32 0 l 160 694 z "},"ĵ":{"ha":424,"x_min":-154,"x_max":515,"o":"m 367 788 l 331 935 l 244 788 l 82 788 l 226 1004 l 447 1004 l 515 788 l 367 788 m -31 -281 q -154 -264 -107 -281 l -126 -106 q -60 -115 -96 -115 q 10 -92 -11 -115 q 40 -17 32 -69 l 169 694 l 390 694 l 260 -32 q 174 -216 239 -151 q -31 -281 110 -281 z "},"ȷ":{"ha":424,"x_min":-154,"x_max":390,"o":"m -31 -281 q -154 -264 -107 -281 l -126 -106 q -60 -115 -96 -115 q 10 -92 -11 -115 q 40 -17 32 -69 l 169 694 l 390 694 l 260 -32 q 174 -216 239 -151 q -31 -281 110 -281 z "},"ķ":{"ha":825,"x_min":39,"x_max":868,"o":"m 563 414 l 753 0 l 521 0 l 397 289 l 297 200 l 263 0 l 39 0 l 217 1007 l 440 1007 l 340 439 l 617 694 l 868 694 l 563 414 m 276 -262 q 335 -239 317 -253 q 357 -197 353 -225 l 267 -197 l 292 -56 l 476 -56 l 454 -179 q 301 -333 431 -308 l 276 -262 z "},"ĸ":{"ha":818,"x_min":32,"x_max":861,"o":"m 556 414 l 746 0 l 514 0 l 390 290 l 290 200 l 256 0 l 32 0 l 154 694 l 378 694 l 333 439 l 610 694 l 861 694 l 556 414 z "},"ĺ":{"ha":424,"x_min":39,"x_max":610,"o":"m 417 1210 l 610 1210 l 419 1046 l 250 1046 l 417 1210 m 263 0 l 39 0 l 217 1007 l 440 1007 l 263 0 z "},"ľ":{"ha":531,"x_min":39,"x_max":682,"o":"m 263 0 l 39 0 l 217 1007 l 440 1007 l 263 0 m 486 790 q 542 810 524 797 q 564 844 560 822 l 474 844 l 497 986 l 682 986 l 660 863 q 613 771 650 807 q 508 724 575 735 l 486 790 z "},"ļ":{"ha":424,"x_min":24,"x_max":440,"o":"m 263 0 l 39 0 l 217 1007 l 440 1007 l 263 0 m 33 -262 q 92 -239 74 -253 q 114 -197 110 -225 l 24 -197 l 49 -56 l 233 -56 l 211 -179 q 58 -333 188 -308 l 33 -262 z "},"ŀ":{"ha":638,"x_min":39,"x_max":710,"o":"m 263 0 l 39 0 l 217 1007 l 440 1007 l 263 0 z "},"ł":{"ha":424,"x_min":19,"x_max":472,"o":"m 453 661 l 368 594 l 263 0 l 39 0 l 108 390 l 19 321 l 39 429 l 126 499 l 217 1007 l 440 1007 l 386 703 l 472 769 l 453 661 z "},"ń":{"ha":846,"x_min":32,"x_max":838,"o":"m 156 694 l 369 694 l 347 568 q 440 674 386 636 q 578 711 493 711 q 724 663 665 711 q 783 496 783 614 q 774 401 783 450 l 703 0 l 481 0 l 547 382 q 554 439 554 419 q 461 540 554 540 q 363 492 392 540 q 317 357 333 443 l 256 0 l 32 0 l 156 694 m 628 1004 l 838 1004 l 607 788 l 436 788 l 628 1004 z "},"ŉ":{"ha":861,"x_min":46,"x_max":797,"o":"m 169 694 l 383 694 l 361 568 q 453 674 400 636 q 592 711 507 711 q 738 663 679 711 q 797 496 797 614 q 788 401 797 450 l 717 0 l 494 0 l 561 382 q 568 439 568 419 q 475 540 568 540 q 376 492 406 540 q 331 357 347 443 l 269 0 l 46 0 l 169 694 m 118 790 q 174 810 156 797 q 196 844 192 822 l 106 844 l 129 986 l 314 986 l 292 863 q 244 771 282 807 q 140 724 207 735 l 118 790 z "},"ň":{"ha":846,"x_min":32,"x_max":797,"o":"m 156 694 l 369 694 l 347 568 q 440 674 386 636 q 578 711 493 711 q 724 663 665 711 q 783 496 783 614 q 774 401 783 450 l 703 0 l 481 0 l 547 382 q 554 439 554 419 q 461 540 554 540 q 363 492 392 540 q 317 357 333 443 l 256 0 l 32 0 l 156 694 m 436 997 l 507 851 l 629 997 l 797 997 l 611 781 l 390 781 l 281 997 l 436 997 z "},"ņ":{"ha":846,"x_min":32,"x_max":783,"o":"m 156 694 l 369 694 l 347 568 q 440 674 386 636 q 578 711 493 711 q 724 663 665 711 q 783 496 783 614 q 774 401 783 450 l 703 0 l 481 0 l 547 382 q 554 439 554 419 q 461 540 554 540 q 363 492 392 540 q 317 357 333 443 l 256 0 l 32 0 l 156 694 m 257 -262 q 315 -239 297 -253 q 338 -197 333 -225 l 247 -197 l 272 -56 l 457 -56 l 435 -179 q 282 -333 411 -308 l 257 -262 z "},"ñ":{"ha":846,"x_min":32,"x_max":838,"o":"m 156 694 l 369 694 l 347 568 q 440 674 386 636 q 578 711 493 711 q 724 663 665 711 q 783 496 783 614 q 774 401 783 450 l 703 0 l 481 0 l 547 382 q 554 439 554 419 q 461 540 554 540 q 363 492 392 540 q 317 357 333 443 l 256 0 l 32 0 l 156 694 m 653 789 q 580 803 608 789 q 517 844 551 817 q 474 874 492 864 q 433 883 456 883 q 388 865 407 883 q 351 803 368 846 l 250 840 q 323 972 279 926 q 433 1017 367 1017 q 503 1003 475 1017 q 569 963 532 989 q 614 933 596 943 q 653 924 632 924 q 699 942 679 924 q 736 1003 719 960 l 838 965 q 765 835 813 882 q 653 789 717 789 z "},"ŋ":{"ha":846,"x_min":32,"x_max":783,"o":"m 578 711 q 724 663 665 711 q 783 496 783 614 q 774 401 783 450 l 703 0 l 699 -28 q 608 -215 678 -150 q 397 -281 538 -281 q 285 -272 328 -281 l 313 -112 q 378 -115 344 -115 q 445 -94 422 -115 q 475 -29 468 -74 l 481 0 l 547 382 q 554 439 554 419 q 461 540 554 540 q 363 492 392 540 q 317 357 333 443 l 256 0 l 32 0 l 156 694 l 369 694 l 347 568 q 440 674 386 636 q 578 711 493 711 z "},"ó":{"ha":815,"x_min":40,"x_max":776,"o":"m 376 -17 q 140 55 240 -17 q 40 299 40 126 q 82 497 40 403 q 213 651 124 592 q 439 711 303 711 q 676 640 575 711 q 776 396 776 568 q 735 197 776 292 q 603 43 693 103 q 376 -17 513 -17 m 383 138 q 481 180 443 138 q 536 283 519 222 q 553 403 553 344 q 518 522 553 488 q 433 557 483 557 q 334 515 372 557 q 279 411 296 472 q 263 292 263 350 q 297 172 263 207 q 383 138 332 138 m 564 1004 l 774 1004 l 543 788 l 372 788 l 564 1004 z "},"ŏ":{"ha":815,"x_min":40,"x_max":776,"o":"m 376 -17 q 140 55 240 -17 q 40 299 40 126 q 82 497 40 403 q 213 651 124 592 q 439 711 303 711 q 676 640 575 711 q 776 396 776 568 q 735 197 776 292 q 603 43 693 103 q 376 -17 513 -17 m 383 138 q 481 180 443 138 q 536 283 519 222 q 553 403 553 344 q 518 522 553 488 q 433 557 483 557 q 334 515 372 557 q 279 411 296 472 q 263 292 263 350 q 297 172 263 207 q 383 138 332 138 m 392 1004 q 483 892 383 892 q 594 1004 581 892 l 735 1004 q 647 830 714 879 q 476 781 579 781 q 311 826 371 781 q 251 969 251 872 q 253 1004 251 992 l 392 1004 z "},"ô":{"ha":815,"x_min":40,"x_max":776,"o":"m 376 -17 q 140 55 240 -17 q 40 299 40 126 q 82 497 40 403 q 213 651 124 592 q 439 711 303 711 q 676 640 575 711 q 776 396 776 568 q 735 197 776 292 q 603 43 693 103 q 376 -17 513 -17 m 383 138 q 481 180 443 138 q 536 283 519 222 q 553 403 553 344 q 518 522 553 488 q 433 557 483 557 q 334 515 372 557 q 279 411 296 472 q 263 292 263 350 q 297 172 263 207 q 383 138 332 138 m 556 788 l 485 933 l 363 788 l 194 788 l 381 1004 l 601 1004 l 711 788 l 556 788 z "},"ö":{"ha":815,"x_min":40,"x_max":776,"o":"m 376 -17 q 140 55 240 -17 q 40 299 40 126 q 82 497 40 403 q 213 651 124 592 q 439 711 303 711 q 676 640 575 711 q 776 396 776 568 q 735 197 776 292 q 603 43 693 103 q 376 -17 513 -17 m 383 138 q 481 180 443 138 q 536 283 519 222 q 553 403 553 344 q 518 522 553 488 q 433 557 483 557 q 334 515 372 557 q 279 411 296 472 q 263 292 263 350 q 297 172 263 207 q 383 138 332 138 m 240 981 l 435 981 l 401 796 l 208 796 l 240 981 m 546 981 l 739 981 l 707 796 l 514 796 l 546 981 z "},"œ":{"ha":1300,"x_min":40,"x_max":1260,"o":"m 1260 431 q 1240 297 1260 357 l 761 297 q 803 181 763 218 q 910 143 844 143 q 999 167 964 143 q 1060 240 1033 192 l 1213 165 q 894 -17 1121 -17 q 745 8 815 -17 q 631 93 675 33 q 376 -17 538 -17 q 140 55 240 -17 q 40 299 40 126 q 82 497 40 403 q 213 651 124 592 q 439 711 303 711 q 571 686 508 711 q 675 603 633 661 q 940 711 772 711 q 1169 643 1078 711 q 1260 431 1260 575 m 1050 422 q 1056 467 1056 442 q 1022 552 1056 524 q 933 581 988 581 q 824 538 867 581 q 769 422 782 494 l 1050 422 m 383 138 q 481 180 443 138 q 536 283 519 222 q 553 403 553 344 q 518 522 553 488 q 433 557 483 557 q 334 515 372 557 q 279 411 296 472 q 263 292 263 350 q 297 172 263 207 q 383 138 332 138 z "},"ò":{"ha":815,"x_min":40,"x_max":776,"o":"m 376 -17 q 140 55 240 -17 q 40 299 40 126 q 82 497 40 403 q 213 651 124 592 q 439 711 303 711 q 676 640 575 711 q 776 396 776 568 q 735 197 776 292 q 603 43 693 103 q 376 -17 513 -17 m 383 138 q 481 180 443 138 q 536 283 519 222 q 553 403 553 344 q 518 522 553 488 q 433 557 483 557 q 334 515 372 557 q 279 411 296 472 q 263 292 263 350 q 297 172 263 207 q 383 138 332 138 m 375 788 l 144 1004 l 354 1004 l 546 788 l 375 788 z "},"ő":{"ha":815,"x_min":40,"x_max":819,"o":"m 376 -17 q 140 55 240 -17 q 40 299 40 126 q 82 497 40 403 q 213 651 124 592 q 439 711 303 711 q 676 640 575 711 q 776 396 776 568 q 735 197 776 292 q 603 43 693 103 q 376 -17 513 -17 m 383 138 q 481 180 443 138 q 536 283 519 222 q 553 403 553 344 q 518 522 553 488 q 433 557 483 557 q 334 515 372 557 q 279 411 296 472 q 263 292 263 350 q 297 172 263 207 q 383 138 332 138 m 419 1004 l 581 1004 l 414 788 l 260 788 l 419 1004 m 658 1004 l 819 1004 l 653 788 l 499 788 l 658 1004 z "},"ō":{"ha":815,"x_min":40,"x_max":776,"o":"m 376 -17 q 140 55 240 -17 q 40 299 40 126 q 82 497 40 403 q 213 651 124 592 q 439 711 303 711 q 676 640 575 711 q 776 396 776 568 q 735 197 776 292 q 603 43 693 103 q 376 -17 513 -17 m 383 138 q 481 180 443 138 q 536 283 519 222 q 553 403 553 344 q 518 522 553 488 q 433 557 483 557 q 334 515 372 557 q 279 411 296 472 q 263 292 263 350 q 297 172 263 207 q 383 138 332 138 m 243 956 l 719 956 l 696 822 l 219 822 l 243 956 z "},"ª":{"ha":643,"x_min":92,"x_max":660,"o":"m 264 418 q 139 455 186 418 q 92 558 92 492 q 154 681 92 639 q 343 732 217 724 l 469 740 l 472 764 q 460 817 476 800 q 408 835 444 835 q 356 819 375 835 q 331 768 336 804 l 146 768 q 217 898 154 846 q 415 950 281 950 q 598 904 536 950 q 660 771 660 858 q 656 721 660 749 l 628 561 q 617 431 614 479 l 433 431 q 440 510 432 461 q 373 442 419 465 q 264 418 326 418 m 354 532 q 419 552 392 532 q 453 613 447 572 l 461 658 l 397 654 q 313 631 339 651 q 288 582 288 611 q 307 544 288 556 q 354 532 326 532 z "},"º":{"ha":669,"x_min":110,"x_max":679,"o":"m 372 418 q 189 470 268 418 q 110 651 110 522 q 142 797 110 729 q 243 907 174 864 q 417 950 313 950 q 600 898 521 950 q 679 717 679 846 q 647 572 679 639 q 546 461 615 504 q 372 418 476 418 m 376 543 q 462 601 433 543 q 490 725 490 660 q 467 803 490 782 q 413 825 444 825 q 326 767 356 825 q 296 643 296 708 q 319 565 296 586 q 376 543 343 543 z "},"ø":{"ha":815,"x_min":38,"x_max":776,"o":"m 707 610 q 776 396 776 529 q 735 197 776 292 q 603 43 693 103 q 376 -17 513 -17 q 151 47 239 -17 l 82 -24 l 38 13 l 110 85 q 40 299 40 165 q 82 497 40 403 q 213 651 124 592 q 439 711 303 711 q 664 649 575 711 l 733 718 l 776 681 l 707 610 m 263 292 q 267 244 263 265 l 528 510 q 433 557 497 557 q 334 515 372 557 q 279 411 296 472 q 263 292 263 350 m 553 403 q 549 450 553 429 l 288 185 q 383 138 318 138 q 481 180 443 138 q 536 283 519 222 q 553 403 553 344 z "},"ǿ":{"ha":815,"x_min":38,"x_max":776,"o":"m 707 610 q 776 396 776 529 q 735 197 776 292 q 603 43 693 103 q 376 -17 513 -17 q 151 47 239 -17 l 82 -24 l 38 13 l 110 85 q 40 299 40 165 q 82 497 40 403 q 213 651 124 592 q 439 711 303 711 q 664 649 575 711 l 733 718 l 776 681 l 707 610 m 263 292 q 267 244 263 265 l 528 510 q 433 557 497 557 q 334 515 372 557 q 279 411 296 472 q 263 292 263 350 m 553 403 q 549 450 553 429 l 288 185 q 383 138 318 138 q 481 180 443 138 q 536 283 519 222 q 553 403 553 344 m 526 1004 l 736 1004 l 506 788 l 335 788 l 526 1004 z "},"õ":{"ha":815,"x_min":40,"x_max":776,"o":"m 376 -17 q 140 55 240 -17 q 40 299 40 126 q 82 497 40 403 q 213 651 124 592 q 439 711 303 711 q 676 640 575 711 q 776 396 776 568 q 735 197 776 292 q 603 43 693 103 q 376 -17 513 -17 m 383 138 q 481 180 443 138 q 536 283 519 222 q 553 403 553 344 q 518 522 553 488 q 433 557 483 557 q 334 515 372 557 q 279 411 296 472 q 263 292 263 350 q 297 172 263 207 q 383 138 332 138 m 589 789 q 516 803 544 789 q 453 844 488 817 q 410 874 428 864 q 369 883 392 883 q 324 865 343 883 q 288 803 304 846 l 186 840 q 259 972 215 926 q 369 1017 303 1017 q 440 1003 411 1017 q 506 963 468 989 q 550 933 532 943 q 589 924 568 924 q 635 942 615 924 q 672 1003 656 960 l 774 965 q 701 835 749 882 q 589 789 653 789 z "},"ŕ":{"ha":574,"x_min":32,"x_max":693,"o":"m 328 493 q 412 648 354 585 q 561 711 469 711 q 613 706 588 711 l 575 492 q 504 500 551 500 q 389 468 431 500 q 307 292 331 421 l 256 0 l 32 0 l 156 694 l 364 694 l 328 493 m 483 1004 l 693 1004 l 463 788 l 292 788 l 483 1004 z "},"ř":{"ha":574,"x_min":32,"x_max":653,"o":"m 328 493 q 412 648 354 585 q 561 711 469 711 q 613 706 588 711 l 575 492 q 504 500 551 500 q 389 468 431 500 q 307 292 331 421 l 256 0 l 32 0 l 156 694 l 364 694 l 328 493 m 292 997 l 363 851 l 485 997 l 653 997 l 467 781 l 246 781 l 136 997 l 292 997 z "},"ŗ":{"ha":574,"x_min":18,"x_max":613,"o":"m 328 493 q 412 648 354 585 q 561 711 469 711 q 613 706 588 711 l 575 492 q 504 500 551 500 q 389 468 431 500 q 307 292 331 421 l 256 0 l 32 0 l 156 694 l 364 694 l 328 493 m 28 -262 q 86 -239 68 -253 q 108 -197 104 -225 l 18 -197 l 43 -56 l 228 -56 l 206 -179 q 53 -333 182 -308 l 28 -262 z "},"ś":{"ha":690,"x_min":-14,"x_max":739,"o":"m 321 -17 q 112 25 199 -17 q -14 146 25 67 l 126 250 q 212 169 153 197 q 343 142 271 142 q 440 206 440 142 q 424 243 440 231 q 365 263 407 256 l 276 281 q 126 351 174 300 q 79 476 79 401 q 113 594 79 542 q 215 679 146 647 q 388 711 285 711 q 569 678 486 711 q 701 579 653 644 l 567 468 q 486 535 542 511 q 368 560 431 560 q 278 501 278 560 q 294 465 278 478 q 349 443 310 451 l 446 424 q 593 355 550 401 q 636 226 636 308 q 560 53 636 122 q 321 -17 485 -17 m 529 1004 l 739 1004 l 508 788 l 338 788 l 529 1004 z "},"š":{"ha":690,"x_min":-14,"x_max":701,"o":"m 321 -17 q 112 25 199 -17 q -14 146 25 67 l 126 250 q 212 169 153 197 q 343 142 271 142 q 440 206 440 142 q 424 243 440 231 q 365 263 407 256 l 276 281 q 126 351 174 300 q 79 476 79 401 q 113 594 79 542 q 215 679 146 647 q 388 711 285 711 q 569 678 486 711 q 701 579 653 644 l 567 468 q 486 535 542 511 q 368 560 431 560 q 278 501 278 560 q 294 465 278 478 q 349 443 310 451 l 446 424 q 593 355 550 401 q 636 226 636 308 q 560 53 636 122 q 321 -17 485 -17 m 338 997 l 408 851 l 531 997 l 699 997 l 513 781 l 292 781 l 182 997 l 338 997 z "},"ş":{"ha":690,"x_min":-14,"x_max":701,"o":"m 446 424 q 593 355 550 401 q 636 226 636 308 q 565 56 636 125 q 338 -17 493 -12 l 301 -64 q 367 -43 326 -43 q 456 -67 425 -43 q 488 -139 488 -92 q 435 -258 488 -219 q 296 -296 383 -296 q 177 -272 222 -296 q 119 -206 132 -249 l 242 -176 q 296 -210 250 -210 q 338 -194 321 -210 q 354 -150 354 -179 q 342 -119 354 -131 q 308 -108 331 -108 q 260 -129 276 -108 l 179 -110 l 240 -11 q 83 40 149 0 q -14 146 18 81 l 126 250 q 212 169 153 197 q 343 142 271 142 q 440 206 440 142 q 424 243 440 231 q 365 263 407 256 l 276 281 q 126 351 174 300 q 79 476 79 401 q 113 594 79 542 q 215 679 146 647 q 388 711 285 711 q 569 678 486 711 q 701 579 653 644 l 567 468 q 486 535 542 511 q 368 560 431 560 q 278 501 278 560 q 294 465 278 478 q 349 443 310 451 l 446 424 z "},"ŝ":{"ha":690,"x_min":-14,"x_max":701,"o":"m 321 -17 q 112 25 199 -17 q -14 146 25 67 l 126 250 q 212 169 153 197 q 343 142 271 142 q 440 206 440 142 q 424 243 440 231 q 365 263 407 256 l 276 281 q 126 351 174 300 q 79 476 79 401 q 113 594 79 542 q 215 679 146 647 q 388 711 285 711 q 569 678 486 711 q 701 579 653 644 l 567 468 q 486 535 542 511 q 368 560 431 560 q 278 501 278 560 q 294 465 278 478 q 349 443 310 451 l 446 424 q 593 355 550 401 q 636 226 636 308 q 560 53 636 122 q 321 -17 485 -17 m 521 788 l 450 933 l 328 788 l 160 788 l 346 1004 l 567 1004 l 676 788 l 521 788 z "},"ș":{"ha":690,"x_min":-14,"x_max":701,"o":"m 321 -17 q 112 25 199 -17 q -14 146 25 67 l 126 250 q 212 169 153 197 q 343 142 271 142 q 440 206 440 142 q 424 243 440 231 q 365 263 407 256 l 276 281 q 126 351 174 300 q 79 476 79 401 q 113 594 79 542 q 215 679 146 647 q 388 711 285 711 q 569 678 486 711 q 701 579 653 644 l 567 468 q 486 535 542 511 q 368 560 431 560 q 278 501 278 560 q 294 465 278 478 q 349 443 310 451 l 446 424 q 593 355 550 401 q 636 226 636 308 q 560 53 636 122 q 321 -17 485 -17 m 185 -262 q 243 -239 225 -253 q 265 -197 261 -225 l 175 -197 l 200 -56 l 385 -56 l 363 -179 q 210 -333 339 -308 l 185 -262 z "},"ŧ":{"ha":553,"x_min":21,"x_max":578,"o":"m 386 546 l 367 436 l 514 436 l 493 319 l 346 319 l 339 279 q 336 249 336 257 q 425 171 336 171 q 486 176 454 171 l 456 3 q 393 -10 419 -7 q 326 -12 367 -12 q 110 193 110 -12 q 118 281 110 231 l 125 319 l 21 319 l 42 436 l 144 436 l 164 546 l 43 546 l 69 694 l 190 694 l 219 861 l 457 947 l 413 694 l 578 694 l 550 546 l 386 546 z "},"ť":{"ha":560,"x_min":43,"x_max":689,"o":"m 69 694 l 190 694 l 219 861 l 457 947 l 413 694 l 578 694 l 550 546 l 386 546 l 339 279 q 336 249 336 257 q 425 171 336 171 q 486 176 454 171 l 456 3 q 393 -10 419 -7 q 326 -12 367 -12 q 110 193 110 -12 q 118 281 110 231 l 164 546 l 43 546 l 69 694 m 493 790 q 549 810 531 797 q 571 844 567 822 l 481 844 l 504 986 l 689 986 l 667 863 q 619 771 657 807 q 515 724 582 735 l 493 790 z "},"ţ":{"ha":553,"x_min":43,"x_max":578,"o":"m 339 279 q 336 249 336 257 q 425 171 336 171 q 486 176 454 171 l 456 3 q 394 -10 421 -7 q 329 -12 368 -12 l 289 -64 q 354 -43 314 -43 q 444 -67 413 -43 q 475 -139 475 -92 q 423 -258 475 -219 q 283 -296 371 -296 q 165 -272 210 -296 q 107 -206 119 -249 l 229 -176 q 283 -210 238 -210 q 325 -194 308 -210 q 342 -150 342 -179 q 330 -119 342 -131 q 296 -108 318 -108 q 247 -129 264 -108 l 167 -110 l 235 -1 q 110 192 110 38 q 118 281 110 231 l 164 546 l 43 546 l 69 694 l 190 694 l 219 861 l 457 947 l 413 694 l 578 694 l 550 546 l 386 546 l 339 279 z "},"ț":{"ha":553,"x_min":43,"x_max":578,"o":"m 69 694 l 190 694 l 219 861 l 457 947 l 413 694 l 578 694 l 550 546 l 386 546 l 339 279 q 336 249 336 257 q 425 171 336 171 q 486 176 454 171 l 456 3 q 393 -10 419 -7 q 326 -12 367 -12 q 110 193 110 -12 q 118 281 110 231 l 164 546 l 43 546 l 69 694 m 172 -262 q 231 -239 213 -253 q 253 -197 249 -225 l 163 -197 l 188 -56 l 372 -56 l 350 -179 q 197 -333 326 -308 l 172 -262 z "},"þ":{"ha":858,"x_min":-8,"x_max":818,"o":"m 569 711 q 687 684 631 711 q 781 592 743 657 q 818 421 818 528 q 784 222 818 322 q 674 52 750 121 q 481 -17 599 -17 q 358 9 413 -17 q 278 88 304 35 l 215 -271 l -8 -271 l 39 0 l 217 1007 l 440 1007 l 369 607 q 455 683 404 656 q 569 711 506 711 m 419 138 q 517 182 479 138 q 572 289 556 226 q 588 408 588 351 q 555 524 588 492 q 476 557 522 557 q 378 515 419 557 q 325 406 338 472 l 313 342 q 306 281 306 307 q 334 178 306 218 q 419 138 363 138 z "},"ú":{"ha":839,"x_min":63,"x_max":807,"o":"m 268 -17 q 121 30 179 -17 q 63 192 63 76 q 72 293 63 228 l 143 694 l 365 694 l 299 313 q 292 251 292 274 q 383 154 292 154 q 476 201 449 154 q 519 338 504 249 l 582 694 l 806 694 l 682 0 l 469 0 l 493 129 q 407 21 461 58 q 268 -17 353 -17 m 597 1004 l 807 1004 l 576 788 l 406 788 l 597 1004 z "},"ŭ":{"ha":839,"x_min":63,"x_max":806,"o":"m 268 -17 q 121 30 179 -17 q 63 192 63 76 q 72 293 63 228 l 143 694 l 365 694 l 299 313 q 292 251 292 274 q 383 154 292 154 q 476 201 449 154 q 519 338 504 249 l 582 694 l 806 694 l 682 0 l 469 0 l 493 129 q 407 21 461 58 q 268 -17 353 -17 m 426 1004 q 518 892 418 892 q 629 1004 615 892 l 769 1004 q 681 830 749 879 q 511 781 614 781 q 346 826 406 781 q 286 969 286 872 q 288 1004 286 992 l 426 1004 z "},"û":{"ha":839,"x_min":63,"x_max":806,"o":"m 268 -17 q 121 30 179 -17 q 63 192 63 76 q 72 293 63 228 l 143 694 l 365 694 l 299 313 q 292 251 292 274 q 383 154 292 154 q 476 201 449 154 q 519 338 504 249 l 582 694 l 806 694 l 682 0 l 469 0 l 493 129 q 407 21 461 58 q 268 -17 353 -17 m 589 788 l 518 933 l 396 788 l 228 788 l 414 1004 l 635 1004 l 744 788 l 589 788 z "},"ü":{"ha":839,"x_min":63,"x_max":806,"o":"m 268 -17 q 121 30 179 -17 q 63 192 63 76 q 72 293 63 228 l 143 694 l 365 694 l 299 313 q 292 251 292 274 q 383 154 292 154 q 476 201 449 154 q 519 338 504 249 l 582 694 l 806 694 l 682 0 l 469 0 l 493 129 q 407 21 461 58 q 268 -17 353 -17 m 275 981 l 469 981 l 436 796 l 243 796 l 275 981 m 581 981 l 774 981 l 742 796 l 549 796 l 581 981 z "},"ù":{"ha":839,"x_min":63,"x_max":806,"o":"m 268 -17 q 121 30 179 -17 q 63 192 63 76 q 72 293 63 228 l 143 694 l 365 694 l 299 313 q 292 251 292 274 q 383 154 292 154 q 476 201 449 154 q 519 338 504 249 l 582 694 l 806 694 l 682 0 l 469 0 l 493 129 q 407 21 461 58 q 268 -17 353 -17 m 408 788 l 178 1004 l 388 1004 l 579 788 l 408 788 z "},"ű":{"ha":839,"x_min":63,"x_max":853,"o":"m 268 -17 q 121 30 179 -17 q 63 192 63 76 q 72 293 63 228 l 143 694 l 365 694 l 299 313 q 292 251 292 274 q 383 154 292 154 q 476 201 449 154 q 519 338 504 249 l 582 694 l 806 694 l 682 0 l 469 0 l 493 129 q 407 21 461 58 q 268 -17 353 -17 m 453 1004 l 614 1004 l 447 788 l 293 788 l 453 1004 m 692 1004 l 853 1004 l 686 788 l 532 788 l 692 1004 z "},"ū":{"ha":839,"x_min":63,"x_max":806,"o":"m 268 -17 q 121 30 179 -17 q 63 192 63 76 q 72 293 63 228 l 143 694 l 365 694 l 299 313 q 292 251 292 274 q 383 154 292 154 q 476 201 449 154 q 519 338 504 249 l 582 694 l 806 694 l 682 0 l 469 0 l 493 129 q 407 21 461 58 q 268 -17 353 -17 m 276 956 l 753 956 l 729 822 l 253 822 l 276 956 z "},"ų":{"ha":839,"x_min":63,"x_max":806,"o":"m 626 0 q 486 -69 525 -36 q 447 -135 447 -101 q 496 -182 447 -182 q 579 -125 547 -182 l 664 -174 q 587 -256 631 -229 q 483 -282 543 -282 q 356 -251 400 -282 q 313 -161 313 -221 q 351 -68 313 -107 q 469 0 389 -29 l 493 129 q 407 21 461 58 q 268 -17 353 -17 q 121 30 179 -17 q 63 192 63 76 q 72 293 63 228 l 143 694 l 365 694 l 299 313 q 292 251 292 274 q 383 154 292 154 q 476 201 449 154 q 519 338 504 249 l 582 694 l 806 694 l 682 0 l 626 0 z "},"ů":{"ha":839,"x_min":63,"x_max":806,"o":"m 268 -17 q 121 30 179 -17 q 63 192 63 76 q 72 293 63 228 l 143 694 l 365 694 l 299 313 q 292 251 292 274 q 383 154 292 154 q 476 201 449 154 q 519 338 504 249 l 582 694 l 806 694 l 682 0 l 469 0 l 493 129 q 407 21 461 58 q 268 -17 353 -17 m 489 761 q 365 802 411 761 q 318 911 318 843 q 372 1038 318 988 q 508 1088 426 1088 q 632 1046 585 1088 q 679 936 679 1004 q 625 810 679 860 q 489 761 571 761 m 489 850 q 549 873 525 850 q 572 936 572 896 q 555 981 572 964 q 508 997 538 997 q 449 974 472 997 q 425 911 425 951 q 442 867 425 883 q 489 850 460 850 z "},"ũ":{"ha":839,"x_min":63,"x_max":807,"o":"m 268 -17 q 121 30 179 -17 q 63 192 63 76 q 72 293 63 228 l 143 694 l 365 694 l 299 313 q 292 251 292 274 q 383 154 292 154 q 476 201 449 154 q 519 338 504 249 l 582 694 l 806 694 l 682 0 l 469 0 l 493 129 q 407 21 461 58 q 268 -17 353 -17 m 622 789 q 549 803 578 789 q 486 844 521 817 q 443 874 461 864 q 403 883 425 883 q 357 865 376 883 q 321 803 338 846 l 219 840 q 292 972 249 926 q 403 1017 336 1017 q 473 1003 444 1017 q 539 963 501 989 q 583 933 565 943 q 622 924 601 924 q 669 942 649 924 q 706 1003 689 960 l 807 965 q 734 835 782 882 q 622 789 686 789 z "},"ẃ":{"ha":1081,"x_min":82,"x_max":1119,"o":"m 82 694 l 288 694 l 299 268 q 297 201 299 224 l 300 201 q 322 268 307 228 l 499 694 l 692 694 l 718 268 q 719 236 719 258 q 718 201 719 213 l 721 201 q 742 268 725 218 l 903 694 l 1119 694 l 813 0 l 599 0 l 565 406 l 564 431 q 567 469 564 447 l 563 471 q 542 411 560 458 l 364 0 l 146 0 l 82 694 m 719 1004 l 929 1004 l 699 788 l 528 788 l 719 1004 z "},"ŵ":{"ha":1081,"x_min":82,"x_max":1119,"o":"m 82 694 l 288 694 l 299 268 q 297 201 299 224 l 300 201 q 322 268 307 228 l 499 694 l 692 694 l 718 268 q 719 236 719 258 q 718 201 719 213 l 721 201 q 742 268 725 218 l 903 694 l 1119 694 l 813 0 l 599 0 l 565 406 l 564 431 q 567 469 564 447 l 563 471 q 542 411 560 458 l 364 0 l 146 0 l 82 694 m 711 788 l 640 933 l 518 788 l 350 788 l 536 1004 l 757 1004 l 867 788 l 711 788 z "},"ẅ":{"ha":1081,"x_min":82,"x_max":1119,"o":"m 82 694 l 288 694 l 299 268 q 297 201 299 224 l 300 201 q 322 268 307 228 l 499 694 l 692 694 l 718 268 q 719 236 719 258 q 718 201 719 213 l 721 201 q 742 268 725 218 l 903 694 l 1119 694 l 813 0 l 599 0 l 565 406 l 564 431 q 567 469 564 447 l 563 471 q 542 411 560 458 l 364 0 l 146 0 l 82 694 m 396 981 l 590 981 l 557 796 l 364 796 l 396 981 m 701 981 l 894 981 l 863 796 l 669 796 l 701 981 z "},"ẁ":{"ha":1081,"x_min":82,"x_max":1119,"o":"m 82 694 l 288 694 l 299 268 q 297 201 299 224 l 300 201 q 322 268 307 228 l 499 694 l 692 694 l 718 268 q 719 236 719 258 q 718 201 719 213 l 721 201 q 742 268 725 218 l 903 694 l 1119 694 l 813 0 l 599 0 l 565 406 l 564 431 q 567 469 564 447 l 563 471 q 542 411 560 458 l 364 0 l 146 0 l 82 694 m 531 788 l 300 1004 l 510 1004 l 701 788 l 531 788 z "},"ý":{"ha":746,"x_min":-60,"x_max":801,"o":"m 75 -278 q -60 -261 1 -278 l -31 -100 q 72 -114 17 -114 q 192 -33 156 -114 l 208 4 l 67 694 l 300 694 l 347 272 q 351 221 351 243 q 350 192 351 201 l 354 192 q 382 272 363 229 l 569 694 l 801 694 l 415 -54 q 311 -201 365 -153 q 203 -264 257 -250 q 75 -278 150 -278 m 568 1004 l 778 1004 l 547 788 l 376 788 l 568 1004 z "},"ŷ":{"ha":746,"x_min":-60,"x_max":801,"o":"m 75 -278 q -60 -261 1 -278 l -31 -100 q 72 -114 17 -114 q 192 -33 156 -114 l 208 4 l 67 694 l 300 694 l 347 272 q 351 221 351 243 q 350 192 351 201 l 354 192 q 382 272 363 229 l 569 694 l 801 694 l 415 -54 q 311 -201 365 -153 q 203 -264 257 -250 q 75 -278 150 -278 m 560 788 l 489 933 l 367 788 l 199 788 l 385 1004 l 606 1004 l 715 788 l 560 788 z "},"ÿ":{"ha":746,"x_min":-60,"x_max":801,"o":"m 75 -278 q -60 -261 1 -278 l -31 -100 q 72 -114 17 -114 q 192 -33 156 -114 l 208 4 l 67 694 l 300 694 l 347 272 q 351 221 351 243 q 350 192 351 201 l 354 192 q 382 272 363 229 l 569 694 l 801 694 l 415 -54 q 311 -201 365 -153 q 203 -264 257 -250 q 75 -278 150 -278 m 244 981 l 439 981 l 406 796 l 213 796 l 244 981 m 550 981 l 743 981 l 711 796 l 518 796 l 550 981 z "},"ỳ":{"ha":746,"x_min":-60,"x_max":801,"o":"m 75 -278 q -60 -261 1 -278 l -31 -100 q 72 -114 17 -114 q 192 -33 156 -114 l 208 4 l 67 694 l 300 694 l 347 272 q 351 221 351 243 q 350 192 351 201 l 354 192 q 382 272 363 229 l 569 694 l 801 694 l 415 -54 q 311 -201 365 -153 q 203 -264 257 -250 q 75 -278 150 -278 m 379 788 l 149 1004 l 358 1004 l 550 788 l 379 788 z "},"ź":{"ha":669,"x_min":-31,"x_max":733,"o":"m 400 538 l 81 538 l 108 694 l 683 694 l 661 568 l 261 160 l 608 160 l 581 0 l -31 0 l -7 131 l 400 538 m 524 1004 l 733 1004 l 503 788 l 332 788 l 524 1004 z "},"ž":{"ha":669,"x_min":-31,"x_max":693,"o":"m 400 538 l 81 538 l 108 694 l 683 694 l 661 568 l 261 160 l 608 160 l 581 0 l -31 0 l -7 131 l 400 538 m 332 997 l 403 851 l 525 997 l 693 997 l 507 781 l 286 781 l 176 997 l 332 997 z "},"ż":{"ha":669,"x_min":-31,"x_max":683,"o":"m 400 538 l 81 538 l 108 694 l 683 694 l 661 568 l 261 160 l 608 160 l 581 0 l -31 0 l -7 131 l 400 538 m 338 997 l 569 997 l 533 794 l 301 794 l 338 997 z "},"ß":{"ha":882,"x_min":35,"x_max":847,"o":"m 457 -17 q 331 0 374 -17 l 357 154 q 394 145 371 149 q 436 142 418 142 q 560 188 515 142 q 604 321 604 233 q 560 431 604 393 q 446 468 517 468 l 408 468 l 435 619 l 474 619 q 588 658 553 619 q 622 758 622 696 q 594 834 622 808 q 519 860 567 860 q 433 828 467 860 q 385 714 399 797 l 257 0 l 35 0 l 157 675 q 281 933 189 856 q 526 1010 372 1010 q 847 771 847 1010 q 821 666 847 715 q 738 584 794 617 q 593 547 681 551 q 760 478 694 539 q 825 306 825 417 q 726 67 825 150 q 457 -17 628 -17 z "},"ð":{"ha":819,"x_min":44,"x_max":803,"o":"m 718 882 q 803 542 803 742 q 765 285 803 411 q 630 71 728 158 q 364 -17 532 -17 q 138 51 231 -17 q 44 294 44 119 q 78 488 44 393 q 188 647 111 583 q 385 711 264 711 q 578 597 532 711 l 581 597 q 504 814 572 713 l 356 767 l 344 828 l 464 865 q 381 946 435 901 l 585 1028 q 681 935 640 985 l 789 969 l 799 908 l 718 882 m 393 138 q 494 181 456 138 q 548 284 532 224 q 564 401 564 344 q 443 558 564 558 q 311 478 350 558 q 272 301 272 397 q 306 174 272 210 q 393 138 340 138 z "},"`":{"ha":833,"x_min":83,"x_max":485,"o":"m 314 788 l 83 1004 l 293 1004 l 485 788 l 314 788 z "},"´":{"ha":833,"x_min":68,"x_max":469,"o":"m 260 1004 l 469 1004 l 239 788 l 68 788 l 260 1004 z "},"ˆ":{"ha":833,"x_min":58,"x_max":575,"o":"m 419 788 l 349 933 l 226 788 l 58 788 l 244 1004 l 465 1004 l 575 788 l 419 788 z "},"˜":{"ha":833,"x_min":71,"x_max":658,"o":"m 474 789 q 401 803 429 789 q 338 844 372 817 q 294 874 313 864 q 254 883 276 883 q 208 865 228 883 q 172 803 189 846 l 71 840 q 144 972 100 926 q 254 1017 188 1017 q 324 1003 296 1017 q 390 963 353 989 q 435 933 417 943 q 474 924 453 924 q 520 942 500 924 q 557 1003 540 960 l 658 965 q 585 835 633 882 q 474 789 538 789 z "},"ˇ":{"ha":833,"x_min":174,"x_max":690,"o":"m 329 997 l 400 851 l 522 997 l 690 997 l 504 781 l 283 781 l 174 997 l 329 997 z "},"¨":{"ha":833,"x_min":69,"x_max":600,"o":"m 101 981 l 296 981 l 263 796 l 69 796 l 101 981 m 407 981 l 600 981 l 568 796 l 375 796 l 407 981 z "},"¯":{"ha":833,"x_min":69,"x_max":569,"o":"m 93 956 l 569 956 l 546 822 l 69 822 l 93 956 z "},"˘":{"ha":833,"x_min":69,"x_max":553,"o":"m 210 1004 q 301 892 201 892 q 413 1004 399 892 l 553 1004 q 465 830 532 879 q 294 781 397 781 q 129 826 189 781 q 69 969 69 872 q 71 1004 69 992 l 210 1004 z "},"˚":{"ha":833,"x_min":53,"x_max":414,"o":"m 224 761 q 99 802 146 761 q 53 911 53 843 q 107 1038 53 988 q 243 1088 161 1088 q 367 1046 319 1088 q 414 936 414 1004 q 360 810 414 860 q 224 761 306 761 m 224 850 q 283 873 260 850 q 307 936 307 896 q 290 981 307 964 q 243 997 272 997 q 183 974 207 997 q 160 911 160 951 q 177 867 160 883 q 224 850 194 850 z "},"˝":{"ha":833,"x_min":103,"x_max":663,"o":"m 263 1004 l 424 1004 l 257 788 l 103 788 l 263 1004 m 501 1004 l 663 1004 l 496 788 l 342 788 l 501 1004 z "},"˙":{"ha":833,"x_min":165,"x_max":433,"o":"m 201 997 l 433 997 l 397 794 l 165 794 l 201 997 z "},"¸":{"ha":833,"x_min":72,"x_max":440,"o":"m 311 10 l 254 -64 q 319 -43 279 -43 q 409 -67 378 -43 q 440 -139 440 -92 q 388 -258 440 -219 q 249 -296 336 -296 q 130 -272 175 -296 q 72 -206 85 -249 l 194 -176 q 249 -210 203 -210 q 290 -194 274 -210 q 307 -150 307 -179 q 295 -119 307 -131 q 261 -108 283 -108 q 213 -129 229 -108 l 132 -110 l 207 10 l 311 10 z "},"˛":{"ha":833,"x_min":69,"x_max":421,"o":"m 421 -174 q 344 -256 388 -229 q 240 -282 300 -282 q 113 -251 157 -282 q 69 -161 69 -221 q 108 -68 69 -107 q 226 0 146 -29 l 383 0 q 243 -69 282 -36 q 204 -135 204 -101 q 253 -182 204 -182 q 336 -125 304 -182 l 421 -174 z "},",":{"ha":396,"x_min":7,"x_max":296,"o":"m 7 -124 q 88 -87 56 -112 q 131 -11 119 -62 l 132 0 l 18 0 l 58 228 l 296 228 l 256 3 q 173 -152 236 -104 q 36 -215 110 -200 l 7 -124 z "},";":{"ha":404,"x_min":15,"x_max":376,"o":"m 338 467 l 100 467 l 140 694 l 376 694 l 338 467 m 15 -124 q 96 -87 64 -112 q 139 -11 128 -62 l 140 0 l 26 0 l 67 228 l 304 228 l 264 3 q 181 -152 244 -104 q 44 -215 118 -200 l 15 -124 z "},":":{"ha":396,"x_min":18,"x_max":376,"o":"m 338 467 l 100 467 l 140 694 l 376 694 l 338 467 m 256 0 l 18 0 l 58 228 l 294 228 l 256 0 z "},".":{"ha":396,"x_min":18,"x_max":294,"o":"m 256 0 l 18 0 l 58 228 l 294 228 l 256 0 z "},"…":{"ha":1181,"x_min":18,"x_max":1078,"o":"m 256 0 l 18 0 l 58 221 l 294 221 l 256 0 m 647 0 l 410 0 l 450 221 l 686 221 l 647 0 m 1039 0 l 801 0 l 842 221 l 1078 221 l 1039 0 z "},"-":{"ha":576,"x_min":51,"x_max":539,"o":"m 539 481 l 507 292 l 51 292 l 85 481 l 539 481 z "},"!":{"ha":458,"x_min":47,"x_max":472,"o":"m 219 1007 l 472 1007 l 314 322 l 136 322 l 219 1007 m 289 0 l 47 0 l 86 213 l 326 213 l 289 0 z "},"¡":{"ha":458,"x_min":6,"x_max":431,"o":"m 189 806 l 431 806 l 392 593 l 151 593 l 189 806 m 258 -201 l 6 -201 l 164 483 l 342 483 l 258 -201 z "},"?":{"ha":751,"x_min":86,"x_max":799,"o":"m 253 357 q 290 458 263 419 q 376 531 317 497 l 463 578 q 542 649 519 610 q 565 736 565 688 q 442 843 565 843 q 328 801 361 843 q 296 699 296 758 q 301 642 296 672 l 93 660 q 86 728 86 690 q 122 861 86 797 q 241 967 157 925 q 463 1010 325 1010 q 701 953 603 1010 q 799 763 799 897 q 753 610 799 671 q 615 493 707 549 l 546 450 q 488 399 504 425 q 465 332 472 374 l 460 297 l 243 297 l 253 357 m 218 213 l 457 213 l 421 0 l 182 0 l 218 213 z "},"¿":{"ha":751,"x_min":-28,"x_max":685,"o":"m 553 593 l 314 593 l 350 806 l 589 806 l 553 593 m 518 449 q 481 347 508 386 q 394 275 454 308 l 308 228 q 228 157 251 196 q 206 69 206 118 q 329 -37 206 -37 q 442 5 410 -37 q 475 107 475 47 q 469 164 475 133 l 678 146 q 685 78 685 115 q 649 -56 685 8 q 530 -162 614 -119 q 308 -204 446 -204 q 70 -148 168 -204 q -28 43 -28 -92 q 18 196 -28 135 q 156 313 64 257 l 225 356 q 283 406 267 381 q 306 474 299 432 l 311 508 l 528 508 l 518 449 z "},"‘":{"ha":396,"x_min":121,"x_max":408,"o":"m 408 932 q 329 896 361 921 q 286 819 297 871 l 283 808 l 399 808 l 358 581 l 121 581 l 161 806 q 381 1024 193 985 l 408 932 z "},"’":{"ha":396,"x_min":140,"x_max":429,"o":"m 140 635 q 221 671 189 646 q 264 747 253 696 l 265 758 l 151 758 l 192 986 l 429 986 l 389 761 q 306 606 369 654 q 169 543 243 558 l 140 635 z "},"“":{"ha":697,"x_min":121,"x_max":710,"o":"m 408 932 q 330 897 363 922 q 286 819 297 872 l 283 808 l 399 808 l 358 582 l 121 582 l 161 806 q 244 961 181 913 q 381 1024 308 1010 l 408 932 m 710 932 q 631 897 663 922 q 588 819 599 872 l 585 808 l 699 808 l 660 582 l 422 582 l 463 806 q 545 961 482 913 q 681 1024 608 1010 l 710 932 z "},"”":{"ha":697,"x_min":142,"x_max":731,"o":"m 142 635 q 221 672 189 646 q 264 749 253 697 l 267 758 l 151 758 l 192 986 l 429 986 l 389 763 q 306 607 369 656 q 169 544 242 558 l 142 635 m 442 635 q 522 672 489 646 q 565 749 554 697 l 567 758 l 453 758 l 493 986 l 731 986 l 690 763 q 607 607 671 656 q 471 544 543 558 l 442 635 z "},"‚":{"ha":396,"x_min":7,"x_max":296,"o":"m 7 -124 q 88 -87 56 -112 q 131 -11 119 -62 l 132 0 l 18 0 l 58 228 l 296 228 l 256 3 q 173 -152 236 -104 q 36 -215 110 -200 l 7 -124 z "},"„":{"ha":697,"x_min":8,"x_max":597,"o":"m 8 -124 q 88 -87 56 -112 q 131 -10 119 -61 l 133 0 l 18 0 l 58 228 l 296 228 l 256 4 q 172 -151 236 -103 q 36 -214 108 -200 l 8 -124 m 308 -124 q 388 -87 356 -112 q 432 -10 421 -61 l 433 0 l 319 0 l 360 228 l 597 228 l 557 4 q 474 -151 538 -103 q 338 -214 410 -200 l 308 -124 z "},"‹":{"ha":481,"x_min":31,"x_max":514,"o":"m 31 383 l 311 669 l 514 669 l 224 375 l 397 93 l 204 93 l 31 383 z "},"›":{"ha":481,"x_min":-21,"x_max":463,"o":"m 463 379 l 182 93 l -21 93 l 268 388 l 94 669 l 288 669 l 463 379 z "},"·":{"ha":396,"x_min":79,"x_max":356,"o":"m 317 353 l 79 353 l 119 581 l 356 581 l 317 353 z "},"/":{"ha":703,"x_min":-32,"x_max":769,"o":"m -32 -162 l 575 1056 l 769 1056 l 163 -162 l -32 -162 z "},"|":{"ha":340,"x_min":10,"x_max":364,"o":"m 225 1056 l 364 1056 l 149 -162 l 10 -162 l 225 1056 z "},"–":{"ha":864,"x_min":53,"x_max":824,"o":"m 824 465 l 796 307 l 53 307 l 81 465 l 824 465 z "},"—":{"ha":1190,"x_min":53,"x_max":1150,"o":"m 1150 465 l 1122 307 l 53 307 l 81 465 l 1150 465 z "},"•":{"ha":525,"x_min":104,"x_max":464,"o":"m 283 294 q 155 344 206 294 q 104 471 104 393 q 155 600 104 550 q 283 650 206 650 q 413 601 363 650 q 464 471 464 551 q 413 344 464 393 q 283 294 363 294 z "},"(":{"ha":504,"x_min":90,"x_max":610,"o":"m 243 -194 q 90 350 90 64 q 142 662 90 525 q 272 896 193 799 q 457 1086 350 993 l 610 986 q 443 803 508 888 q 338 609 378 718 q 299 360 299 500 q 325 138 299 249 q 417 -118 351 28 l 243 -194 z "},")":{"ha":504,"x_min":-69,"x_max":449,"o":"m 297 1086 q 449 542 449 828 q 398 229 449 365 q 269 -4 347 93 q 82 -194 190 -101 l -69 -94 q 97 88 32 4 q 201 282 161 172 q 240 532 240 392 q 214 753 240 643 q 122 1010 188 864 l 297 1086 z "},"[":{"ha":500,"x_min":14,"x_max":594,"o":"m 228 1051 l 594 1051 l 567 896 l 404 896 l 246 -3 l 408 -3 l 381 -158 l 14 -158 l 228 1051 z "},"]":{"ha":500,"x_min":-60,"x_max":519,"o":"m 306 -158 l -60 -158 l -32 -3 l 131 -3 l 289 896 l 126 896 l 154 1051 l 519 1051 l 306 -158 z "},"{":{"ha":532,"x_min":54,"x_max":625,"o":"m 354 -160 q 174 -119 242 -160 q 106 25 106 -78 q 111 85 106 56 l 142 249 q 147 303 147 276 q 126 363 147 343 q 54 383 106 382 l 81 531 q 152 545 126 532 q 191 585 178 558 q 213 660 204 611 l 244 844 q 321 997 261 935 q 519 1058 381 1058 l 625 1058 l 597 903 l 560 903 q 442 797 458 903 l 418 665 q 364 526 403 576 q 246 458 325 476 q 326 407 301 442 q 350 317 350 372 q 342 242 350 283 l 315 94 q 313 64 313 72 q 334 11 313 25 q 390 -3 356 -3 l 442 -3 l 414 -160 l 354 -160 z "},"}":{"ha":532,"x_min":-57,"x_max":514,"o":"m 214 1058 q 395 1018 328 1058 q 463 874 463 978 q 457 814 463 843 l 426 651 q 421 596 421 624 q 442 537 421 556 q 514 517 463 518 l 488 368 q 416 353 442 367 q 377 314 390 340 q 356 239 364 288 l 324 56 q 247 -98 307 -36 q 49 -160 188 -160 l -57 -160 l -29 -3 l 8 -3 q 126 101 110 -3 l 150 233 q 204 372 165 322 q 322 440 243 422 q 242 492 267 457 q 218 582 218 528 q 226 657 218 618 l 253 804 q 256 835 256 826 q 234 888 256 874 q 178 901 213 901 l 126 901 l 154 1058 l 214 1058 z "},"«":{"ha":801,"x_min":31,"x_max":835,"o":"m 31 383 l 311 669 l 514 669 l 224 375 l 397 93 l 204 93 l 31 383 m 351 383 l 632 669 l 835 669 l 544 375 l 718 93 l 525 93 l 351 383 z "},"»":{"ha":801,"x_min":-21,"x_max":783,"o":"m 463 379 l 182 93 l -21 93 l 268 388 l 94 669 l 288 669 l 463 379 m 783 379 l 503 93 l 300 93 l 590 388 l 417 669 l 608 669 l 783 379 z "},"*":{"ha":529,"x_min":79,"x_max":597,"o":"m 404 738 l 521 608 l 376 513 l 325 682 l 215 513 l 100 610 l 261 738 l 79 764 l 157 917 l 303 824 l 300 1007 l 461 1007 l 393 824 l 572 917 l 597 763 l 404 738 z "},"~":{"ha":861,"x_min":58,"x_max":822,"o":"m 581 279 q 491 296 526 279 q 413 343 456 313 q 355 378 379 367 q 300 390 331 390 q 178 293 215 390 l 58 324 q 155 473 90 419 q 300 526 219 526 q 388 510 353 526 q 467 463 424 493 q 525 426 501 438 q 581 414 549 414 q 703 511 663 414 l 822 482 q 725 333 790 386 q 581 279 660 279 z "},"¦":{"ha":339,"x_min":10,"x_max":364,"o":"m 271 535 l 133 535 l 225 1056 l 364 1056 l 271 535 m 149 -162 l 10 -162 l 104 367 l 242 367 l 149 -162 z "},"\\":{"ha":1133,"x_min":183,"x_max":985,"o":"m 183 1056 l 378 1056 l 985 -162 l 790 -162 l 183 1056 z "},"_":{"ha":651,"x_min":-106,"x_max":568,"o":"m 568 -124 l 546 -247 l -106 -247 l -83 -124 l 568 -124 z "},"'":{"ha":358,"x_min":144,"x_max":390,"o":"m 192 986 l 390 986 l 293 569 l 144 569 l 192 986 z "},"\"":{"ha":636,"x_min":144,"x_max":669,"o":"m 471 986 l 669 986 l 572 569 l 424 569 l 471 986 m 192 986 l 390 986 l 293 569 l 144 569 l 192 986 z "},"&":{"ha":981,"x_min":6,"x_max":943,"o":"m 788 182 q 867 161 821 161 q 932 167 904 161 l 903 6 q 794 -12 857 -12 q 632 46 701 -12 q 357 -24 514 -24 q 108 38 210 -24 q 6 253 6 100 q 254 544 6 442 q 186 753 186 653 q 218 883 186 821 q 319 984 250 944 q 494 1024 389 1024 q 694 973 607 1024 q 781 807 781 922 q 724 644 781 724 q 524 508 667 565 l 678 307 q 776 563 743 411 l 943 525 q 886 349 924 440 q 788 182 849 258 m 493 888 q 413 851 435 888 q 390 771 390 815 q 444 615 390 703 q 556 694 526 650 q 586 782 586 739 q 559 863 586 839 q 493 888 532 888 m 233 276 q 278 169 233 203 q 396 136 322 136 q 533 168 472 136 l 333 432 q 255 360 276 400 q 233 276 233 321 z "},"@":{"ha":1194,"x_min":50,"x_max":1164,"o":"m 581 -142 q 310 -87 431 -142 q 120 77 190 -33 q 50 349 50 188 q 112 624 50 494 q 307 835 174 754 q 642 917 440 917 q 905 869 788 917 q 1093 719 1022 822 q 1164 454 1164 615 q 1094 194 1164 299 q 882 90 1024 90 q 761 122 804 90 q 710 208 718 154 q 618 119 675 150 q 493 88 561 88 q 355 128 414 88 q 296 254 296 168 q 351 383 296 328 q 542 449 407 438 l 715 463 l 719 493 q 721 518 721 503 q 701 575 721 558 q 644 592 682 592 q 569 565 592 592 q 544 503 546 538 l 360 503 q 440 650 372 585 q 644 715 507 715 q 817 667 749 715 q 885 506 885 619 q 879 439 885 471 l 858 292 q 854 253 854 271 q 868 206 854 222 q 914 190 882 190 q 1022 267 989 190 q 1054 446 1054 343 q 936 740 1054 653 q 643 826 818 826 q 359 754 467 826 q 206 575 251 682 q 161 356 161 468 q 217 130 161 221 q 365 -5 272 39 q 572 -49 458 -49 q 701 -37 632 -49 q 826 -7 769 -26 l 851 -90 q 581 -142 728 -142 m 558 213 q 647 244 610 213 q 693 333 683 276 l 699 367 l 594 358 q 511 330 535 354 q 488 274 488 306 q 506 228 488 243 q 558 213 525 213 z "},"©":{"ha":1138,"x_min":68,"x_max":1122,"o":"m 575 -24 q 334 24 450 -24 q 143 178 218 72 q 68 446 68 283 q 123 710 68 581 q 301 924 178 839 q 614 1010 424 1010 q 855 962 739 1010 q 1047 808 971 914 q 1122 540 1122 703 q 1067 276 1122 406 q 888 62 1011 147 q 575 -24 765 -24 m 571 58 q 832 133 729 58 q 981 317 935 207 q 1026 538 1026 426 q 967 754 1026 667 q 815 885 908 842 q 618 928 721 928 q 357 853 460 928 q 208 669 254 779 q 161 449 161 560 q 220 232 161 319 q 373 101 279 144 q 571 58 467 58 m 565 199 q 380 258 458 199 q 301 457 301 317 q 331 615 301 539 q 431 740 361 690 q 610 790 500 790 q 789 740 718 790 q 865 589 860 689 l 708 556 q 606 667 704 667 q 497 606 532 667 q 461 467 461 544 q 492 357 461 390 q 569 324 522 324 q 648 355 618 324 q 688 439 678 386 l 833 403 q 742 254 811 310 q 565 199 674 199 z "},"®":{"ha":1138,"x_min":68,"x_max":1122,"o":"m 614 1010 q 855 962 739 1010 q 1047 808 971 914 q 1122 540 1122 703 q 1067 276 1122 406 q 888 62 1011 147 q 575 -24 765 -24 q 334 24 450 -24 q 143 178 218 72 q 68 446 68 283 q 123 710 68 581 q 301 924 178 839 q 614 1010 424 1010 m 571 58 q 832 133 729 58 q 981 317 935 207 q 1026 538 1026 426 q 967 754 1026 667 q 815 885 908 842 q 618 928 721 928 q 357 853 460 928 q 208 669 254 779 q 161 449 161 560 q 220 232 161 319 q 373 101 279 144 q 571 58 467 58 m 649 781 q 797 743 739 781 q 856 621 856 706 q 821 511 856 560 q 706 443 786 463 l 793 215 l 646 215 l 571 431 l 510 431 l 471 215 l 329 215 l 429 781 l 649 781 m 604 528 q 683 552 658 528 q 707 611 707 576 q 685 663 707 650 q 625 676 664 676 l 553 676 l 526 528 l 604 528 z "},"™":{"ha":1254,"x_min":99,"x_max":1288,"o":"m 269 872 l 99 872 l 119 986 l 606 986 l 585 872 l 407 872 l 326 422 l 190 422 l 269 872 m 665 986 l 857 986 l 899 649 q 900 613 900 636 q 897 561 900 592 l 901 561 q 932 649 911 606 l 1092 986 l 1288 986 l 1188 422 l 1064 422 l 1122 753 q 1147 875 1135 821 l 1144 875 q 1101 772 1132 836 l 935 422 l 819 422 l 776 772 q 769 875 769 851 l 767 875 q 747 753 763 839 l 689 422 l 565 422 l 665 986 z "},"¶":{"ha":990,"x_min":147,"x_max":986,"o":"m 428 483 q 303 503 367 483 q 193 574 239 522 q 147 714 147 625 q 229 918 147 836 q 525 1000 311 1000 l 986 1000 l 968 896 l 867 896 l 685 -137 l 567 -137 l 750 896 l 617 896 l 435 -137 l 318 -137 l 428 483 z "},"§":{"ha":689,"x_min":-58,"x_max":732,"o":"m 522 663 q 676 464 676 608 q 646 347 676 399 q 558 261 615 296 q 604 115 604 207 q 530 -56 604 14 q 271 -126 456 -126 q 67 -88 149 -126 q -58 35 -15 -50 l 85 140 q 161 53 107 82 q 283 25 215 25 q 369 45 343 25 q 396 97 396 65 q 377 137 396 121 q 310 172 358 153 l 171 224 q 62 301 100 251 q 24 419 24 350 q 61 534 24 486 q 169 608 99 582 q 111 751 111 665 q 184 921 111 849 q 425 993 257 993 q 603 962 519 993 q 732 861 686 931 l 592 751 q 524 824 569 800 q 422 847 479 847 q 342 827 365 847 q 318 778 318 807 q 335 738 318 754 q 393 706 351 722 l 522 663 m 214 468 q 236 417 214 436 q 319 372 258 397 l 453 328 l 458 326 q 496 399 496 354 q 475 450 496 431 q 397 494 454 469 l 265 549 q 214 468 214 522 z "},"^":{"ha":647,"x_min":76,"x_max":668,"o":"m 519 985 l 668 621 l 506 621 l 425 849 l 261 621 l 76 621 l 353 985 l 519 985 z "},"†":{"ha":686,"x_min":108,"x_max":678,"o":"m 654 564 l 460 564 l 336 -139 l 178 -139 l 301 564 l 108 564 l 132 694 l 325 694 l 379 1000 l 538 1000 l 483 694 l 678 694 l 654 564 z "},"‡":{"ha":686,"x_min":40,"x_max":678,"o":"m 460 564 l 414 303 l 608 303 l 586 172 l 392 172 l 336 -139 l 178 -139 l 233 172 l 40 172 l 63 303 l 256 303 l 301 564 l 108 564 l 132 694 l 325 694 l 379 1000 l 538 1000 l 483 694 l 678 694 l 654 564 l 460 564 z "},"∅":{"ha":757,"x_min":4,"x_max":779,"o":"m 678 629 q 728 451 728 557 q 690 276 728 357 q 572 144 651 194 q 379 93 493 93 q 160 157 246 93 l 57 64 l 4 124 l 104 215 q 56 390 56 283 q 94 566 56 485 q 211 698 132 647 q 404 749 290 749 q 521 733 464 749 q 622 685 578 718 l 728 782 l 779 721 l 678 629 m 228 400 q 239 338 228 367 l 492 567 q 400 590 454 590 q 272 533 315 590 q 228 400 228 475 m 556 442 q 543 507 556 478 l 290 276 q 383 251 331 251 q 512 309 468 251 q 556 442 556 367 z "},"Ω":{"ha":1047,"x_min":47,"x_max":1007,"o":"m 531 0 l 572 375 q 728 466 674 393 q 783 647 783 539 q 737 779 783 731 q 608 828 690 828 q 477 793 535 828 q 386 697 419 758 q 353 554 353 635 q 387 434 353 481 q 485 375 421 388 l 394 0 l 47 0 l 79 181 l 272 181 l 293 258 q 174 361 215 289 q 132 535 132 433 q 198 780 132 672 q 380 947 264 888 q 640 1007 496 1007 q 835 966 753 1007 q 963 849 918 925 q 1007 674 1007 774 q 931 417 1007 528 q 724 258 856 306 l 717 181 l 910 181 l 878 0 l 531 0 z "},"∆":{"ha":931,"x_min":-49,"x_max":856,"o":"m 457 986 l 701 986 l 856 0 l -49 0 l 457 986 m 243 165 l 615 165 l 538 761 l 243 165 z "},"µ":{"ha":850,"x_min":-14,"x_max":818,"o":"m 818 694 l 694 0 l 482 0 l 506 129 q 418 21 472 58 q 279 -17 364 -17 q 231 -12 256 -17 l 186 -271 l -14 -271 l 154 694 l 378 694 l 310 313 q 304 251 304 265 q 396 154 304 154 q 488 201 461 154 q 532 338 515 247 l 594 694 l 818 694 z "},"":{"ha":1414,"x_min":-33,"x_max":1499,"o":"m 721 921 l 710 856 l 1476 856 l 1464 789 l 697 789 l 686 724 l 1453 724 l 1440 657 l 674 657 l 663 592 l 1429 592 l 1418 526 l 651 526 l 639 460 l 1406 460 l 1394 394 l 36 394 l 140 986 l 1499 986 l 1488 921 l 721 921 m 215 939 l 193 939 l 190 960 l 181 939 l 158 939 l 175 926 l 164 906 l 183 918 l 199 906 l 196 926 l 215 939 m 279 939 l 296 926 l 285 906 l 304 919 l 319 906 l 317 926 l 335 939 l 314 939 l 311 960 l 301 939 l 279 939 m 400 939 l 417 926 l 406 906 l 425 919 l 440 906 l 438 926 l 456 939 l 435 939 l 432 960 l 422 939 l 400 939 m 521 939 l 538 926 l 526 906 l 546 919 l 561 906 l 558 926 l 576 939 l 556 939 l 553 960 l 542 939 l 521 939 m 697 939 l 676 939 l 674 960 l 663 939 l 642 939 l 657 926 l 647 906 l 667 919 l 682 906 l 679 926 l 697 939 m 208 878 l 224 865 l 214 846 l 233 858 l 247 846 l 246 865 l 264 878 l 243 878 l 240 899 l 229 878 l 208 878 m 626 878 l 604 878 l 603 899 l 592 878 l 571 878 l 586 865 l 575 846 l 596 858 l 610 846 l 607 865 l 626 878 m 431 635 l 561 635 l 581 746 l 450 746 l 472 876 l 361 876 l 339 746 l 210 746 l 190 635 l 319 635 l 296 506 l 407 506 l 431 635 m 194 818 l 172 818 l 168 838 l 160 818 l 138 818 l 153 806 l 143 785 l 161 797 l 178 785 l 174 806 l 194 818 m 258 818 l 274 806 l 264 785 l 282 797 l 299 785 l 294 806 l 314 818 l 293 818 l 289 838 l 281 818 l 258 818 m 500 818 l 515 806 l 506 785 l 524 797 l 540 785 l 536 806 l 556 818 l 535 818 l 531 838 l 521 818 l 500 818 m 676 818 l 656 818 l 651 838 l 642 818 l 621 818 l 635 806 l 626 785 l 644 797 l 661 785 l 657 806 l 676 818 m 174 697 l 151 697 l 147 717 l 139 697 l 117 697 l 132 683 l 121 664 l 140 676 l 156 664 l 153 683 l 174 697 m 656 697 l 635 697 l 631 717 l 621 697 l 600 697 l 614 683 l 604 664 l 624 676 l 639 664 l 636 683 l 656 697 m 151 575 l 129 575 l 126 596 l 117 575 l 94 575 l 110 563 l 100 543 l 119 556 l 135 543 l 131 563 l 151 575 m 271 575 l 250 575 l 247 596 l 238 575 l 215 575 l 231 563 l 221 543 l 240 556 l 256 543 l 251 563 l 271 575 m 513 575 l 492 575 l 489 596 l 478 575 l 457 575 l 472 563 l 463 543 l 482 556 l 497 543 l 493 563 l 513 575 m 633 575 l 613 575 l 610 596 l 599 575 l 578 575 l 592 563 l 583 543 l 603 556 l 618 543 l 614 563 l 633 575 m 182 503 l 200 515 l 179 515 l 176 535 l 165 515 l 144 515 l 160 503 l 150 482 l 169 494 l 183 482 l 182 503 m 543 503 l 563 515 l 540 515 l 539 535 l 528 515 l 507 515 l 522 503 l 511 482 l 532 494 l 546 482 l 543 503 m 110 442 l 131 454 l 108 454 l 104 475 l 96 454 l 74 454 l 89 442 l 78 421 l 97 433 l 113 421 l 110 442 m 231 442 l 250 454 l 229 454 l 225 475 l 217 454 l 194 454 l 210 442 l 199 421 l 218 433 l 233 421 l 231 442 m 351 442 l 371 454 l 350 454 l 346 475 l 338 454 l 315 454 l 331 442 l 319 421 l 339 433 l 354 421 l 351 442 m 472 442 l 492 454 l 471 454 l 467 475 l 457 454 l 436 454 l 451 442 l 440 421 l 460 433 l 475 421 l 472 442 m 593 442 l 613 454 l 592 454 l 588 475 l 578 454 l 557 454 l 571 442 l 561 421 l 581 433 l 596 421 l 593 442 m 25 329 l 1382 329 l 1369 263 l 13 263 l 25 329 m 1 197 l 1360 197 l 1349 132 l -10 132 l 1 197 m -22 65 l 1336 65 l 1325 0 l -33 0 l -22 65 z "},"ℓ":{"ha":774,"x_min":18,"x_max":826,"o":"m 826 782 q 386 288 826 474 q 385 261 385 278 q 415 177 385 201 q 518 153 446 153 q 615 163 571 153 l 588 0 q 428 -19 521 -19 q 217 35 286 -19 q 150 207 147 89 q 40 179 92 190 l 18 335 l 176 379 l 235 701 q 335 922 257 833 q 575 1010 414 1010 q 762 953 697 1010 q 826 782 826 896 m 417 474 q 562 597 515 526 q 608 771 608 668 q 597 840 608 819 q 556 861 585 861 q 469 767 486 861 l 417 474 z "},"℮":{"ha":1008,"x_min":58,"x_max":1010,"o":"m 461 -21 q 256 23 347 -21 q 112 158 165 67 q 58 385 58 249 q 140 713 58 575 q 352 922 221 851 q 632 993 483 993 q 910 897 810 993 q 1010 636 1010 800 q 1001 536 1010 589 l 992 481 l 325 481 l 268 151 q 481 85 343 85 q 681 126 594 85 q 849 258 768 167 l 914 199 q 461 -21 736 -21 m 761 574 l 807 835 q 608 899 740 899 q 497 882 556 899 q 388 829 439 865 l 342 574 l 761 574 z "},"$":{"ha":850,"x_min":-26,"x_max":871,"o":"m 571 571 q 807 300 807 514 q 767 142 807 215 q 636 24 726 69 q 404 -21 546 -21 l 396 -21 l 374 -149 l 283 -149 l 307 -15 q 97 58 183 1 q -26 208 10 115 l 147 310 q 336 147 196 171 l 383 421 l 361 425 q 174 517 244 451 q 104 697 104 583 q 141 839 104 774 q 263 945 178 904 q 483 986 349 986 l 506 1111 l 596 1111 l 572 981 q 753 921 676 968 q 871 793 829 874 l 708 686 q 544 821 654 794 l 503 588 l 571 571 m 304 719 q 331 653 304 678 q 417 610 357 628 l 456 829 q 341 797 378 828 q 304 719 304 767 m 425 142 q 600 272 600 149 q 567 356 600 326 q 471 401 535 386 l 425 142 z "},"¢":{"ha":786,"x_min":40,"x_max":768,"o":"m 411 129 q 506 170 472 133 q 554 272 540 207 l 731 233 q 615 51 703 119 q 386 -17 526 -17 l 364 -140 l 282 -140 l 306 -11 q 115 81 190 8 q 40 299 40 154 q 80 492 40 399 q 208 647 119 585 q 432 711 296 708 l 453 825 l 535 825 l 514 707 q 692 633 624 693 q 768 461 761 572 l 582 429 q 489 568 578 542 l 411 129 m 231 314 q 258 194 231 236 q 331 138 286 151 l 408 572 q 273 485 315 561 q 231 314 231 410 z "},"£":{"ha":911,"x_min":-31,"x_max":907,"o":"m 561 154 q 649 188 621 154 q 688 274 676 221 l 883 242 q 791 59 865 139 q 578 -21 717 -21 q 510 -17 539 -21 q 436 -4 481 -12 q 345 10 388 6 q 242 15 303 15 q -8 -11 138 15 l -31 117 q 147 219 86 146 q 208 431 208 293 l 208 443 l 71 443 l 90 549 l 208 549 l 208 599 q 291 874 208 761 q 567 986 374 986 q 813 923 726 986 q 907 738 899 860 l 689 692 q 655 793 685 763 q 565 824 625 824 q 470 792 501 824 q 431 714 439 760 q 422 600 422 668 l 422 549 l 667 549 l 647 443 l 422 443 q 240 161 417 228 q 367 174 303 174 q 479 163 418 174 q 561 154 532 154 z "},"ƒ":{"ha":640,"x_min":-10,"x_max":736,"o":"m 633 986 q 736 972 683 986 l 707 806 q 636 817 669 817 q 541 782 571 817 q 490 679 511 747 l 464 594 l 611 594 l 585 447 l 418 447 l 215 -208 l -10 -208 l 194 447 l 51 447 l 78 594 l 239 594 l 260 660 q 330 836 293 769 q 439 944 367 903 q 633 986 511 986 z "},"¥":{"ha":839,"x_min":46,"x_max":951,"o":"m 558 440 l 778 440 l 761 344 l 529 344 l 515 269 l 749 269 l 731 174 l 499 174 l 468 0 l 247 0 l 278 174 l 46 174 l 63 269 l 294 269 l 308 344 l 76 344 l 93 440 l 313 440 l 104 965 l 343 965 l 419 729 q 451 583 446 647 l 456 583 q 540 729 483 643 l 700 965 l 951 965 l 558 440 z "},"€":{"ha":946,"x_min":8,"x_max":989,"o":"m 507 154 q 637 192 593 154 q 710 288 681 229 l 907 231 q 824 110 869 163 q 697 18 778 57 q 496 -21 615 -21 q 223 61 343 -21 q 85 350 103 143 l 8 350 l 25 443 l 82 443 q 90 526 85 485 l 40 526 l 56 618 l 111 618 q 278 883 157 779 q 600 986 399 986 q 851 933 736 986 q 989 744 965 881 l 774 686 q 709 787 756 761 q 601 813 663 813 q 436 759 499 813 q 342 618 374 706 l 686 618 l 671 526 l 319 526 q 311 443 314 497 l 656 443 l 639 350 l 315 350 q 507 154 342 154 z "},"¤":{"ha":842,"x_min":44,"x_max":824,"o":"m 729 606 q 765 451 765 540 q 746 324 765 386 q 689 214 726 263 l 761 119 l 644 25 l 569 122 q 417 93 497 93 q 221 142 304 93 l 128 60 l 44 154 l 131 232 q 93 390 93 299 q 114 522 93 458 q 175 635 135 586 l 107 725 l 224 819 l 299 724 q 442 749 364 749 q 642 697 560 749 l 740 785 l 824 690 l 729 606 m 265 400 q 310 289 265 326 q 421 251 356 251 q 549 309 506 251 q 593 442 593 367 q 548 553 593 515 q 438 590 503 590 q 309 533 353 590 q 265 400 265 475 z "},"ﬁ":{"ha":958,"x_min":58,"x_max":985,"o":"m 553 546 l 393 546 l 296 0 l 74 0 l 171 546 l 58 546 l 85 694 l 197 694 l 208 765 q 295 948 228 881 q 483 1015 363 1015 q 560 1010 528 1015 q 633 993 593 1006 l 604 836 q 528 850 568 850 q 459 826 481 850 q 431 760 438 801 l 419 694 l 579 694 l 553 546 m 704 694 l 925 694 l 797 0 l 576 0 l 704 694 m 753 997 l 985 997 l 949 794 l 717 794 l 753 997 z "},"ﬂ":{"ha":969,"x_min":58,"x_max":985,"o":"m 553 546 l 393 546 l 296 0 l 74 0 l 171 546 l 58 546 l 85 694 l 197 694 l 208 765 q 295 948 228 881 q 483 1015 363 1015 q 560 1010 528 1015 q 633 993 593 1006 l 604 836 q 528 850 568 850 q 459 826 481 850 q 431 760 438 801 l 419 694 l 579 694 l 553 546 m 807 0 l 583 0 l 761 1007 l 985 1007 l 807 0 z "},"⁄":{"ha":293,"x_min":-301,"x_max":644,"o":"m 497 1010 l 644 1010 l -151 -24 l -301 -24 l 497 1010 z "},"¼":{"ha":1133,"x_min":79,"x_max":1085,"o":"m 878 1010 l 1025 1010 l 229 -24 l 79 -24 l 878 1010 m 983 115 l 963 0 l 826 0 l 847 115 l 589 115 l 604 208 l 914 543 l 1058 543 l 999 217 l 1085 217 l 1069 115 l 983 115 m 732 217 l 868 217 l 917 429 l 732 217 z "},"½":{"ha":1186,"x_min":79,"x_max":1144,"o":"m 878 1010 l 1025 1010 l 229 -24 l 79 -24 l 878 1010 m 668 103 q 844 192 776 153 q 953 276 911 231 q 994 376 994 322 q 929 443 994 443 q 872 421 892 443 q 853 363 853 399 q 857 331 853 347 l 718 344 q 717 369 717 353 q 776 507 717 458 q 939 556 835 556 q 1085 519 1025 556 q 1144 396 1144 482 q 1068 236 1144 307 q 878 113 992 165 l 1096 113 l 1076 0 l 650 0 l 668 103 z "},"¾":{"ha":1278,"x_min":76,"x_max":1229,"o":"m 1022 1010 l 1169 1010 l 374 -24 l 224 -24 l 1022 1010 m 1128 115 l 1107 0 l 971 0 l 992 115 l 733 115 l 749 208 l 1058 543 l 1203 543 l 1143 217 l 1229 217 l 1214 115 l 1128 115 m 876 217 l 1013 217 l 1061 429 l 876 217 z "},"⅓":{"ha":1199,"x_min":79,"x_max":1150,"o":"m 878 1010 l 1025 1010 l 229 -24 l 79 -24 l 878 1010 m 903 -12 q 744 29 811 -12 q 672 165 676 71 l 814 179 q 899 97 824 97 q 959 116 942 97 q 976 163 976 135 q 950 215 976 203 q 888 226 924 226 l 864 226 l 881 324 l 921 324 q 1003 392 1003 324 q 935 447 1003 447 q 872 424 892 447 q 850 357 853 400 l 717 379 q 782 509 724 463 q 942 556 840 556 q 1085 525 1021 556 q 1150 415 1150 494 q 1111 321 1150 358 q 1011 275 1072 283 q 1121 156 1121 250 q 1098 74 1121 113 q 1026 12 1075 36 q 903 -12 976 -12 z "},"⅔":{"ha":1329,"x_min":54,"x_max":1281,"o":"m 1010 1010 l 1157 1010 l 361 -24 l 211 -24 l 1010 1010 m 1033 -12 q 874 29 942 -12 q 803 165 807 71 l 944 179 q 1029 97 954 97 q 1090 116 1072 97 q 1107 163 1107 135 q 1081 215 1107 203 q 1018 226 1054 226 l 994 226 l 1011 324 l 1051 324 q 1133 392 1133 324 q 1065 447 1133 447 q 1003 424 1022 447 q 981 357 983 400 l 847 379 q 913 509 854 463 q 1072 556 971 556 q 1216 525 1151 556 q 1281 415 1281 494 q 1242 321 1281 358 q 1142 275 1203 283 q 1251 156 1251 250 q 1228 74 1251 113 q 1156 12 1206 36 q 1033 -12 1107 -12 z "},"⅛":{"ha":1221,"x_min":79,"x_max":1169,"o":"m 878 1010 l 1025 1010 l 229 -24 l 79 -24 l 878 1010 m 1058 299 q 1151 164 1151 256 q 1088 37 1151 86 q 913 -12 1025 -12 q 742 29 808 -12 q 675 146 675 71 q 708 229 675 196 q 810 275 742 263 q 738 393 738 319 q 792 508 738 461 q 953 556 846 556 q 1106 520 1043 556 q 1169 415 1169 485 q 1058 299 1169 325 m 951 460 q 875 400 875 460 q 946 335 875 354 l 985 324 q 1032 392 1032 344 q 1009 444 1032 428 q 951 460 986 460 m 918 90 q 986 110 965 90 q 1007 158 1007 131 q 939 229 1007 208 l 882 247 q 821 164 821 222 q 849 108 821 125 q 918 90 876 90 z "},"⅜":{"ha":1365,"x_min":76,"x_max":1314,"o":"m 1022 1010 l 1169 1010 l 374 -24 l 224 -24 l 1022 1010 m 1203 299 q 1296 164 1296 256 q 1233 37 1296 86 q 1057 -12 1169 -12 q 886 29 953 -12 q 819 146 819 71 q 853 229 819 196 q 954 275 886 263 q 882 393 882 319 q 936 508 882 461 q 1097 556 990 556 q 1251 520 1188 556 q 1314 415 1314 485 q 1203 299 1314 325 m 1096 460 q 1019 400 1019 460 q 1090 335 1019 354 l 1129 324 q 1176 392 1176 344 q 1153 444 1176 428 q 1096 460 1131 460 m 1063 90 q 1131 110 1110 90 q 1151 158 1151 131 q 1083 229 1151 208 l 1026 247 q 965 164 965 222 q 993 108 965 125 q 1063 90 1021 90 z "},"⅝":{"ha":1361,"x_min":81,"x_max":1308,"o":"m 1018 1010 l 1165 1010 l 369 -24 l 219 -24 l 1018 1010 m 1197 299 q 1290 164 1290 256 q 1227 37 1290 86 q 1051 -12 1164 -12 q 881 29 947 -12 q 814 146 814 71 q 847 229 814 196 q 949 275 881 263 q 876 393 876 319 q 931 508 876 461 q 1092 556 985 556 q 1245 520 1182 556 q 1308 415 1308 485 q 1197 299 1308 325 m 1090 460 q 1014 400 1014 460 q 1085 335 1014 354 l 1124 324 q 1171 392 1171 344 q 1148 444 1171 428 q 1090 460 1125 460 m 1057 90 q 1125 110 1104 90 q 1146 158 1146 131 q 1078 229 1146 208 l 1021 247 q 960 164 960 222 q 988 108 960 125 q 1057 90 1015 90 z "},"⅞":{"ha":1225,"x_min":83,"x_max":1174,"o":"m 882 1010 l 1029 1010 l 233 -24 l 83 -24 l 882 1010 m 1063 299 q 1156 164 1156 256 q 1092 37 1156 86 q 917 -12 1029 -12 q 746 29 813 -12 q 679 146 679 71 q 713 229 679 196 q 814 275 746 263 q 742 393 742 319 q 796 508 742 461 q 957 556 850 556 q 1110 520 1047 556 q 1174 415 1174 485 q 1063 299 1174 325 m 956 460 q 879 400 879 460 q 950 335 879 354 l 989 324 q 1036 392 1036 344 q 1013 444 1036 428 q 956 460 990 460 m 922 90 q 990 110 969 90 q 1011 158 1011 131 q 943 229 1011 208 l 886 247 q 825 164 825 222 q 853 108 825 125 q 922 90 881 90 z "},"%":{"ha":1285,"x_min":81,"x_max":1253,"o":"m 1011 1004 l 1156 1004 l 328 -19 l 181 -19 l 1011 1004 m 339 468 q 156 522 232 468 q 81 696 81 576 q 113 838 81 769 q 213 952 144 907 q 382 997 281 997 q 564 943 489 997 q 639 769 639 889 q 608 627 639 696 q 508 513 576 558 q 339 468 440 468 m 339 594 q 444 648 411 594 q 476 765 476 701 q 381 871 476 871 q 276 817 310 871 q 243 700 243 764 q 339 594 243 594 m 953 -24 q 771 31 846 -24 q 696 204 696 85 q 727 346 696 278 q 826 459 758 414 q 996 504 894 504 q 1178 451 1103 504 q 1253 278 1253 397 q 1222 135 1253 204 q 1122 22 1190 67 q 953 -24 1054 -24 m 954 101 q 1058 156 1025 101 q 1092 272 1092 210 q 1063 356 1092 332 q 994 379 1035 379 q 890 326 924 379 q 857 208 857 272 q 885 125 857 149 q 954 101 914 101 z "},"‰":{"ha":1876,"x_min":81,"x_max":1844,"o":"m 1011 1004 l 1156 1004 l 328 -19 l 181 -19 l 1011 1004 m 339 468 q 156 522 232 468 q 81 696 81 576 q 113 838 81 769 q 213 952 144 907 q 382 997 281 997 q 564 943 489 997 q 639 769 639 889 q 608 627 639 696 q 508 513 576 558 q 339 468 440 468 m 339 594 q 444 648 411 594 q 476 765 476 701 q 381 871 476 871 q 276 817 310 871 q 243 700 243 764 q 339 594 243 594 m 953 -24 q 771 31 846 -24 q 696 204 696 85 q 727 346 696 278 q 826 459 758 414 q 996 504 894 504 q 1178 451 1103 504 q 1253 278 1253 397 q 1222 135 1253 204 q 1122 22 1190 67 q 953 -24 1054 -24 m 1543 -24 q 1361 31 1436 -24 q 1286 204 1286 85 q 1317 346 1286 278 q 1417 459 1349 414 q 1586 504 1485 504 q 1769 451 1693 504 q 1844 278 1844 397 q 1813 135 1844 204 q 1713 22 1781 67 q 1543 -24 1644 -24 m 954 101 q 1058 156 1025 101 q 1092 272 1092 210 q 1063 356 1092 332 q 994 379 1035 379 q 890 326 924 379 q 857 208 857 272 q 885 125 857 149 q 954 101 914 101 m 1544 101 q 1649 156 1615 101 q 1682 272 1682 210 q 1654 356 1682 332 q 1586 379 1626 379 q 1481 326 1514 379 q 1449 208 1449 272 q 1476 125 1449 149 q 1544 101 1504 101 z "},"μ":{"ha":850,"x_min":-14,"x_max":818,"o":"m 818 694 l 694 0 l 482 0 l 506 129 q 418 21 472 58 q 279 -17 364 -17 q 231 -12 256 -17 l 186 -271 l -14 -271 l 154 694 l 378 694 l 310 313 q 304 251 304 265 q 396 154 304 154 q 488 201 461 154 q 532 338 515 247 l 594 694 l 818 694 z "},"#":{"ha":889,"x_min":25,"x_max":904,"o":"m 726 569 l 694 396 l 857 396 l 857 244 l 667 244 l 621 0 l 450 0 l 496 244 l 338 244 l 292 0 l 122 0 l 168 244 l 25 244 l 25 396 l 196 396 l 228 569 l 81 569 l 81 721 l 257 721 l 301 961 l 471 961 l 426 721 l 585 721 l 629 961 l 800 961 l 756 721 l 904 721 l 904 569 l 726 569 m 556 569 l 397 569 l 365 396 l 524 396 l 556 569 z "},"№":{"ha":1783,"x_min":42,"x_max":1774,"o":"m 215 986 l 472 986 l 686 422 q 728 296 715 349 l 732 296 q 739 340 738 322 l 754 421 l 854 986 l 1068 986 l 894 0 l 649 0 l 424 569 q 382 690 392 649 l 378 690 l 356 560 l 257 0 l 42 0 l 215 986 m 1401 242 q 1176 311 1269 242 q 1083 532 1083 381 q 1122 714 1083 626 q 1245 859 1161 801 q 1456 917 1329 917 q 1681 847 1588 917 q 1774 626 1774 778 q 1735 444 1774 532 q 1612 299 1696 356 q 1401 242 1528 242 m 1403 394 q 1533 465 1493 394 q 1574 622 1574 536 q 1540 733 1574 701 q 1454 764 1506 764 q 1324 693 1365 764 q 1283 538 1283 622 q 1317 426 1283 457 q 1403 394 1351 394 m 1015 146 l 1693 146 l 1667 0 l 990 0 l 1015 146 z "},"Δ":{"ha":931,"x_min":-49,"x_max":856,"o":"m 457 986 l 701 986 l 856 0 l -49 0 l 457 986 m 243 165 l 615 165 l 538 761 l 243 165 z "},"Ω":{"ha":1047,"x_min":47,"x_max":1007,"o":"m 531 0 l 572 375 q 728 466 674 393 q 783 647 783 539 q 737 779 783 731 q 608 828 690 828 q 477 793 535 828 q 386 697 419 758 q 353 554 353 635 q 387 434 353 481 q 485 375 421 388 l 394 0 l 47 0 l 79 181 l 272 181 l 293 258 q 174 361 215 289 q 132 535 132 433 q 198 780 132 672 q 380 947 264 888 q 640 1007 496 1007 q 835 966 753 1007 q 963 849 918 925 q 1007 674 1007 774 q 931 417 1007 528 q 724 258 856 306 l 717 181 l 910 181 l 878 0 l 531 0 z "},"π":{"ha":1008,"x_min":128,"x_max":976,"o":"m 854 8 q 740 -8 788 -8 q 601 28 646 -8 q 556 142 556 65 q 563 207 556 168 l 622 546 l 457 546 l 361 0 l 142 0 l 239 546 l 128 546 l 153 694 l 976 694 l 950 546 l 840 546 l 783 219 q 782 199 782 213 q 836 151 782 151 q 881 156 851 151 l 854 8 z "},"+":{"ha":781,"x_min":67,"x_max":753,"o":"m 726 385 l 476 385 l 429 121 l 271 121 l 317 385 l 67 385 l 93 529 l 343 529 l 386 778 l 546 778 l 501 529 l 753 529 l 726 385 z "},"−":{"ha":781,"x_min":67,"x_max":753,"o":"m 93 531 l 753 531 l 725 382 l 67 382 l 93 531 z "},"±":{"ha":957,"x_min":85,"x_max":843,"o":"m 843 540 l 818 396 l 565 396 l 529 194 l 369 194 l 406 396 l 154 396 l 181 540 l 431 540 l 468 754 l 628 754 l 590 540 l 843 540 m 111 147 l 774 147 l 749 0 l 85 0 l 111 147 z "},"×":{"ha":947,"x_min":90,"x_max":893,"o":"m 604 454 l 806 210 l 674 96 l 472 342 l 183 97 l 90 208 l 379 454 l 178 700 l 308 811 l 511 567 l 799 811 l 893 700 l 604 454 z "},"÷":{"ha":781,"x_min":67,"x_max":751,"o":"m 443 614 q 374 640 401 614 q 347 708 347 667 q 374 777 347 750 q 443 804 401 804 q 511 778 485 804 q 538 708 538 751 q 510 640 538 667 q 443 614 483 614 m 93 528 l 751 528 l 725 382 l 67 382 l 93 528 m 364 111 q 297 138 324 111 q 269 206 269 164 q 296 275 269 249 q 364 301 322 301 q 433 276 406 301 q 460 206 460 250 q 433 138 460 164 q 364 111 406 111 z "},"=":{"ha":781,"x_min":43,"x_max":776,"o":"m 117 664 l 776 664 l 749 517 l 90 517 l 117 664 m 69 397 l 729 397 l 701 250 l 43 250 l 69 397 z "},"<":{"ha":936,"x_min":200,"x_max":932,"o":"m 200 376 l 228 529 l 932 804 l 903 629 l 403 444 l 838 260 l 808 101 l 200 376 z "},">":{"ha":936,"x_min":42,"x_max":774,"o":"m 774 529 l 747 376 l 42 101 l 71 276 l 572 461 l 136 646 l 165 804 l 774 529 z "},"°":{"ha":588,"x_min":92,"x_max":633,"o":"m 344 478 q 164 538 236 478 q 92 706 92 599 q 124 842 92 775 q 221 953 156 910 q 379 996 286 996 q 506 970 447 996 q 599 893 564 944 q 633 769 633 842 q 601 633 633 700 q 504 522 569 565 q 344 478 439 478 m 346 599 q 460 649 419 599 q 500 763 500 699 q 465 848 500 819 q 379 876 431 876 q 265 826 306 876 q 225 713 225 776 q 259 626 225 654 q 346 599 293 599 z "},"≈":{"ha":929,"x_min":165,"x_max":910,"o":"m 703 479 q 627 491 664 479 q 536 525 590 503 q 458 556 492 546 q 394 567 425 567 q 299 549 349 567 q 213 501 249 531 l 240 657 q 324 701 272 683 q 422 718 376 718 q 507 706 468 718 q 597 669 546 693 q 672 640 643 650 q 731 631 700 631 q 826 649 776 631 q 910 694 876 667 l 882 539 q 801 496 851 513 q 703 479 751 479 m 657 210 q 582 221 618 210 q 489 256 546 232 q 411 287 444 276 q 347 297 378 297 q 251 279 301 297 q 165 233 201 261 l 193 389 q 278 432 226 415 q 375 449 329 449 q 460 436 421 449 q 550 400 499 424 q 626 370 600 379 q 683 361 653 361 q 779 380 729 361 q 863 426 829 399 l 835 271 q 755 227 806 244 q 657 210 704 210 z "},"≥":{"ha":938,"x_min":82,"x_max":844,"o":"m 844 614 l 817 463 l 113 186 l 142 363 l 642 546 l 206 731 l 236 890 l 844 614 m 760 143 l 735 0 l 82 0 l 107 143 l 760 143 z "},"∞":{"ha":869,"x_min":56,"x_max":853,"o":"m 679 682 q 806 631 758 682 q 853 492 853 579 q 831 375 853 435 q 755 272 808 315 q 617 229 701 229 q 433 340 488 229 q 340 258 389 286 q 228 229 292 229 q 102 281 149 229 q 56 418 56 332 q 80 536 56 475 q 158 640 104 597 q 293 682 211 682 q 474 571 419 682 q 566 653 517 624 q 679 682 615 682 m 265 361 q 327 383 300 361 q 388 453 354 406 q 351 526 371 501 q 296 550 332 550 q 228 519 256 550 q 200 438 200 489 q 217 381 200 400 q 265 361 235 361 m 611 361 q 680 392 653 361 q 707 474 707 424 q 690 531 707 513 q 642 550 672 550 q 580 528 607 550 q 518 458 553 506 q 554 386 533 411 q 611 361 575 361 z "},"≤":{"ha":938,"x_min":78,"x_max":892,"o":"m 160 463 l 186 614 l 892 890 l 863 714 l 361 529 l 797 346 l 768 186 l 160 463 m 756 143 l 731 0 l 78 0 l 103 143 l 756 143 z "},"¬":{"ha":925,"x_min":142,"x_max":825,"o":"m 825 536 l 761 169 l 611 169 l 650 392 l 142 392 l 167 536 l 825 536 z "},"≠":{"ha":935,"x_min":119,"x_max":853,"o":"m 579 517 l 511 397 l 806 397 l 779 250 l 428 250 l 336 88 l 222 88 l 314 250 l 119 250 l 147 397 l 397 397 l 465 517 l 167 517 l 194 664 l 549 664 l 638 821 l 751 821 l 663 664 l 853 664 l 826 517 l 579 517 z "},"∫":{"ha":717,"x_min":-21,"x_max":761,"o":"m 65 -160 q -21 -153 31 -160 l 7 3 q 35 0 18 1 q 72 -1 51 -1 q 170 32 138 -1 q 217 142 203 65 l 318 708 q 430 918 342 843 q 664 993 518 993 q 761 986 715 993 l 733 828 q 665 833 706 833 q 569 799 603 833 q 522 690 535 764 l 422 121 q 308 -87 399 -14 q 65 -160 217 -160 z "},"∂":{"ha":917,"x_min":54,"x_max":883,"o":"m 524 1001 q 792 897 701 1001 q 883 583 883 793 q 822 270 883 408 q 646 54 761 132 q 374 -24 531 -24 q 138 51 222 -24 q 54 261 54 125 q 104 454 54 368 q 244 590 154 540 q 446 639 333 639 q 665 563 589 639 l 665 572 q 626 756 665 694 q 478 817 586 817 q 294 771 390 817 l 242 932 q 524 1001 375 1001 m 417 138 q 562 208 503 138 q 647 396 621 278 q 578 460 621 438 q 479 482 535 482 q 336 426 390 482 q 282 283 282 369 q 317 176 282 215 q 417 138 351 138 z "},"∏":{"ha":936,"x_min":17,"x_max":947,"o":"m 707 797 l 389 797 l 226 -122 l 17 -122 l 211 979 l 947 979 l 753 -122 l 544 -122 l 707 797 z "},"√":{"ha":771,"x_min":-6,"x_max":892,"o":"m 251 504 l 292 108 l 699 1019 l 892 1019 l 351 -131 l 149 -131 l 83 338 l -6 338 l 24 504 l 251 504 z "},"∑":{"ha":996,"x_min":71,"x_max":936,"o":"m 103 53 l 515 454 l 253 806 l 283 979 l 936 979 l 907 810 l 493 810 l 753 454 l 333 47 l 789 47 l 758 -122 l 71 -122 l 103 53 z "},"◊":{"ha":993,"x_min":161,"x_max":885,"o":"m 342 -24 l 161 493 l 524 1010 l 700 1010 l 885 493 l 518 -24 l 342 -24 m 346 493 l 460 146 l 701 493 l 582 840 l 346 493 z "},"̈":{"ha":0,"x_min":-597,"x_max":-67,"o":"m -565 981 l -371 981 l -404 796 l -597 796 l -565 981 m -260 981 l -67 981 l -99 796 l -292 796 l -260 981 z "},"̇":{"ha":0,"x_min":-240,"x_max":28,"o":"m -204 997 l 28 997 l -8 794 l -240 794 l -204 997 z "},"̀":{"ha":0,"x_min":-303,"x_max":99,"o":"m -72 788 l -303 1004 l -93 1004 l 99 788 l -72 788 z "},"́":{"ha":0,"x_min":-443,"x_max":-42,"o":"m -251 1004 l -42 1004 l -272 788 l -443 788 l -251 1004 z "},"̋":{"ha":0,"x_min":-676,"x_max":-117,"o":"m -517 1004 l -356 1004 l -522 788 l -676 788 l -517 1004 m -278 1004 l -117 1004 l -283 788 l -437 788 l -278 1004 z "},"̂":{"ha":0,"x_min":-575,"x_max":-58,"o":"m -214 788 l -285 933 l -407 788 l -575 788 l -389 1004 l -168 1004 l -58 788 l -214 788 z "},"̌":{"ha":0,"x_min":-460,"x_max":57,"o":"m -304 997 l -233 851 l -111 997 l 57 997 l -129 781 l -350 781 l -460 997 l -304 997 z "},"̆":{"ha":0,"x_min":-554,"x_max":-71,"o":"m -414 1004 q -322 892 -422 892 q -211 1004 -225 892 l -71 1004 q -159 830 -92 879 q -329 781 -226 781 q -494 826 -435 781 q -554 969 -554 872 q -553 1004 -554 992 l -414 1004 z "},"̊":{"ha":0,"x_min":-412,"x_max":-51,"o":"m -242 761 q -366 802 -319 761 q -412 911 -412 843 q -358 1038 -412 988 q -222 1088 -304 1088 q -99 1046 -146 1088 q -51 936 -51 1004 q -106 810 -51 860 q -242 761 -160 761 m -242 850 q -182 873 -206 850 q -158 936 -158 896 q -176 981 -158 964 q -222 997 -193 997 q -282 974 -258 997 q -306 911 -306 951 q -288 867 -306 883 q -242 850 -271 850 z "},"̃":{"ha":0,"x_min":-658,"x_max":-71,"o":"m -256 789 q -328 803 -300 789 q -392 844 -357 817 q -435 874 -417 864 q -475 883 -453 883 q -521 865 -501 883 q -557 803 -540 846 l -658 840 q -585 972 -629 926 q -475 1017 -542 1017 q -405 1003 -433 1017 q -339 963 -376 989 q -294 933 -312 943 q -256 924 -276 924 q -209 942 -229 924 q -172 1003 -189 960 l -71 965 q -144 835 -96 882 q -256 789 -192 789 z "},"̄":{"ha":0,"x_min":-565,"x_max":-65,"o":"m -542 956 l -65 956 l -89 822 l -565 822 l -542 956 z "},"̒":{"ha":0,"x_min":-68,"x_max":142,"o":"m 132 994 q 73 972 90 985 q 51 929 56 958 l 142 929 l 117 788 l -68 788 l -46 911 q 106 1067 -22 1042 l 132 994 z "},"̦":{"ha":0,"x_min":-364,"x_max":-154,"o":"m -354 -262 q -296 -239 -314 -253 q -274 -197 -278 -225 l -364 -197 l -339 -56 l -154 -56 l -176 -179 q -329 -333 -200 -308 l -354 -262 z "},"̧":{"ha":0,"x_min":-442,"x_max":-74,"o":"m -203 10 l -260 -64 q -194 -43 -235 -43 q -105 -67 -136 -43 q -74 -139 -74 -92 q -126 -258 -74 -219 q -265 -296 -178 -296 q -384 -272 -339 -296 q -442 -206 -429 -249 l -319 -176 q -265 -210 -311 -210 q -224 -194 -240 -210 q -207 -150 -207 -179 q -219 -119 -207 -131 q -253 -108 -231 -108 q -301 -129 -285 -108 l -382 -110 l -307 10 l -203 10 z "},"̨":{"ha":0,"x_min":-437,"x_max":-86,"o":"m -86 -174 q -163 -256 -119 -229 q -267 -282 -207 -282 q -394 -251 -350 -282 q -437 -161 -437 -221 q -399 -68 -437 -107 q -281 0 -361 -29 l -124 0 q -264 -69 -225 -36 q -303 -135 -303 -101 q -254 -182 -303 -182 q -171 -125 -203 -182 l -86 -174 z "}," ":{"ha":1389,"x_min":0,"x_max":0,"o":""}," ":{"ha":694,"x_min":0,"x_max":0,"o":""}," ":{"ha":347,"x_min":0,"x_max":0,"o":""}," ":{"ha":104,"x_min":0,"x_max":0,"o":""}," ":{"ha":343,"x_min":0,"x_max":0,"o":""}," ":{"ha":188,"x_min":0,"x_max":0,"o":""}," ":{"ha":463,"x_min":0,"x_max":0,"o":""},"⓿":{"ha":1118,"x_min":68,"x_max":1103,"o":"m 544 -24 q 305 27 413 -24 q 133 182 197 78 q 68 438 68 286 q 121 708 68 578 q 297 924 174 838 q 615 1010 419 1010 q 853 962 742 1010 q 1033 810 964 914 q 1103 549 1103 707 q 1047 276 1103 407 q 865 61 990 146 q 544 -24 740 -24 m 563 210 q 729 263 667 210 q 817 390 792 315 q 842 540 842 464 q 775 723 842 668 q 611 778 708 778 q 443 725 506 778 q 356 597 381 672 q 331 446 331 522 q 397 264 331 318 q 563 210 464 210 m 561 321 q 499 347 522 321 q 475 433 475 374 q 505 594 475 522 q 611 667 535 667 q 672 640 649 667 q 696 553 696 613 q 666 393 696 465 q 561 321 636 321 z "},"❶":{"ha":1118,"x_min":68,"x_max":1103,"o":"m 544 -24 q 305 27 413 -24 q 133 182 197 78 q 68 438 68 286 q 121 708 68 578 q 297 924 174 838 q 615 1010 419 1010 q 853 962 742 1010 q 1033 810 964 914 q 1103 549 1103 707 q 1047 276 1103 407 q 865 61 990 146 q 544 -24 740 -24 m 639 221 l 733 765 l 619 765 q 572 704 603 725 q 488 683 540 683 l 463 683 l 440 556 l 482 556 q 564 576 542 556 l 500 221 l 639 221 z "},"❷":{"ha":1118,"x_min":68,"x_max":1103,"o":"m 544 -24 q 305 27 413 -24 q 133 182 197 78 q 68 438 68 286 q 121 708 68 578 q 297 924 174 838 q 615 1010 419 1010 q 853 962 742 1010 q 1033 810 964 914 q 1103 549 1103 707 q 1047 276 1103 407 q 865 61 990 146 q 544 -24 740 -24 m 767 235 l 786 350 l 571 350 q 759 471 683 400 q 835 631 835 542 q 775 754 835 718 q 628 790 715 790 q 463 742 522 790 q 404 604 404 693 q 406 579 404 588 l 547 565 q 543 597 543 582 q 563 656 543 633 q 618 678 582 678 q 682 611 682 678 q 640 511 682 557 q 532 428 599 465 q 356 340 465 390 l 338 235 l 767 235 z "},"❸":{"ha":1118,"x_min":68,"x_max":1103,"o":"m 544 -24 q 305 27 413 -24 q 133 182 197 78 q 68 438 68 286 q 121 708 68 578 q 297 924 174 838 q 615 1010 419 1010 q 853 962 742 1010 q 1033 810 964 914 q 1103 549 1103 707 q 1047 276 1103 407 q 865 61 990 146 q 544 -24 740 -24 m 581 210 q 745 260 690 210 q 800 378 800 310 q 689 496 800 471 q 789 542 750 504 q 828 638 828 581 q 763 747 828 717 q 619 778 697 778 q 458 731 517 778 q 393 600 400 683 l 529 579 q 551 644 533 621 q 613 668 569 668 q 679 613 679 668 q 599 547 679 547 l 557 547 l 540 447 l 564 447 q 626 435 600 447 q 651 385 651 424 q 635 339 651 358 q 576 319 618 319 q 493 401 504 319 l 349 386 q 420 251 353 292 q 581 210 488 210 z "},"❹":{"ha":1118,"x_min":68,"x_max":1103,"o":"m 544 -24 q 305 27 413 -24 q 133 182 197 78 q 68 438 68 286 q 121 708 68 578 q 297 924 174 838 q 615 1010 419 1010 q 853 962 742 1010 q 1033 810 964 914 q 1103 549 1103 707 q 1047 276 1103 407 q 865 61 990 146 q 544 -24 740 -24 m 686 225 l 707 339 l 792 339 l 810 443 l 724 443 l 783 768 l 635 768 l 326 433 l 310 339 l 568 339 l 547 225 l 686 225 m 638 653 l 590 443 l 456 443 l 638 653 z "},"❺":{"ha":1118,"x_min":68,"x_max":1103,"o":"m 544 -24 q 305 27 413 -24 q 133 182 197 78 q 68 438 68 286 q 121 708 68 578 q 297 924 174 838 q 615 1010 419 1010 q 853 962 742 1010 q 1033 810 964 914 q 1103 549 1103 707 q 1047 276 1103 407 q 865 61 990 146 q 544 -24 740 -24 m 565 215 q 742 282 685 215 q 799 440 799 349 q 747 567 799 531 q 632 603 696 603 q 561 590 593 603 q 513 554 529 576 l 547 657 l 808 657 l 826 771 l 468 771 l 376 454 l 501 443 q 531 485 513 471 q 583 499 550 499 q 654 421 654 499 q 634 355 654 382 q 567 328 614 328 q 517 344 539 328 q 490 392 496 361 l 349 368 q 423 250 360 285 q 565 215 486 215 z "},"❻":{"ha":1118,"x_min":68,"x_max":1103,"o":"m 544 -24 q 305 27 413 -24 q 133 182 197 78 q 68 438 68 286 q 121 708 68 578 q 297 924 174 838 q 615 1010 419 1010 q 853 962 742 1010 q 1033 810 964 914 q 1103 549 1103 707 q 1047 276 1103 407 q 865 61 990 146 q 544 -24 740 -24 m 563 210 q 727 269 668 210 q 786 415 786 329 q 735 547 786 506 q 615 589 685 589 q 493 544 542 589 q 532 633 504 599 q 607 668 560 667 q 654 656 636 668 q 681 613 672 643 l 817 636 q 749 743 806 708 q 614 778 693 778 q 456 728 515 778 q 370 603 396 678 q 344 449 344 529 q 407 265 344 319 q 563 210 469 210 m 561 318 q 505 343 526 318 q 482 438 483 368 q 522 472 499 461 q 574 483 546 483 q 626 466 604 483 q 647 411 647 449 q 628 347 647 375 q 561 318 610 318 z "},"❼":{"ha":1118,"x_min":68,"x_max":1103,"o":"m 544 -24 q 305 27 413 -24 q 133 182 197 78 q 68 438 68 286 q 121 708 68 578 q 297 924 174 838 q 615 1010 419 1010 q 853 962 742 1010 q 1033 810 964 914 q 1103 549 1103 707 q 1047 276 1103 407 q 865 61 990 146 q 544 -24 740 -24 m 569 221 l 572 249 q 651 472 589 372 q 829 657 713 572 l 849 765 l 439 765 l 418 644 l 683 644 q 502 457 571 567 q 415 235 433 347 l 414 221 l 569 221 z "},"❽":{"ha":1118,"x_min":68,"x_max":1103,"o":"m 544 -24 q 305 27 413 -24 q 133 182 197 78 q 68 438 68 286 q 121 708 68 578 q 297 924 174 838 q 615 1010 419 1010 q 853 962 742 1010 q 1033 810 964 914 q 1103 549 1103 707 q 1047 276 1103 407 q 865 61 990 146 q 544 -24 740 -24 m 576 210 q 753 259 690 210 q 817 386 817 308 q 726 521 817 476 q 809 565 783 535 q 835 636 835 596 q 771 742 835 707 q 617 778 707 778 q 455 731 510 778 q 400 615 400 683 q 471 499 400 539 q 370 451 403 486 q 338 368 338 417 q 405 251 338 293 q 576 210 472 210 m 611 557 q 559 581 578 567 q 540 621 540 596 q 615 679 540 679 q 673 664 650 679 q 696 614 696 649 q 647 547 696 567 l 611 557 m 582 314 q 513 331 540 314 q 486 388 486 349 q 547 468 486 444 l 601 450 q 669 381 669 431 q 649 333 669 353 q 582 314 629 314 z "},"❾":{"ha":1118,"x_min":68,"x_max":1103,"o":"m 544 -24 q 305 27 413 -24 q 133 182 197 78 q 68 438 68 286 q 121 708 68 578 q 297 924 174 838 q 615 1010 419 1010 q 853 962 742 1010 q 1033 810 964 914 q 1103 549 1103 707 q 1047 276 1103 407 q 865 61 990 146 q 544 -24 740 -24 m 571 210 q 779 309 725 210 q 833 531 833 408 q 770 721 833 664 q 610 778 707 778 q 484 749 533 778 q 413 677 435 721 q 390 586 390 633 q 449 460 390 506 q 585 415 507 415 q 690 451 651 415 q 652 356 679 393 q 578 318 625 318 q 496 378 510 318 l 360 354 q 431 246 372 282 q 571 210 489 210 m 611 521 q 550 540 571 521 q 529 592 529 558 q 549 647 529 622 q 613 671 568 671 q 699 560 699 671 q 611 521 664 521 z "},"⓪":{"ha":1138,"x_min":68,"x_max":1122,"o":"m 569 208 q 406 263 472 208 q 339 444 339 318 q 364 595 339 519 q 452 724 389 671 q 619 776 515 776 q 783 722 718 776 q 849 539 849 667 q 824 388 849 463 q 738 260 800 313 q 569 208 675 208 m 569 318 q 676 391 646 318 q 707 551 707 464 q 683 640 707 613 q 619 667 658 667 q 513 594 543 667 q 482 432 482 521 q 506 345 482 372 q 569 318 531 318 m 575 -24 q 334 24 450 -24 q 143 178 218 72 q 68 446 68 283 q 123 710 68 581 q 301 924 178 839 q 614 1010 424 1010 q 855 962 739 1010 q 1047 808 971 914 q 1122 540 1122 703 q 1067 276 1122 406 q 888 62 1011 147 q 575 -24 765 -24 m 571 58 q 832 133 729 58 q 981 317 935 207 q 1026 538 1026 426 q 967 754 1026 667 q 815 885 908 842 q 618 928 721 928 q 357 853 460 928 q 208 669 254 779 q 161 449 161 560 q 220 232 161 319 q 373 101 279 144 q 571 58 467 58 z "},"①":{"ha":1138,"x_min":68,"x_max":1122,"o":"m 565 578 q 483 557 543 557 l 442 557 l 463 682 l 488 682 q 572 703 540 682 q 619 764 603 724 l 732 764 l 636 221 l 500 221 l 565 578 m 575 -24 q 334 24 450 -24 q 143 178 218 72 q 68 446 68 283 q 123 710 68 581 q 301 924 178 839 q 614 1010 424 1010 q 855 962 739 1010 q 1047 808 971 914 q 1122 540 1122 703 q 1067 276 1122 406 q 888 62 1011 147 q 575 -24 765 -24 m 571 58 q 832 133 729 58 q 981 317 935 207 q 1026 538 1026 426 q 967 754 1026 667 q 815 885 908 842 q 618 928 721 928 q 357 853 460 928 q 208 669 254 779 q 161 449 161 560 q 220 232 161 319 q 373 101 279 144 q 571 58 467 58 z "},"②":{"ha":1138,"x_min":68,"x_max":1122,"o":"m 363 338 q 538 426 471 388 q 647 511 606 465 q 689 611 689 557 q 624 678 689 678 q 567 656 586 678 q 547 597 547 633 q 551 565 547 582 l 413 579 q 411 604 411 588 q 470 742 411 693 q 633 790 529 790 q 779 753 719 790 q 839 631 839 717 q 763 471 839 542 q 572 347 686 400 l 790 347 l 771 235 l 344 235 l 363 338 m 575 -24 q 334 24 450 -24 q 143 178 218 72 q 68 446 68 283 q 123 710 68 581 q 301 924 178 839 q 614 1010 424 1010 q 855 962 739 1010 q 1047 808 971 914 q 1122 540 1122 703 q 1067 276 1122 406 q 888 62 1011 147 q 575 -24 765 -24 m 571 58 q 832 133 729 58 q 981 317 935 207 q 1026 538 1026 426 q 967 754 1026 667 q 815 885 908 842 q 618 928 721 928 q 357 853 460 928 q 208 669 254 779 q 161 449 161 560 q 220 232 161 319 q 373 101 279 144 q 571 58 467 58 z "},"③":{"ha":1138,"x_min":68,"x_max":1122,"o":"m 581 208 q 422 250 489 208 q 350 386 354 292 l 492 400 q 576 318 501 318 q 637 337 619 318 q 654 383 654 356 q 628 435 654 424 q 565 447 601 447 l 542 447 l 558 544 l 599 544 q 681 613 681 544 q 613 668 681 668 q 550 644 569 668 q 528 578 531 621 l 394 600 q 460 730 401 683 q 619 776 518 776 q 763 746 699 776 q 828 636 828 715 q 789 542 828 579 q 689 496 750 504 q 799 376 799 471 q 776 295 799 333 q 703 233 753 257 q 581 208 654 208 m 575 -24 q 334 24 450 -24 q 143 178 218 72 q 68 446 68 283 q 123 710 68 581 q 301 924 178 839 q 614 1010 424 1010 q 855 962 739 1010 q 1047 808 971 914 q 1122 540 1122 703 q 1067 276 1122 406 q 888 62 1011 147 q 575 -24 765 -24 m 571 58 q 832 133 729 58 q 981 317 935 207 q 1026 538 1026 426 q 967 754 1026 667 q 815 885 908 842 q 618 928 721 928 q 357 853 460 928 q 208 669 254 779 q 161 449 161 560 q 220 232 161 319 q 373 101 279 144 q 571 58 467 58 z "},"④":{"ha":1138,"x_min":68,"x_max":1122,"o":"m 706 340 l 685 225 l 549 225 l 569 340 l 311 340 l 326 433 l 636 768 l 781 768 l 721 442 l 807 442 l 792 340 l 706 340 m 454 442 l 590 442 l 639 654 l 454 442 m 575 -24 q 334 24 450 -24 q 143 178 218 72 q 68 446 68 283 q 123 710 68 581 q 301 924 178 839 q 614 1010 424 1010 q 855 962 739 1010 q 1047 808 971 914 q 1122 540 1122 703 q 1067 276 1122 406 q 888 62 1011 147 q 575 -24 765 -24 m 571 58 q 832 133 729 58 q 981 317 935 207 q 1026 538 1026 426 q 967 754 1026 667 q 815 885 908 842 q 618 928 721 928 q 357 853 460 928 q 208 669 254 779 q 161 449 161 560 q 220 232 161 319 q 373 101 279 144 q 571 58 467 58 z "},"⑤":{"ha":1138,"x_min":68,"x_max":1122,"o":"m 565 215 q 423 250 486 215 q 349 368 360 285 l 489 390 q 516 342 494 358 q 567 326 538 326 q 635 353 615 326 q 656 421 656 381 q 637 480 656 460 q 583 500 618 500 q 530 485 549 500 q 500 443 511 471 l 376 454 l 468 771 l 825 771 l 807 658 l 546 658 l 511 553 q 560 590 528 576 q 631 603 592 603 q 746 566 694 603 q 797 439 797 529 q 774 331 797 382 q 698 248 750 281 q 565 215 646 215 m 575 -24 q 334 24 450 -24 q 143 178 218 72 q 68 446 68 283 q 123 710 68 581 q 301 924 178 839 q 614 1010 424 1010 q 855 962 739 1010 q 1047 808 971 914 q 1122 540 1122 703 q 1067 276 1122 406 q 888 62 1011 147 q 575 -24 765 -24 m 571 58 q 832 133 729 58 q 981 317 935 207 q 1026 538 1026 426 q 967 754 1026 667 q 815 885 908 842 q 618 928 721 928 q 357 853 460 928 q 208 669 254 779 q 161 449 161 560 q 220 232 161 319 q 373 101 279 144 q 571 58 467 58 z "},"⑥":{"ha":1138,"x_min":68,"x_max":1122,"o":"m 622 588 q 743 545 692 588 q 794 414 794 503 q 768 312 794 358 q 692 237 742 265 q 571 208 642 208 q 416 263 478 208 q 354 447 354 318 q 380 602 354 528 q 465 726 406 676 q 622 776 525 776 q 757 742 701 776 q 824 636 813 708 l 692 613 q 665 656 683 643 q 615 668 646 668 q 499 542 526 668 q 622 588 544 588 m 569 315 q 638 344 618 315 q 657 411 657 374 q 635 467 657 450 q 582 485 613 485 q 531 473 556 485 q 489 438 506 461 q 511 341 489 367 q 569 315 533 315 m 575 -24 q 334 24 450 -24 q 143 178 218 72 q 68 446 68 283 q 123 710 68 581 q 301 924 178 839 q 614 1010 424 1010 q 855 962 739 1010 q 1047 808 971 914 q 1122 540 1122 703 q 1067 276 1122 406 q 888 62 1011 147 q 575 -24 765 -24 m 571 58 q 832 133 729 58 q 981 317 935 207 q 1026 538 1026 426 q 967 754 1026 667 q 815 885 908 842 q 618 928 721 928 q 357 853 460 928 q 208 669 254 779 q 161 449 161 560 q 220 232 161 319 q 373 101 279 144 q 571 58 467 58 z "},"⑦":{"ha":1138,"x_min":68,"x_max":1122,"o":"m 413 235 q 499 456 431 346 q 681 644 568 567 l 414 644 l 435 764 l 842 764 l 824 658 q 644 472 706 574 q 565 249 582 371 l 563 221 l 410 221 l 413 235 m 575 -24 q 334 24 450 -24 q 143 178 218 72 q 68 446 68 283 q 123 710 68 581 q 301 924 178 839 q 614 1010 424 1010 q 855 962 739 1010 q 1047 808 971 914 q 1122 540 1122 703 q 1067 276 1122 406 q 888 62 1011 147 q 575 -24 765 -24 m 571 58 q 832 133 729 58 q 981 317 935 207 q 1026 538 1026 426 q 967 754 1026 667 q 815 885 908 842 q 618 928 721 928 q 357 853 460 928 q 208 669 254 779 q 161 449 161 560 q 220 232 161 319 q 373 101 279 144 q 571 58 467 58 z "},"⑧":{"ha":1138,"x_min":68,"x_max":1122,"o":"m 728 519 q 821 385 821 476 q 758 258 821 307 q 582 208 694 208 q 411 250 478 208 q 344 367 344 292 q 378 450 344 417 q 479 496 411 483 q 407 614 407 540 q 461 729 407 682 q 622 776 515 776 q 776 741 713 776 q 839 636 839 706 q 728 519 839 546 m 621 681 q 544 621 544 681 q 615 556 544 575 l 654 544 q 701 613 701 565 q 678 665 701 649 q 621 681 656 681 m 588 311 q 656 331 635 311 q 676 379 676 351 q 608 450 676 429 l 551 468 q 490 385 490 443 q 518 328 490 346 q 588 311 546 311 m 575 -24 q 334 24 450 -24 q 143 178 218 72 q 68 446 68 283 q 123 710 68 581 q 301 924 178 839 q 614 1010 424 1010 q 855 962 739 1010 q 1047 808 971 914 q 1122 540 1122 703 q 1067 276 1122 406 q 888 62 1011 147 q 575 -24 765 -24 m 571 58 q 832 133 729 58 q 981 317 935 207 q 1026 538 1026 426 q 967 754 1026 667 q 815 885 908 842 q 618 928 721 928 q 357 853 460 928 q 208 669 254 779 q 161 449 161 560 q 220 232 161 319 q 373 101 279 144 q 571 58 467 58 z "},"⑨":{"ha":1138,"x_min":68,"x_max":1122,"o":"m 613 776 q 772 719 708 776 q 836 529 836 663 q 782 308 836 407 q 574 208 728 208 q 433 244 492 208 q 364 354 375 281 l 497 378 q 581 315 510 315 q 656 353 628 315 q 694 450 685 390 q 588 415 656 415 q 452 460 510 415 q 394 585 394 506 q 448 719 394 661 q 613 776 501 776 m 531 590 q 551 537 531 556 q 614 518 572 518 q 704 558 671 518 q 617 672 703 672 q 550 647 569 672 q 531 590 531 622 m 575 -24 q 334 24 450 -24 q 143 178 218 72 q 68 446 68 283 q 123 710 68 581 q 301 924 178 839 q 614 1010 424 1010 q 855 962 739 1010 q 1047 808 971 914 q 1122 540 1122 703 q 1067 276 1122 406 q 888 62 1011 147 q 575 -24 765 -24 m 571 58 q 832 133 729 58 q 981 317 935 207 q 1026 538 1026 426 q 967 754 1026 667 q 815 885 908 842 q 618 928 721 928 q 357 853 460 928 q 208 669 254 779 q 161 449 161 560 q 220 232 161 319 q 373 101 279 144 q 571 58 467 58 z "},"฿":{"ha":924,"x_min":42,"x_max":919,"o":"m 704 504 q 824 444 779 492 q 868 313 868 397 q 829 167 868 238 q 702 48 790 96 q 475 0 614 0 l 439 0 l 413 -149 l 332 -149 l 358 0 l 42 0 l 213 965 l 529 965 l 551 1092 l 632 1092 l 610 965 l 611 965 q 829 917 739 965 q 919 750 919 868 q 865 597 919 664 q 704 504 810 531 m 388 808 l 344 564 l 458 564 l 501 808 l 388 808 m 539 564 q 660 609 621 568 q 700 704 700 650 q 667 780 700 756 q 582 808 633 804 l 539 564 m 386 156 l 433 424 l 321 424 l 274 156 l 386 156 m 472 156 q 612 203 568 156 q 656 313 656 251 q 618 397 656 369 q 524 424 581 424 l 514 424 l 467 156 l 472 156 z "},"Ƀ":{"ha":924,"x_min":42,"x_max":919,"o":"m 704 504 q 824 444 779 492 q 868 313 868 397 q 834 175 868 243 q 722 58 800 107 q 521 1 644 10 l 494 -149 l 413 -149 l 439 0 l 339 0 l 313 -149 l 231 -149 l 257 0 l 42 0 l 213 965 l 426 965 l 449 1090 l 531 1090 l 508 965 l 608 965 l 631 1090 l 713 1090 l 690 961 q 919 750 919 936 q 865 597 919 664 q 704 504 810 531 m 507 564 q 640 606 597 564 q 682 704 682 647 q 644 784 682 760 q 550 808 606 808 l 403 808 l 360 564 l 507 564 m 454 156 q 594 203 550 156 q 638 313 638 251 q 600 397 638 369 q 506 424 563 424 l 335 424 l 288 156 l 454 156 z "},"₺":{"ha":810,"x_min":24,"x_max":807,"o":"m 807 310 q 663 90 771 179 q 374 0 554 0 l 64 0 l 128 361 l 24 332 l 40 426 l 144 456 l 163 564 l 60 535 l 76 631 l 179 660 l 233 965 l 457 965 l 414 724 l 710 806 l 693 711 l 397 629 l 378 521 l 674 603 l 657 507 l 361 425 l 315 165 l 375 165 q 541 214 481 165 q 622 340 601 263 l 807 310 z "},"₽":{"ha":904,"x_min":3,"x_max":942,"o":"m 376 360 l 358 257 l 538 257 l 522 169 l 343 169 l 314 0 l 89 0 l 119 169 l 3 169 l 18 257 l 135 257 l 153 360 l 38 360 l 64 508 l 179 508 l 260 965 l 593 965 q 842 905 742 965 q 942 693 942 844 q 901 531 942 606 q 767 408 861 456 q 522 360 674 360 l 376 360 m 403 508 l 500 508 q 649 558 604 508 q 694 679 694 608 q 556 806 694 806 l 454 806 l 403 508 z "},"₹":{"ha":900,"x_min":89,"x_max":894,"o":"m 617 833 q 671 696 665 778 l 847 696 l 832 608 l 668 608 q 576 440 651 510 q 342 356 500 369 l 571 0 l 329 0 l 89 376 l 106 478 l 217 478 q 435 608 406 478 l 129 608 l 144 696 l 440 696 q 391 803 433 772 q 289 833 349 833 l 168 833 l 192 965 l 894 965 l 871 833 l 617 833 z "},"₩":{"ha":1278,"x_min":24,"x_max":1357,"o":"m 1224 635 l 1307 635 l 1292 553 l 1190 553 l 1147 443 l 1274 443 l 1258 361 l 1114 361 l 968 0 l 728 0 l 724 361 l 558 361 l 426 0 l 186 0 l 168 361 l 24 361 l 38 443 l 164 443 l 160 553 l 57 553 l 72 635 l 156 635 l 139 965 l 329 965 l 329 635 l 511 635 l 636 965 l 844 965 l 854 635 l 1036 635 l 1151 965 l 1357 965 l 1224 635 m 658 635 l 721 635 l 721 671 q 731 847 721 754 l 725 847 q 671 671 700 744 l 658 635 m 331 443 l 439 443 l 481 553 l 331 553 l 331 443 m 724 443 l 722 553 l 628 553 l 588 443 l 724 443 m 1007 553 l 856 553 l 860 443 l 968 443 l 1007 553 m 408 361 l 331 361 l 331 279 q 322 124 331 218 l 326 124 q 376 276 339 175 l 408 361 m 940 361 l 861 361 l 864 276 l 865 215 q 861 124 865 172 l 865 124 q 911 279 885 206 l 940 361 z "},"↑":{"ha":615,"x_min":176,"x_max":586,"o":"m 321 769 l 176 769 l 429 1042 l 586 769 l 443 769 l 299 -49 l 176 -49 l 321 769 z "},"↗":{"ha":1015,"x_min":53,"x_max":963,"o":"m 150 -28 l 53 60 l 710 858 l 568 988 l 901 988 l 963 636 l 808 772 l 150 -28 z "},"→":{"ha":1424,"x_min":113,"x_max":1340,"o":"m 1078 515 l 1104 663 l 1340 458 l 1031 254 l 1057 401 l 113 401 l 133 515 l 1078 515 z "},"↘":{"ha":1218,"x_min":208,"x_max":1119,"o":"m 1119 367 l 1057 15 l 724 15 l 865 144 l 208 943 l 306 1031 l 964 231 l 1119 367 z "},"↓":{"ha":615,"x_min":81,"x_max":490,"o":"m 346 217 l 490 217 l 238 -56 l 81 217 l 225 217 l 369 1035 l 490 1035 l 346 217 z "},"↙":{"ha":1014,"x_min":107,"x_max":1017,"o":"m 921 1031 l 1017 943 l 360 144 l 501 15 l 169 15 l 107 367 l 263 231 l 921 1031 z "},"←":{"ha":1424,"x_min":122,"x_max":1350,"o":"m 386 401 l 360 254 l 122 458 l 432 663 l 406 515 l 1350 515 l 1329 401 l 386 401 z "},"↖":{"ha":1218,"x_min":154,"x_max":1064,"o":"m 154 635 l 215 986 l 549 986 l 407 857 l 1064 58 l 967 -29 l 308 771 l 154 635 z "},"↔":{"ha":1424,"x_min":122,"x_max":1339,"o":"m 386 401 l 360 254 l 122 458 l 432 663 l 406 515 l 1078 515 l 1104 663 l 1339 458 l 1031 254 l 1057 401 l 386 401 z "},"↕":{"ha":617,"x_min":81,"x_max":588,"o":"m 225 217 l 322 769 l 178 769 l 431 1042 l 588 769 l 443 769 l 346 217 l 490 217 l 238 -56 l 81 217 l 225 217 z "},"↩":{"ha":1335,"x_min":122,"x_max":1294,"o":"m 122 458 l 432 663 l 406 515 l 936 515 q 1101 568 1039 515 q 1163 717 1163 621 q 1119 819 1163 783 q 996 854 1075 854 l 686 854 l 706 968 l 1031 968 q 1225 909 1156 968 q 1294 739 1294 850 q 1249 560 1294 636 q 1120 442 1203 483 q 931 401 1038 401 l 386 401 l 360 254 l 122 458 z "},"↪":{"ha":1335,"x_min":160,"x_max":1251,"o":"m 968 401 l 424 401 q 229 463 299 401 q 160 635 160 524 q 205 814 160 739 q 332 928 250 889 q 522 968 414 968 l 847 968 l 828 854 l 518 854 q 353 802 414 854 q 292 654 292 750 q 335 551 292 588 q 458 515 379 515 l 989 515 l 1015 663 l 1251 458 l 943 254 l 968 401 z "},"↰":{"ha":1126,"x_min":189,"x_max":1119,"o":"m 978 776 l 451 776 l 425 629 l 189 833 l 497 1038 l 471 890 l 1119 890 l 963 0 l 840 0 l 978 776 z "},"↱":{"ha":1126,"x_min":42,"x_max":1110,"o":"m 42 0 l 199 890 l 847 890 l 874 1038 l 1110 833 l 801 629 l 826 776 l 301 776 l 164 0 l 42 0 z "},"↲":{"ha":1126,"x_min":68,"x_max":1136,"o":"m 1136 986 l 979 96 l 332 96 l 306 -51 l 68 153 l 378 357 l 351 210 l 878 210 l 1014 986 l 1136 986 z "},"↳":{"ha":1126,"x_min":58,"x_max":989,"o":"m 201 210 l 728 210 l 754 357 l 989 153 l 682 -51 l 707 96 l 58 96 l 215 986 l 338 986 l 201 210 z "},"↴":{"ha":1243,"x_min":199,"x_max":1121,"o":"m 979 231 l 1121 231 l 868 -42 l 713 231 l 857 231 l 972 890 l 199 890 l 219 1004 l 1115 1004 l 979 231 z "},"↻":{"ha":1401,"x_min":124,"x_max":1331,"o":"m 1067 533 q 1069 576 1069 561 q 1026 744 1069 672 q 905 856 982 817 q 729 894 828 894 q 495 835 604 894 q 320 669 386 776 q 254 426 254 563 q 297 248 254 325 q 415 129 339 171 q 588 88 490 88 q 761 122 674 88 q 922 224 849 157 l 985 131 q 784 8 890 50 q 567 -33 678 -33 q 340 22 440 -33 q 181 178 239 78 q 124 408 124 278 q 212 721 124 582 q 445 938 300 860 q 751 1015 590 1015 q 979 964 879 1015 q 1136 817 1079 913 q 1193 597 1193 722 q 1189 533 1193 567 l 1331 533 l 1078 261 l 921 533 l 1067 533 z "},"⇄":{"ha":1469,"x_min":151,"x_max":1357,"o":"m 414 563 l 388 415 l 151 619 l 460 824 l 433 676 l 1310 676 l 1289 563 l 414 563 m 1119 501 l 1357 296 l 1047 92 l 1074 239 l 200 239 l 219 353 l 1094 353 l 1119 501 z "},"⇅":{"ha":953,"x_min":81,"x_max":924,"o":"m 658 769 l 514 769 l 767 1042 l 924 769 l 781 769 l 649 22 l 526 22 l 658 769 m 81 217 l 225 217 l 357 974 l 479 974 l 346 217 l 490 217 l 238 -56 l 81 217 z "},"●":{"ha":1118,"x_min":68,"x_max":1103,"o":"m 544 -24 q 305 27 413 -24 q 133 182 197 78 q 68 438 68 286 q 121 708 68 578 q 297 924 174 838 q 615 1010 419 1010 q 853 962 742 1010 q 1033 810 964 914 q 1103 549 1103 707 q 1047 276 1103 407 q 865 61 990 146 q 544 -24 740 -24 z "},"○":{"ha":1138,"x_min":68,"x_max":1122,"o":"m 575 -24 q 334 24 450 -24 q 143 178 218 72 q 68 446 68 283 q 123 710 68 581 q 301 924 178 839 q 614 1010 424 1010 q 855 962 739 1010 q 1047 808 971 914 q 1122 540 1122 703 q 1067 276 1122 406 q 888 62 1011 147 q 575 -24 765 -24 m 571 58 q 832 133 729 58 q 981 317 935 207 q 1026 538 1026 426 q 967 754 1026 667 q 815 885 908 842 q 618 928 721 928 q 357 853 460 928 q 208 669 254 779 q 161 449 161 560 q 220 232 161 319 q 373 101 279 144 q 571 58 467 58 z "},"℅":{"ha":1215,"x_min":75,"x_max":1197,"o":"m 1006 1021 l 1175 1021 l 244 -18 l 75 -18 l 1006 1021 m 329 488 q 152 541 228 488 q 76 725 76 594 q 104 865 76 797 q 197 976 132 932 q 364 1019 261 1019 q 529 976 463 1019 q 604 842 596 932 l 444 800 q 363 889 443 889 q 276 840 303 889 q 249 729 249 792 q 272 645 249 671 q 333 619 296 619 q 396 644 372 619 q 428 713 419 669 l 575 669 q 493 537 556 586 q 329 488 431 488 m 904 -14 q 728 38 804 -14 q 653 221 653 90 q 684 365 653 297 q 781 476 715 433 q 947 518 847 518 q 1122 466 1047 518 q 1197 283 1197 414 q 1166 139 1197 207 q 1069 28 1135 71 q 904 -14 1004 -14 m 908 115 q 995 172 967 115 q 1024 293 1024 228 q 943 389 1024 389 q 856 332 885 389 q 826 211 826 275 q 850 136 826 157 q 908 115 874 115 z "},"":{"ha":1253,"x_min":83,"x_max":1267,"o":"m 1267 1004 l 1244 890 l 472 890 l 347 231 l 490 231 l 236 -42 l 83 231 l 225 231 l 371 1004 l 1267 1004 z "}}}
